<?xml version="1.0" encoding="utf-8"?>
<!-- Generator: Adobe Illustrator 15.0.0, SVG Export Plug-In . SVG Version: 6.00 Build 0)  -->
<!DOCTYPE svg PUBLIC "-//W3C//DTD SVG 1.1//EN" "http://www.w3.org/Graphics/SVG/1.1/DTD/svg11.dtd">
<svg version="1.1" id="图层_1" xmlns="http://www.w3.org/2000/svg" xmlns:xlink="http://www.w3.org/1999/xlink" x="0px" y="0px"
	 width="50px" height="50px" viewBox="0 0 50 50" enable-background="new 0 0 50 50" xml:space="preserve">
<rect display="none" fill="#FF0000" width="50" height="50"/>
<g>
	<g>
		<path fill="#666666" d="M30.359,25.248l-6.627-6.625l-6.378,0.024l0.009,5.873l6.863,6.861c0.431,0.432,1.124,0.438,1.547,0.014
			l4.6-4.6C30.796,26.371,30.79,25.68,30.359,25.248L30.359,25.248z M20.107,22.436c-0.598,0-1.083-0.486-1.083-1.084
			c0-0.6,0.485-1.084,1.083-1.084c0.6,0,1.085,0.484,1.085,1.084C21.192,21.949,20.707,22.436,20.107,22.436L20.107,22.436z
			 M20.107,22.436"/>
		<path fill="#666666" d="M33.318,25.262l-6.625-6.625l-1.211,0.002l6.65,6.618c0.431,0.43,0.437,1.123,0.014,1.547l-4.601,4.6
			c-0.112,0.111-0.243,0.191-0.384,0.244c0.391,0.15,1.26,0.072,1.57-0.238l4.6-4.6C33.756,26.385,33.75,25.693,33.318,25.262
			L33.318,25.262z M32.906,25.262"/>
	</g>
</g>
</svg>
