<?xml version="1.0" encoding="utf-8"?>
<!-- Generator: Adobe Illustrator 15.0.0, SVG Export Plug-In . SVG Version: 6.00 Build 0)  -->
<!DOCTYPE svg PUBLIC "-//W3C//DTD SVG 1.1//EN" "http://www.w3.org/Graphics/SVG/1.1/DTD/svg11.dtd">
<svg version="1.1" id="图层_1" xmlns="http://www.w3.org/2000/svg" xmlns:xlink="http://www.w3.org/1999/xlink" x="0px" y="0px"
	 width="50px" height="50px" viewBox="0 0 50 50" enable-background="new 0 0 50 50" xml:space="preserve">
<rect display="none" fill="#FF0000" width="50" height="50"/>
<g>
	<path fill="#666666" d="M31.61,18.927H18.361c-1.132,0-1.163,1.026-1.163,2.159v8.33c0,1.133,0.031,2.156,1.163,2.156H31.61
		c1.132,0,1.19-1.023,1.19-2.156l0.001-8.713c0-1.141-0.631-1.776-1.763-1.776H31.61z M19.361,19.963H30.61
		c0.477,0,1.049,0.053,1.049,0.73l-5.138,5.139c-0.853,0.852-2.229,0.852-3.08,0l-5.138-5.139
		C18.275,20.031,18.885,19.963,19.361,19.963L19.361,19.963z M30.872,30.539H19.066c-0.618,0-0.828-0.506-0.828-1.123v-7.322
		l4.548,4.549c0.609,0.607,1.404,0.908,2.2,0.908c0.795,0,1.59-0.301,2.199-0.908l4.548-4.549v7.322
		C31.733,30.033,31.49,30.539,30.872,30.539L30.872,30.539z M30.61,30.539"/>
</g>
</svg>
