<?xml version="1.0" encoding="utf-8"?>
<!-- Generator: Adobe Illustrator 15.0.0, SVG Export Plug-In . SVG Version: 6.00 Build 0)  -->
<!DOCTYPE svg PUBLIC "-//W3C//DTD SVG 1.1//EN" "http://www.w3.org/Graphics/SVG/1.1/DTD/svg11.dtd">
<svg version="1.1" id="图层_1" xmlns="http://www.w3.org/2000/svg" xmlns:xlink="http://www.w3.org/1999/xlink" x="0px" y="0px"
	 width="50px" height="50px" viewBox="0 0 50 50" enable-background="new 0 0 50 50" xml:space="preserve">
<g>
	<path fill="#6F6F6F" d="M26.427,33.501c-0.311,0-0.595-0.104-0.828-0.275l-0.003,0.004l-5.505-4.547H15.31
		c-0.779,0-1.468-0.52-1.468-1.305v-4.747c0-0.785,0.878-1.288,1.656-1.291h4.593l5.441-4.986l0.004,0.005
		c0.244-0.201,0.552-0.327,0.891-0.327c0.78,0,1.412,0.637,1.412,1.424v14.621C27.839,32.864,27.207,33.501,26.427,33.501
		L26.427,33.501z M26.427,33.501"/>
	<g>
		<path fill="#6F6F6F" d="M30.622,28.397c-0.252,0.254-0.664,0.254-0.916,0c-0.253-0.252-0.253-0.662,0-0.916l6.346-6.346
			c0.253-0.253,0.664-0.253,0.917,0s0.253,0.663,0,0.916L30.622,28.397z"/>
		<path fill="#6F6F6F" d="M36.969,27.481c0.253,0.254,0.253,0.664,0,0.916c-0.253,0.254-0.664,0.254-0.917,0l-6.346-6.346
			c-0.253-0.253-0.253-0.663,0-0.916c0.252-0.253,0.664-0.253,0.916,0L36.969,27.481z M36.969,27.481"/>
	</g>
</g>
</svg>
