<?xml version="1.0" standalone="no"?><!DOCTYPE svg PUBLIC "-//W3C//DTD SVG 1.1//EN" "http://www.w3.org/Graphics/SVG/1.1/DTD/svg11.dtd"><svg t="1514971827743" class="icon" style="" viewBox="0 0 1024 1024" version="1.1" xmlns="http://www.w3.org/2000/svg" p-id="2644" xmlns:xlink="http://www.w3.org/1999/xlink" width="50" height="50"><defs><style type="text/css"></style></defs><path d="M5.12 811.008l137.216 0 0 138.24-137.216 0 0-138.24Z" p-id="2645" fill="#666666"></path><path d="M283.648 811.008l735.232 0 0 138.24-735.232 0 0-138.24Z" p-id="2646" fill="#666666"></path><path d="M283.648 74.752l735.232 0 0 138.24-735.232 0 0-138.24Z" p-id="2647" fill="#666666"></path><path d="M283.648 454.656l735.232 0 0 138.24-735.232 0 0-138.24Z" p-id="2648" fill="#666666"></path><path d="M5.12 454.656l137.216 0 0 138.24-137.216 0 0-138.24Z" p-id="2649" fill="#666666"></path><path d="M5.12 74.752l137.216 0 0 138.24-137.216 0 0-138.24Z" p-id="2650" fill="#666666"></path></svg>