<?xml version="1.0" encoding="utf-8"?>
<!-- Generator: Adobe Illustrator 15.0.0, SVG Export Plug-In . SVG Version: 6.00 Build 0)  -->
<!DOCTYPE svg PUBLIC "-//W3C//DTD SVG 1.1//EN" "http://www.w3.org/Graphics/SVG/1.1/DTD/svg11.dtd">
<svg version="1.1" id="图层_1" xmlns="http://www.w3.org/2000/svg" xmlns:xlink="http://www.w3.org/1999/xlink" x="0px" y="0px"
	 width="50px" height="50px" viewBox="0 0 50 50" enable-background="new 0 0 50 50" xml:space="preserve">
<rect display="none" fill="#FF0000" width="50" height="50"/>
<g>
	<g>
		<path fill="#666666" d="M16.594,16.281c-0.079,0-0.158,0.031-0.217,0.092c-0.06,0.06-0.089,0.139-0.089,0.217l0.002,6.407
			c0,0.039,0.024,0.078,0.064,0.094c0.04,0.016,0.083,0.006,0.112-0.021l2.166-2.156l2.901,2.891c0.056,0.057,0.134,0.09,0.219,0.09
			s0.162-0.033,0.218-0.09l1.971-1.963c0.057-0.055,0.091-0.133,0.091-0.219c0-0.084-0.034-0.162-0.091-0.219l-2.9-2.889
			l2.104-2.094c0.029-0.029,0.039-0.074,0.022-0.113c-0.017-0.04-0.056-0.064-0.097-0.063L16.594,16.281z M16.594,16.281"/>
		<path fill="#666666" d="M16.596,34.258c-0.079,0-0.159-0.031-0.219-0.092c-0.06-0.061-0.09-0.139-0.09-0.219l0.002-6.459
			c0-0.041,0.024-0.078,0.064-0.094c0.04-0.018,0.083-0.008,0.112,0.021l2.166,2.156l2.901-2.891c0.056-0.057,0.134-0.09,0.218-0.09
			c0.086,0,0.163,0.033,0.219,0.09l1.971,1.961c0.057,0.057,0.091,0.135,0.091,0.219c0,0.086-0.034,0.164-0.091,0.221l-2.9,2.889
			l2.105,2.096c0.028,0.029,0.039,0.074,0.022,0.113s-0.056,0.063-0.095,0.063L16.596,34.258z M16.596,34.258"/>
	</g>
	<path fill="#666666" d="M33.995,16.281c0.079,0,0.157,0.031,0.216,0.092c0.062,0.06,0.092,0.139,0.092,0.217l-0.004,6.407
		c0,0.039-0.023,0.078-0.063,0.094c-0.041,0.016-0.084,0.006-0.113-0.021l-2.164-2.156l-2.903,2.891
		c-0.056,0.057-0.134,0.09-0.218,0.09c-0.085,0-0.162-0.033-0.218-0.09l-1.971-1.963c-0.057-0.055-0.091-0.133-0.091-0.219
		c0-0.084,0.034-0.162,0.091-0.219l2.901-2.889l-2.104-2.094c-0.029-0.029-0.039-0.074-0.022-0.113
		c0.017-0.04,0.055-0.064,0.096-0.063L33.995,16.281z M33.995,16.281"/>
	<path fill="#666666" d="M33.992,34.258c0.079,0,0.158-0.031,0.219-0.092s0.092-0.139,0.092-0.219l-0.004-6.459
		c0-0.041-0.023-0.078-0.063-0.094c-0.041-0.018-0.084-0.008-0.113,0.021l-2.164,2.156l-2.903-2.891
		c-0.056-0.057-0.134-0.09-0.218-0.09c-0.085,0-0.162,0.033-0.218,0.09l-1.971,1.961c-0.057,0.057-0.091,0.135-0.091,0.219
		c0,0.086,0.034,0.164,0.091,0.221l2.901,2.889l-2.106,2.096c-0.028,0.029-0.038,0.074-0.022,0.113s0.055,0.063,0.096,0.063
		L33.992,34.258z M33.992,34.258"/>
</g>
</svg>
