<?xml version="1.0" standalone="no"?><!DOCTYPE svg PUBLIC "-//W3C//DTD SVG 1.1//EN" "http://www.w3.org/Graphics/SVG/1.1/DTD/svg11.dtd"><svg t="1513649521570" class="icon" style="" viewBox="0 0 1024 1024" version="1.1" xmlns="http://www.w3.org/2000/svg" p-id="1337" xmlns:xlink="http://www.w3.org/1999/xlink" width="32" height="32"><defs><style type="text/css"></style></defs><path d="M707.359 0H208.846c-49.401 0-89.823 40.422-89.823 89.823v368.284c0.038 0 0 476.07 0 476.07 0 49.401 40.422 89.823 89.823 89.823h606.308c49.407 0 89.823-40.422 89.823-89.823V197.624L707.36 0zM293.352 615.82h-41.38v86.117H196.05v-246.05h102.892c59.643 1.503 90.591 27.226 92.828 77.171 0.734 55.92-32.066 83.513-98.42 82.762z m208.024 86.117H420.85v-246.05h77.17c88.721 0.752 133.825 41.014 135.327 120.789 2.971 86.5-41.014 128.232-131.971 125.261z m336.64-200.195H717.227v59.276h105.13v44.737h-105.13v96.182h-55.92v-246.05h176.707v45.855z m-130.497-305.72V50.806l145.21 145.218H707.52z m0 0" fill="#666666" p-id="1338"></path><path d="M496.901 501.742h-19.013v156.577h19.013c51.447 0 77.171-26.841 77.171-80.525-1.503-49.944-27.226-75.301-77.17-76.052z m0 0M288.877 498.388h-36.906v74.932h36.906c29.08-0.734 43.986-13.42 44.737-38.025-0.751-23.855-15.658-36.157-44.737-36.907z m0 0" fill="#666666" p-id="1339"></path></svg>