<?xml version="1.0" standalone="no"?><!DOCTYPE svg PUBLIC "-//W3C//DTD SVG 1.1//EN" "http://www.w3.org/Graphics/SVG/1.1/DTD/svg11.dtd"><svg t="1514347467896" class="icon" style="" viewBox="0 0 1024 1024" version="1.1" xmlns="http://www.w3.org/2000/svg" p-id="3138" xmlns:xlink="http://www.w3.org/1999/xlink" width="50" height="50"><defs><style type="text/css"></style></defs><path d="M768.8 703.6c-35.6 0-68 14.8-91.2 38.4l-309.2-171.6c9.2-17.6 14.6-37.2 14.6-58.4 0-12.6-2.4-24.4-5.6-36L682 286.8c22.8 20.4 52.4 33.2 85.2 33.2 70.6 0 128-57.4 128-128s-57.4-128-128-128-128 57.4-128 128c0 14.6 3 28.4 7.4 41.4l-301.8 187.4c-23-22.8-54.8-37-89.8-37-70.6 0-128 57.4-128 128s57.4 128 128 128c25.6 0 49.6-7.8 69.4-20.8l321.2 178.4c-3 11-5.2 22.2-5.2 34 0 70.6 57.4 128 128 128s128-57.4 128-128-57.2-127.8-127.6-127.8z" p-id="3139" fill="#666666"></path></svg>