<?xml version="1.0" encoding="utf-8"?>
<!-- Generator: Adobe Illustrator 15.0.0, SVG Export Plug-In . SVG Version: 6.00 Build 0)  -->
<!DOCTYPE svg PUBLIC "-//W3C//DTD SVG 1.1//EN" "http://www.w3.org/Graphics/SVG/1.1/DTD/svg11.dtd">
<svg version="1.1" id="图层_1" xmlns="http://www.w3.org/2000/svg" xmlns:xlink="http://www.w3.org/1999/xlink" x="0px" y="0px"
	 width="50px" height="50px" viewBox="0 0 50 50" enable-background="new 0 0 50 50" xml:space="preserve">
<rect display="none" fill="#FF0000" width="50" height="50"/>
<g>
	<g>
		<path fill="#666666" d="M24.115,22.475c0,0.968-0.785,1.752-1.752,1.752h-4.73c-0.967,0-1.752-0.784-1.752-1.752v-3.729
			c0-0.967,0.785-1.752,1.752-1.752h4.73c0.967,0,1.752,0.785,1.752,1.752V22.475L24.115,22.475z M24.115,22.475"/>
		<path fill="#666666" d="M34.039,22.475c0,0.968-0.785,1.752-1.752,1.752h-4.73c-0.969,0-1.752-0.784-1.752-1.752v-3.729
			c0-0.967,0.783-1.752,1.752-1.752h4.73c0.967,0,1.752,0.785,1.752,1.752V22.475z M34.039,22.475"/>
		<path fill="#666666" d="M24.115,31.757c0,0.967-0.785,1.75-1.752,1.75h-4.73c-0.967,0-1.752-0.783-1.752-1.75v-3.73
			c0-0.968,0.785-1.751,1.752-1.751h4.73c0.967,0,1.752,0.783,1.752,1.751V31.757L24.115,31.757z M24.115,31.757"/>
	</g>
	<path fill="#666666" d="M34.039,31.757c0,0.967-0.785,1.75-1.752,1.75h-4.73c-0.969,0-1.752-0.783-1.752-1.75v-3.73
		c0-0.968,0.783-1.751,1.752-1.751h4.73c0.967,0,1.752,0.783,1.752,1.751V31.757z M34.039,31.757"/>
</g>
</svg>
