<?xml version="1.0" standalone="no"?><!DOCTYPE svg PUBLIC "-//W3C//DTD SVG 1.1//EN" "http://www.w3.org/Graphics/SVG/1.1/DTD/svg11.dtd"><svg t="1509959535151" class="icon" style="" viewBox="0 0 1024 1024" version="1.1" xmlns="http://www.w3.org/2000/svg" p-id="4150" xmlns:xlink="http://www.w3.org/1999/xlink" width="32" height="32"><defs><style type="text/css"></style></defs><path d="M814.006312 391.217123c-37.179784 0-67.545372 30.365588-67.545373 67.544349v-78.834486c0-37.178761-30.365588-67.545372-67.544348-67.545373-37.179784 0-67.545372 30.367635-67.545373 67.545373v-48.079019c0-37.179784-30.365588-67.545372-67.544349-67.545372-37.179784 0-67.545372 30.365588-67.545372 67.545372V132.132366c0-37.179784-30.365588-67.545372-67.544349-67.545372-37.179784 0-67.545372 30.365588-67.545372 67.545372v482.937081l-79.80765-79.808674c-27.251667-27.250644-71.827909-27.250644-99.079576 0-27.251667 27.251667-27.251667 71.826885 0 99.079576l220.932831 220.931808c51.387367 63.457264 130.2239 104.139825 218.401172 104.139826 150.273539 0 273.099958-117.766171 280.107559-265.702478h0.38988V458.567044c-0.585331-36.788881-30.951943-67.349921-68.12968-67.349921z" fill="#707070" p-id="4151"></path></svg>