<?xml version="1.0" encoding="utf-8"?>
<!-- Generator: Adobe Illustrator 15.0.0, SVG Export Plug-In . SVG Version: 6.00 Build 0)  -->
<!DOCTYPE svg PUBLIC "-//W3C//DTD SVG 1.1//EN" "http://www.w3.org/Graphics/SVG/1.1/DTD/svg11.dtd">
<svg version="1.1" id="图层_1" xmlns="http://www.w3.org/2000/svg" xmlns:xlink="http://www.w3.org/1999/xlink" x="0px" y="0px"
	 width="50px" height="50px" viewBox="0 0 50 50" enable-background="new 0 0 50 50" xml:space="preserve">
<g>
	<g>
		<path fill="#FFFFFF" d="M34.29,29.65c-0.133,0.133-0.308,0.198-0.482,0.198v-0.001c-0.174,0-0.35-0.064-0.482-0.197
			c-0.268-0.264-0.268-0.689,0-0.953c1.861-1.84,1.861-6.489,0-8.329c-0.268-0.263-0.268-0.69,0-0.953
			c0.267-0.263,0.699-0.263,0.965,0c1.159,1.146,1.798,3.498,1.798,5.118C36.088,26.153,35.449,28.506,34.29,29.65L34.29,29.65z"/>
		<path fill="#FFFFFF" d="M31.04,28.381c-0.134,0.131-0.309,0.197-0.482,0.197v-0.001c-0.174,0-0.35-0.065-0.482-0.197
			c-0.267-0.263-0.267-0.689,0-0.953c1.152-1.139,1.152-4.647,0-5.787c-0.267-0.263-0.267-0.69,0-0.953
			c0.266-0.262,0.698-0.263,0.965,0C32.724,22.352,32.724,26.716,31.04,28.381L31.04,28.381z"/>
	</g>
	<g>
		<path fill="#FFFFFF" d="M26.497,33.269c-0.311,0-0.595-0.104-0.828-0.274l-0.003,0.002l-5.505-4.546H15.38
			c-0.779,0-1.468-0.519-1.468-1.306v-4.746c0-0.786,0.878-1.289,1.656-1.291h4.593l5.441-4.986l0.004,0.005
			c0.244-0.201,0.552-0.327,0.891-0.327c0.78,0,1.412,0.637,1.412,1.424v14.622C27.909,32.631,27.277,33.269,26.497,33.269
			L26.497,33.269z"/>
		<path fill="#FFFFFF" d="M26.497,33.027"/>
	</g>
</g>
</svg>
