<?xml version="1.0" encoding="utf-8"?>
<!-- Generator: Adobe Illustrator 15.0.0, SVG Export Plug-In . SVG Version: 6.00 Build 0)  -->
<!DOCTYPE svg PUBLIC "-//W3C//DTD SVG 1.1//EN" "http://www.w3.org/Graphics/SVG/1.1/DTD/svg11.dtd">
<svg version="1.1" id="图层_1" xmlns="http://www.w3.org/2000/svg" xmlns:xlink="http://www.w3.org/1999/xlink" x="0px" y="0px"
	 width="50px" height="50px" viewBox="0 0 50 50" enable-background="new 0 0 50 50" xml:space="preserve">
<rect display="none" fill="#FF0000" width="50" height="50"/>
<g>
	<path fill="#FFFFFF" d="M25.055,17.394c-4.134,0-7.484,3.352-7.484,7.485s3.351,7.484,7.484,7.484c4.134,0,7.485-3.353,7.485-7.484
		C32.54,20.744,29.188,17.394,25.055,17.394L25.055,17.394z M25.055,29.51c-0.434,0-0.786-0.346-0.786-0.771
		s0.353-0.771,0.786-0.771c0.436,0,0.787,0.347,0.787,0.771S25.49,29.51,25.055,29.51L25.055,29.51z M27.975,23.992
		c-0.217,0.34-0.677,0.805-1.382,1.391c-0.364,0.305-0.592,0.549-0.679,0.733c-0.09,0.185-0.129,0.516-0.121,0.989h-1.572
		c-0.003-0.138-0.005-0.273-0.006-0.412c0-0.508,0.084-0.926,0.252-1.254c0.169-0.328,0.506-0.698,1.01-1.108
		c0.505-0.41,0.809-0.679,0.906-0.806c0.152-0.202,0.229-0.424,0.229-0.666c0-0.335-0.135-0.623-0.403-0.863
		c-0.271-0.239-0.633-0.359-1.09-0.359c-0.439,0-0.808,0.125-1.104,0.375c-0.296,0.25-0.55,0.8-0.61,1.141
		c-0.058,0.322-1.607,0.457-1.589-0.194s0.358-1.358,0.939-1.872c0.582-0.513,1.345-0.77,2.29-0.77c0.994,0,1.785,0.26,2.373,0.779
		s0.881,1.124,0.881,1.813C28.297,23.291,28.189,23.652,27.975,23.992L27.975,23.992z"/>
</g>
</svg>
