<?xml version="1.0" encoding="utf-8"?>
<!-- Generator: Adobe Illustrator 15.0.0, SVG Export Plug-In . SVG Version: 6.00 Build 0)  -->
<!DOCTYPE svg PUBLIC "-//W3C//DTD SVG 1.1//EN" "http://www.w3.org/Graphics/SVG/1.1/DTD/svg11.dtd">
<svg version="1.1" id="图层_1" xmlns="http://www.w3.org/2000/svg" xmlns:xlink="http://www.w3.org/1999/xlink" x="0px" y="0px"
	 width="50px" height="50px" viewBox="0 0 50 50" enable-background="new 0 0 50 50" xml:space="preserve">
<rect display="none" fill="#FF0000" width="50" height="50"/>
<g>
	<g>
		<path fill="#FFFFFF" d="M32.91,31.494l-3.314-3.313c-0.056-0.059-0.128-0.086-0.193-0.129c1.926-2.723,1.686-6.506-0.75-8.942
			c-2.725-2.726-7.138-2.726-9.861,0c-2.726,2.721-2.726,7.135,0,9.862c2.463,2.463,6.296,2.674,9.027,0.683
			c0.041,0.062,0.068,0.13,0.123,0.186l3.313,3.313c0.458,0.457,1.199,0.457,1.656,0C33.367,32.693,33.367,31.951,32.91,31.494
			L32.91,31.494z M27.256,27.574c-1.952,1.951-5.115,1.951-7.07,0c-1.951-1.951-1.951-5.118,0-7.069c1.952-1.952,5.117-1.952,7.07,0
			C29.208,22.458,29.208,25.623,27.256,27.574L27.256,27.574z"/>
	</g>
</g>
</svg>
