<?xml version="1.0" encoding="utf-8"?>
<!-- Generator: Adobe Illustrator 15.0.0, SVG Export Plug-In . SVG Version: 6.00 Build 0)  -->
<!DOCTYPE svg PUBLIC "-//W3C//DTD SVG 1.1//EN" "http://www.w3.org/Graphics/SVG/1.1/DTD/svg11.dtd">
<svg version="1.1" id="图层_1" xmlns="http://www.w3.org/2000/svg" xmlns:xlink="http://www.w3.org/1999/xlink" x="0px" y="0px"
	 width="50px" height="50px" viewBox="0 0 50 50" enable-background="new 0 0 50 50" xml:space="preserve">
<rect display="none" fill="#FF0000" width="50" height="50"/>
<g>
	<g>
		<path fill="#FFFFFF" d="M40.887,24.938c0-8.773-7.113-15.886-15.887-15.886c-8.774,0-15.887,7.112-15.887,15.886
			S16.227,40.823,25,40.823C33.773,40.823,40.887,33.711,40.887,24.938L40.887,24.938z M22.422,30.542
			c0,0.39-0.108,0.935-0.233,1.214c-0.358,0.779-1.841,1.447-2.758,1.447c-0.561,0-0.997-0.155-1.262-0.449
			c-0.202-0.249-0.343-0.607-0.343-0.936c0-0.7,0.53-1.338,1.386-1.68c0.343-0.142,0.654-0.203,0.949-0.203
			c0.482,0,0.919,0.078,1.229,0.219v-11.82l9.389-2.195v12.192c0,0.778-0.264,1.401-0.777,1.884
			c-0.561,0.498-1.577,0.794-2.245,0.794c-0.562,0-0.979-0.155-1.243-0.45c-0.203-0.248-0.344-0.606-0.344-0.936
			c0-0.605,0.403-1.182,1.074-1.541c0.357-0.186,0.918-0.357,1.214-0.357c0.483,0,0.949,0.078,1.323,0.234v-8.646l-7.358,1.913
			L22.422,30.542L22.422,30.542z"/>
	</g>
</g>
</svg>
