<?xml version="1.0" encoding="utf-8"?>
<!-- Generator: Adobe Illustrator 15.0.0, SVG Export Plug-In . SVG Version: 6.00 Build 0)  -->
<!DOCTYPE svg PUBLIC "-//W3C//DTD SVG 1.1//EN" "http://www.w3.org/Graphics/SVG/1.1/DTD/svg11.dtd">
<svg version="1.1" id="图层_1" xmlns="http://www.w3.org/2000/svg" xmlns:xlink="http://www.w3.org/1999/xlink" x="0px" y="0px"
	 width="50px" height="50px" viewBox="0 0 50 50" enable-background="new 0 0 50 50" xml:space="preserve">
<rect x="3" y="3" display="none" fill="#FF0000" width="50" height="50"/>
<g>
	<path fill="#FFFFFF" d="M22,28.325v-8.74l9-2.195v1.544l4.947-4.681c-2.797-2.452-6.316-3.951-10.328-3.951
		c-8.773,0-15.82,7.113-15.82,15.888c0,4.011,1.46,7.664,3.914,10.459L22,28.325z"/>
	<polygon fill="#FFFFFF" points="29.505,20.787 23,22.479 23,27.292 	"/>
	<path fill="#FFFFFF" d="M22.143,31.405v-1.564l-1.36,1.361c0.043-0.004,0.089-0.015,0.132-0.015
		C21.396,31.188,21.833,31.266,22.143,31.405z"/>
	<path fill="#FFFFFF" d="M36.74,14.978L31,20.451v9.132c0,0.778,0.002,1.399-0.512,1.883c-0.562,0.499-1.445,0.795-2.113,0.795
		c-0.561,0-0.913-0.155-1.177-0.45c-0.203-0.248-0.31-0.605-0.31-0.935c0-0.606,0.42-1.185,1.09-1.541
		c0.358-0.187,0.66-0.358,0.957-0.358c0.482,0,1.063,0.078,1.063,0.233v-7.76l-7,7.36v2.983c0,0.39-0.021,0.937-0.146,1.215
		c-0.358,0.778-1.797,1.447-2.714,1.447c-0.561,0-0.975-0.156-1.24-0.451c-0.146-0.178-0.226-0.414-0.278-0.653l-4.085,4.092
		c2.873,2.861,6.838,4.633,11.213,4.633c8.772,0,15.755-7.112,15.755-15.887C41.505,21.813,39.604,17.851,36.74,14.978z"/>
</g>
</svg>
