<?xml version="1.0" encoding="utf-8"?>
<!-- Generator: Adobe Illustrator 15.0.0, SVG Export Plug-In . SVG Version: 6.00 Build 0)  -->
<!DOCTYPE svg PUBLIC "-//W3C//DTD SVG 1.1//EN" "http://www.w3.org/Graphics/SVG/1.1/DTD/svg11.dtd">
<svg version="1.1" id="图层_1" xmlns="http://www.w3.org/2000/svg" xmlns:xlink="http://www.w3.org/1999/xlink" x="0px" y="0px"
	 width="50px" height="50px" viewBox="0 0 50 50" enable-background="new 0 0 50 50" xml:space="preserve">
<rect y="-0.1" display="none" fill="#FF0000" width="50" height="50"/>
<path fill="#FFFFFF" d="M31.681,29.736c-0.665,0-1.209,0.242-1.693,0.666l-9.251-5.744c0-0.121,0.061-0.242,0.061-0.363v-0.242
	l9.069-4.776c0.424,0.484,1.089,0.786,1.814,0.786c1.329,0,2.419-1.089,2.419-2.418c0-1.33-1.09-2.418-2.419-2.418
	c-1.33,0-2.418,1.088-2.418,2.418c0,0.182,0,0.363,0.06,0.544l-9.008,4.716c-0.424-0.604-1.15-1.028-1.995-1.028
	c-1.331,0-2.419,1.088-2.419,2.418c0,1.331,1.088,2.42,2.419,2.42c0.784,0,1.45-0.363,1.874-0.908l9.129,5.623
	c0,0.242-0.06,0.484-0.06,0.727c0,1.329,1.088,2.418,2.418,2.418c1.329,0,2.419-1.089,2.419-2.418
	C34.1,30.825,33.01,29.736,31.681,29.736z"/>
</svg>
