<?xml version="1.0" encoding="utf-8"?>
<!-- Generator: Adobe Illustrator 15.0.0, SVG Export Plug-In . SVG Version: 6.00 Build 0)  -->
<!DOCTYPE svg PUBLIC "-//W3C//DTD SVG 1.1//EN" "http://www.w3.org/Graphics/SVG/1.1/DTD/svg11.dtd">
<svg version="1.1" id="图层_1" xmlns="http://www.w3.org/2000/svg" xmlns:xlink="http://www.w3.org/1999/xlink" x="0px" y="0px"
	 width="50px" height="50px" viewBox="0 0 50 50" enable-background="new 0 0 50 50" xml:space="preserve">
<rect display="none" fill="#FF0000" width="50" height="50"/>
<path fill="#FFFFFF" d="M34.695,24.414l-6.651-6.653c-0.324-0.323-0.85-0.323-1.172,0c-0.324,0.324-0.324,0.849,0,1.172l5.267,5.267
	H15.859c-0.441,0-0.799,0.358-0.799,0.8c0,0.439,0.357,0.799,0.799,0.799h16.279l-5.267,5.266c-0.324,0.324-0.324,0.85,0,1.174
	c0.161,0.162,0.374,0.242,0.585,0.242c0.213,0,0.426-0.08,0.587-0.242l6.651-6.652C35.021,25.262,35.021,24.737,34.695,24.414
	L34.695,24.414L34.695,24.414z"/>
</svg>
