<?xml version="1.0" encoding="utf-8"?>
<!-- Generator: Adobe Illustrator 15.0.0, SVG Export Plug-In . SVG Version: 6.00 Build 0)  -->
<!DOCTYPE svg PUBLIC "-//W3C//DTD SVG 1.1//EN" "http://www.w3.org/Graphics/SVG/1.1/DTD/svg11.dtd">
<svg version="1.1" id="图层_1" xmlns="http://www.w3.org/2000/svg" xmlns:xlink="http://www.w3.org/1999/xlink" x="0px" y="0px"
	 width="50px" height="50px" viewBox="0 0 50 50" enable-background="new 0 0 50 50" xml:space="preserve">
<rect display="none" fill="#FF0000" width="50" height="50"/>
<g>
	<g>
		<path fill="#FFFFFF" d="M25.023,26.256c-0.322-0.332-0.625-0.646-0.939-0.973c-0.543,0.551-1.168,0.902-1.924,0.967
			c-0.922,0.078-1.738-0.18-2.402-0.861c-0.791-0.81-1.57-1.633-2.347-2.458c-1.127-1.198-1.139-3.207-0.021-4.422
			c0.546-0.593,1.101-1.178,1.667-1.75c1.146-1.155,2.98-1.239,4.154-0.12c0.912,0.869,1.779,1.8,2.596,2.768
			c0.984,1.169,0.896,3.01-0.123,4.184c-0.039,0.047-0.08,0.092-0.131,0.15l0.949,0.966c0.096-0.085,0.205-0.19,0.322-0.284
			c1.211-0.975,2.916-0.876,4.014,0.246c0.77,0.787,1.531,1.584,2.281,2.394c1.189,1.282,1.172,3.24-0.033,4.5
			c-0.6,0.627-1.184,1.271-1.818,1.856c-1.113,1.026-2.881,0.974-3.953-0.104c-0.823-0.832-1.635-1.683-2.432-2.547
			c-1.037-1.129-1.055-3.08-0.061-4.267C24.879,26.43,24.938,26.359,25.023,26.256L25.023,26.256z M24.031,22.252
			c0.502-0.512,0.518-1.173,0.074-1.645c-0.703-0.751-1.416-1.496-2.131-2.236c-0.463-0.48-1.072-0.477-1.537,0.004
			c-0.504,0.519-1.002,1.044-1.5,1.57c-0.432,0.46-0.434,1.065,0.002,1.529c0.727,0.773,1.459,1.541,2.195,2.303
			c0.424,0.438,1.027,0.422,1.521-0.079c-0.133-0.109-0.271-0.21-0.393-0.329c-0.482-0.473-0.52-1.227-0.09-1.67
			c0.4-0.41,1.113-0.348,1.547,0.143C23.834,21.97,23.93,22.115,24.031,22.252L24.031,22.252z M27.943,26.258
			c0.149,0.161,0.285,0.301,0.414,0.445c0.414,0.471,0.428,1.15,0.037,1.549c-0.422,0.432-1.045,0.425-1.502-0.025
			c-0.142-0.14-0.265-0.303-0.396-0.453c-0.513,0.531-0.517,1.091-0.019,1.634c0.689,0.752,1.394,1.491,2.101,2.228
			c0.416,0.434,1.024,0.469,1.453,0.057c0.543-0.521,1.073-1.061,1.579-1.621c0.441-0.488,0.406-1.112-0.049-1.592
			c-0.717-0.754-1.438-1.506-2.164-2.252C28.957,25.768,28.396,25.783,27.943,26.258L27.943,26.258z"/>
	</g>
</g>
</svg>
