<?xml version="1.0" standalone="no"?><!DOCTYPE svg PUBLIC "-//W3C//DTD SVG 1.1//EN" "http://www.w3.org/Graphics/SVG/1.1/DTD/svg11.dtd"><svg t="1526436381590" class="icon" style="" viewBox="0 0 1024 1024" version="1.1" xmlns="http://www.w3.org/2000/svg" p-id="6089" xmlns:xlink="http://www.w3.org/1999/xlink" width="16" height="16"><defs><style type="text/css"></style></defs><path d="M736 384h-448c-12.8 0-32 12.8-32 32s19.2 32 32 32h441.6c19.2 0 38.4-12.8 38.4-32s-19.2-32-32-32z m0 192h-448c-12.8 0-32 12.8-32 32s19.2 32 32 32h441.6c19.2 0 32-12.8 32-32s-12.8-32-25.6-32z m0-384h-448c-12.8 0-32 19.2-32 32 0 19.2 19.2 32 32 32h441.6c19.2 0 38.4-12.8 38.4-32 0-12.8-19.2-32-32-32zM832 6.4H192c-70.4 0-128 57.6-128 128V1024h64l128-96L384 1024l128-96 128 96 128-96 128 96h57.6V134.4c0-70.4-57.6-128-121.6-128z m57.6 947.2l-128-96L640 960l-128-102.4L384 960l-128-102.4-128 96V134.4c0-32 25.6-64 64-64h640c32 0 64 25.6 64 64v819.2z" p-id="6090" fill="#ffffff"></path></svg>