<?xml version="1.0" standalone="no"?><!DOCTYPE svg PUBLIC "-//W3C//DTD SVG 1.1//EN" "http://www.w3.org/Graphics/SVG/1.1/DTD/svg11.dtd"><svg t="1526435757632" class="icon" style="" viewBox="0 0 1030 1024" version="1.1" xmlns="http://www.w3.org/2000/svg" p-id="1931" xmlns:xlink="http://www.w3.org/1999/xlink" width="16.09375" height="16"><defs><style type="text/css"></style></defs><path d="M985.6 185.6H38.4c-19.2 0-38.4-19.2-38.4-38.4s19.2-38.4 38.4-38.4h953.6c12.8 0 32 19.2 32 38.4s-19.2 38.4-38.4 38.4zM985.6 550.4H38.4C19.2 550.4 0 531.2 0 512s19.2-38.4 38.4-38.4h953.6c12.8 0 32 19.2 32 38.4s-19.2 38.4-38.4 38.4zM985.6 915.2H38.4c-19.2 0-38.4-19.2-38.4-38.4s19.2-38.4 38.4-38.4h953.6c19.2 0 38.4 19.2 38.4 38.4s-25.6 38.4-44.8 38.4z" fill="#ffffff" p-id="1932"></path></svg>