<?xml version="1.0" encoding="utf-8"?>
<!-- Generator: Adobe Illustrator 15.0.0, SVG Export Plug-In . SVG Version: 6.00 Build 0)  -->
<!DOCTYPE svg PUBLIC "-//W3C//DTD SVG 1.1//EN" "http://www.w3.org/Graphics/SVG/1.1/DTD/svg11.dtd">
<svg version="1.1" id="图层_1" xmlns="http://www.w3.org/2000/svg" xmlns:xlink="http://www.w3.org/1999/xlink" x="0px" y="0px"
	 width="128px" height="128px" viewBox="0 0 128 128" enable-background="new 0 0 128 128" xml:space="preserve">
<path fill="#FFFFFF" d="M99.979,11.958h-72c-8.8,0-16,7.2-16,16v72c0,8.8,7.2,16,16,16h72c8.801,0,16-7.2,16-16v-72
	C115.979,19.158,108.779,11.958,99.979,11.958z M51.786,92.834H31.31c-1.147,0-2.048-1.221-2.048-2.773
	c0-1.554,0.901-2.773,2.048-2.773h20.476c1.147,0,2.048,1.221,2.048,2.773C53.834,91.614,52.933,92.834,51.786,92.834z
	 M51.786,67.191H35.405c-1.147,0-2.048-1.221-2.048-2.774c0-1.553,0.901-2.774,2.048-2.774h16.381c1.147,0,2.048,1.221,2.048,2.774
	C53.833,65.971,52.933,67.191,51.786,67.191z M51.786,41.548H27.214c-1.147,0-2.047-1.221-2.047-2.774
	c0-1.554,0.901-2.774,2.048-2.774h24.571c1.147,0,2.048,1.22,2.048,2.774C53.834,40.327,52.933,41.548,51.786,41.548z
	 M65.438,111.875h-2.917V16.042h2.917V111.875z M96.689,92.834H76.215c-1.146,0-2.049-1.221-2.049-2.773
	c0-1.554,0.9-2.773,2.049-2.773h20.475c1.148-0.001,2.049,1.22,2.049,2.773S97.838,92.834,96.689,92.834z M74.166,64.417
	c0-1.554,0.9-2.774,2.049-2.774h16.381c1.146,0,2.047,1.22,2.047,2.774c0,1.554-0.899,2.774-2.047,2.774H76.215
	C75.066,67.191,74.166,65.971,74.166,64.417z M100.785,41.548h-24.57c-1.146,0-2.049-1.221-2.049-2.774
	c0-1.554,0.9-2.774,2.049-2.774h24.57c1.146,0,2.049,1.22,2.049,2.774C102.834,40.327,101.934,41.548,100.785,41.548z"/>
</svg>
