<?xml version="1.0" encoding="utf-8"?>
<!-- Generator: Adobe Illustrator 15.0.0, SVG Export Plug-In . SVG Version: 6.00 Build 0)  -->
<!DOCTYPE svg PUBLIC "-//W3C//DTD SVG 1.1//EN" "http://www.w3.org/Graphics/SVG/1.1/DTD/svg11.dtd">
<svg version="1.1" id="图层_1" xmlns="http://www.w3.org/2000/svg" xmlns:xlink="http://www.w3.org/1999/xlink" x="0px" y="0px"
	 width="50px" height="50px" viewBox="0 0 50 50" enable-background="new 0 0 50 50" xml:space="preserve">
<rect display="none" fill="#FF0000" width="50" height="50"/>
<g>
	<g>
		<path fill="#666666" d="M16.685,26.563c-0.041-0.001-0.079,0.023-0.097,0.063c-0.016,0.039-0.006,0.084,0.023,0.113l2.104,2.094
			l-2.9,2.89c-0.057,0.056-0.092,0.134-0.092,0.219s0.035,0.163,0.092,0.219l1.971,1.962c0.055,0.057,0.133,0.09,0.217,0.09
			c0.086,0,0.163-0.033,0.219-0.09l2.902-2.891l2.166,2.156c0.028,0.028,0.072,0.038,0.111,0.021
			c0.04-0.016,0.064-0.055,0.064-0.094l0.002-6.406c0-0.078-0.029-0.157-0.09-0.217c-0.06-0.061-0.139-0.092-0.217-0.092
			L16.685,26.563z M23.16,26.601"/>
		<path fill="#666666" d="M16.744,23.849c-0.04,0-0.079-0.024-0.096-0.063c-0.016-0.039-0.006-0.084,0.022-0.112l2.106-2.097
			l-2.9-2.889c-0.057-0.057-0.092-0.135-0.092-0.22s0.035-0.163,0.092-0.219l1.971-1.962c0.055-0.057,0.133-0.09,0.218-0.09
			s0.162,0.033,0.218,0.09l2.902,2.891l2.166-2.156c0.028-0.028,0.072-0.038,0.111-0.021c0.04,0.016,0.064,0.053,0.064,0.094
			l0.002,6.459c0,0.08-0.03,0.158-0.09,0.22c-0.061,0.06-0.141,0.091-0.22,0.091L16.744,23.849z M23.22,23.863"/>
	</g>
	<path fill="#666666" d="M32.777,26.563c0.041-0.001,0.079,0.023,0.096,0.063c0.017,0.039,0.007,0.084-0.022,0.113l-2.104,2.094
		l2.901,2.89c0.057,0.056,0.091,0.134,0.091,0.219s-0.034,0.163-0.091,0.219l-1.971,1.962c-0.056,0.057-0.133,0.09-0.218,0.09
		c-0.084,0-0.162-0.033-0.218-0.09l-2.903-2.891l-2.164,2.156c-0.029,0.028-0.072,0.038-0.113,0.021
		c-0.039-0.016-0.063-0.055-0.063-0.094l-0.004-6.406c0-0.078,0.03-0.157,0.092-0.217c0.059-0.061,0.137-0.092,0.216-0.092
		L32.777,26.563z M26.302,26.601"/>
	<path fill="#666666" d="M32.779,23.849c0.041,0,0.08-0.024,0.096-0.063s0.006-0.084-0.022-0.112l-2.106-2.097l2.901-2.889
		c0.057-0.057,0.091-0.135,0.091-0.22s-0.034-0.163-0.091-0.219l-1.971-1.962c-0.056-0.057-0.133-0.09-0.218-0.09
		c-0.084,0-0.162,0.033-0.218,0.09l-2.903,2.891l-2.164-2.156c-0.029-0.028-0.072-0.038-0.113-0.021
		c-0.039,0.016-0.063,0.053-0.063,0.094l-0.004,6.459c0,0.08,0.031,0.158,0.092,0.22c0.061,0.06,0.14,0.091,0.219,0.091
		L32.779,23.849z M26.305,23.863"/>
</g>
</svg>
