<?xml version="1.0" encoding="utf-8"?>
<!-- Generator: Adobe Illustrator 15.0.0, SVG Export Plug-In . SVG Version: 6.00 Build 0)  -->
<!DOCTYPE svg PUBLIC "-//W3C//DTD SVG 1.1//EN" "http://www.w3.org/Graphics/SVG/1.1/DTD/svg11.dtd">
<svg version="1.1" id="图层_1" xmlns="http://www.w3.org/2000/svg" xmlns:xlink="http://www.w3.org/1999/xlink" x="0px" y="0px"
	 width="50px" height="50px" viewBox="0 0 50 50" enable-background="new 0 0 50 50" xml:space="preserve">
<rect display="none" fill="#FF0000" width="50" height="50"/>
<g>
	<path fill="#666666" d="M25.055,17.394c-4.134,0-7.484,3.352-7.484,7.485c0,4.133,3.351,7.484,7.484,7.484
		c4.135,0,7.485-3.352,7.485-7.484C32.54,20.744,29.188,17.394,25.055,17.394L25.055,17.394z M25.055,29.51
		c-0.434,0-0.786-0.346-0.786-0.771s0.353-0.771,0.786-0.771c0.436,0,0.787,0.346,0.787,0.771S25.49,29.51,25.055,29.51
		L25.055,29.51z M27.975,23.992c-0.217,0.34-0.677,0.805-1.382,1.391c-0.365,0.305-0.592,0.548-0.679,0.733
		c-0.09,0.185-0.129,0.516-0.121,0.99h-1.572c-0.003-0.138-0.005-0.274-0.006-0.412c0-0.509,0.084-0.927,0.252-1.255
		c0.169-0.328,0.506-0.698,1.01-1.108c0.505-0.41,0.809-0.679,0.906-0.806c0.152-0.202,0.229-0.424,0.229-0.666
		c0-0.335-0.136-0.623-0.404-0.863c-0.27-0.239-0.633-0.359-1.09-0.359c-0.439,0-0.808,0.125-1.104,0.375
		c-0.296,0.25-0.55,0.8-0.61,1.141c-0.058,0.322-1.607,0.457-1.589-0.194s0.358-1.358,0.939-1.872c0.582-0.513,1.345-0.77,2.29-0.77
		c0.994,0,1.785,0.26,2.373,0.779s0.881,1.124,0.881,1.813C28.297,23.291,28.189,23.652,27.975,23.992L27.975,23.992z
		 M27.975,23.992"/>
</g>
</svg>
