<?xml version="1.0" encoding="utf-8"?>
<!-- Generator: Adobe Illustrator 15.0.0, SVG Export Plug-In . SVG Version: 6.00 Build 0)  -->
<!DOCTYPE svg PUBLIC "-//W3C//DTD SVG 1.1//EN" "http://www.w3.org/Graphics/SVG/1.1/DTD/svg11.dtd">
<svg version="1.1" id="图层_1" xmlns="http://www.w3.org/2000/svg" xmlns:xlink="http://www.w3.org/1999/xlink" x="0px" y="0px"
	 width="50px" height="50px" viewBox="0 0 50 50" enable-background="new 0 0 50 50" xml:space="preserve">
<rect display="none" fill="#FF0000" width="50" height="50"/>
<g>
	<g>
		<path fill="#666666" d="M24.999,9.222c-8.627,0-15.621,6.995-15.621,15.621c0,8.629,6.994,15.624,15.621,15.624
			c8.629,0,15.624-6.995,15.624-15.624C40.623,16.217,33.628,9.222,24.999,9.222L24.999,9.222z M21.507,31.432
			c0,0.663-0.536,1.199-1.199,1.199c-0.66,0-1.196-0.536-1.196-1.199V18.257c0-0.662,0.536-1.2,1.196-1.2
			c0.663,0,1.199,0.538,1.199,1.2V31.432z M30.89,31.432c0,0.663-0.536,1.199-1.196,1.199c-0.663,0-1.199-0.536-1.199-1.199V18.257
			c0-0.662,0.536-1.2,1.199-1.2c0.66,0,1.196,0.538,1.196,1.2V31.432z M30.89,31.432"/>
	</g>
</g>
</svg>
