<?xml version="1.0" encoding="utf-8"?>
<!-- Generator: Adobe Illustrator 15.0.0, SVG Export Plug-In . SVG Version: 6.00 Build 0)  -->
<!DOCTYPE svg PUBLIC "-//W3C//DTD SVG 1.1//EN" "http://www.w3.org/Graphics/SVG/1.1/DTD/svg11.dtd">
<svg version="1.1" id="图层_1" xmlns="http://www.w3.org/2000/svg" xmlns:xlink="http://www.w3.org/1999/xlink" x="0px" y="0px"
	 width="128px" height="128px" viewBox="0 0 128 128" enable-background="new 0 0 128 128" xml:space="preserve">
<path fill="#FFFFFF" d="M100,12H28c-8.8,0-16,7.2-16,16v72c0,8.8,7.2,16,16,16h72c8.8,0,16-7.2,16-16V28C116,19.2,108.8,12,100,12z
	 M84,88c0,2.24-1.76,4-4,4H40c-2.24,0-4-1.76-4-4l0,0c0-2.24,1.76-4,4-4h40C82.24,84,84,85.76,84,88L84,88z M36,64
	c0-2.24,1.76-4,4-4h32c2.24,0,4,1.76,4,4s-1.76,4-4,4H40C37.76,68,36,66.24,36,64z M88,44H40c-2.24,0-4-1.76-4-4s1.76-4,4-4h48
	c2.24,0,4,1.76,4,4S90.24,44,88,44z"/>
</svg>
