<?xml version="1.0" standalone="no"?><!DOCTYPE svg PUBLIC "-//W3C//DTD SVG 1.1//EN" "http://www.w3.org/Graphics/SVG/1.1/DTD/svg11.dtd"><svg t="1526461035155" class="icon" style="" viewBox="0 0 1024 1024" version="1.1" xmlns="http://www.w3.org/2000/svg" p-id="1928" xmlns:xlink="http://www.w3.org/1999/xlink" width="16" height="16"><defs><style type="text/css"></style></defs><path d="M751.54012 892.822378c-7.840572 0-15.378246-3.873214-19.883863-10.595312L512.57254 554.404786 293.486776 882.227066c-5.833869 8.726755-16.755616 12.648065-26.813692 9.56689-10.081613-3.032056-16.966417-12.320607-16.966417-22.822798L249.706667 153.900136c0-13.1853 10.688433-23.850198 23.89727-23.850198L751.54012 130.049938c13.208836 0 23.896246 10.664897 23.896246 23.850198l0 715.071022c0 10.502192-6.883781 19.790742-16.96437 22.822798C756.184907 892.49492 753.850745 892.822378 751.54012 892.822378zM512.57254 487.615637c7.980765 0 15.448854 3.966335 19.881816 10.617825l195.188494 292.047496L727.64285 177.725774 297.500183 177.725774l0 612.55416 195.188494-292.047496C497.123686 491.581971 504.590751 487.615637 512.57254 487.615637z" p-id="1929" fill="#ffffff"></path></svg>