<?xml version="1.0" encoding="utf-8"?>
<!-- Generator: Adobe Illustrator 15.0.0, SVG Export Plug-In . SVG Version: 6.00 Build 0)  -->
<!DOCTYPE svg PUBLIC "-//W3C//DTD SVG 1.1//EN" "http://www.w3.org/Graphics/SVG/1.1/DTD/svg11.dtd">
<svg version="1.1" id="图层_1" xmlns="http://www.w3.org/2000/svg" xmlns:xlink="http://www.w3.org/1999/xlink" x="0px" y="0px"
	 width="100px" height="100px" viewBox="0 0 100 100" enable-background="new 0 0 100 100" xml:space="preserve">
<g>
	<path fill="#FF6600" d="M91,87.513C91,89.438,89.438,91,87.513,91H12.487C10.562,91,9,89.438,9,87.513V12.487
		C9,10.562,10.562,9,12.487,9h75.025C89.438,9,91,10.562,91,12.487V87.513z"/>
</g>
<g>
	<path fill="#FFFFFF" d="M23.115,29.955h0.917c1.067,0.613,2.214,2.447,3.439,5.502c0.763,1.071,2.214,3.748,4.356,8.025
		c0.763,1.225,1.681,1.988,2.751,2.292c3.668-5.194,6.19-8.788,7.566-10.776l1.605-2.292c0.15-1.834,0.763-2.751,1.834-2.751h0.458
		c1.526,0.308,2.292,0.767,2.292,1.375c0.15,0,0.229,0.154,0.229,0.458c0,0.767-1.146,2.522-3.439,5.273l-2.98,3.439
		c-1.684,2.447-4.281,6.04-7.795,10.776c-5.961,9.479-8.725,15.574-8.941,16.278c-0.217,0.704-1.47,2.117-1.834,2.293
		c-0.365,0.175-1.146,0.229-1.605,0.229c-1.071,0-1.605-0.15-1.605-0.458c0-0.15,0.076-0.305,0.229-0.459
		c0,0-0.189-0.496-0.229-0.688c-0.04-0.192,0.076-0.459,0.229-0.459c0,0-0.168-0.168-0.229-0.229c-0.061-0.062,0-0.229,0-0.229
		c0.609-0.763,1.297-1.526,2.063-2.293c4.432-7.945,7.946-13.678,10.547-17.195l-0.917-0.917c-0.917,0-1.834-0.763-2.751-2.293
		c-0.917-2.443-2.217-4.815-3.897-7.107c0-0.15-0.538-0.992-1.605-2.522l-1.376-1.834c-0.612-1.067-0.917-1.834-0.917-2.292
		C22.119,30.338,22.657,29.955,23.115,29.955z"/>
	<path fill="#FFFFFF" d="M21.969,71.206c-0.676,0-2.733,0-2.733-1.587c0-0.163,0.025-0.368,0.113-0.592
		c-0.038-0.118-0.07-0.232-0.089-0.324c-0.043-0.207-0.042-0.424,0-0.634c-0.083-0.277-0.07-0.589,0.044-0.9l0.063-0.174
		l0.115-0.144c0.599-0.75,1.283-1.515,2.036-2.274c4.075-7.301,7.418-12.796,9.953-16.358c-1.125-0.233-2.154-1.149-3.133-2.781
		l-0.052-0.088l-0.036-0.096c-0.877-2.337-2.14-4.638-3.751-6.837l-0.218-0.298v-0.14c-0.124-0.217-0.464-0.762-1.391-2.09
		l-1.44-1.934c-0.738-1.286-1.066-2.167-1.066-2.854v-0.396l0.246-0.309c0.844-1.057,1.657-1.571,2.487-1.571h1.218l0.261,0.15
		c1.309,0.751,2.542,2.64,3.876,5.94c0.81,1.176,2.232,3.801,4.342,8.012c0.419,0.663,0.872,1.142,1.372,1.45
		c3.329-4.716,5.693-8.084,7.033-10.021l1.439-2.056c0.349-3.014,1.972-3.475,2.929-3.475h0.571l0.11,0.022
		c0.691,0.14,2.614,0.528,3.091,1.847c0.204,0.258,0.336,0.62,0.336,1.093c0,0.808-0.448,2.093-3.701,5.996l-2.954,3.408
		c-1.71,2.483-4.319,6.089-7.757,10.722c-6.038,9.604-8.638,15.476-8.795,15.973c-0.297,0.966-1.742,2.65-2.424,2.979
		C23.422,71.173,22.385,71.206,21.969,71.206z M21.785,67.609l1.239,1.239c0.01-0.003,0.02-0.006,0.029-0.008
		c0.351-0.283,1.168-1.285,1.276-1.618c0.283-0.919,3.146-7.136,9.065-16.546l0.049-0.072c3.458-4.66,6.073-8.274,7.772-10.743
		l0.077-0.099l2.981-3.439c1.84-2.208,2.611-3.389,2.934-3.996v-0.814c-0.137-0.088-0.484-0.26-1.28-0.429h-0.343
		c-0.514,0-0.667,1.199-0.709,1.714l-0.025,0.305l-1.78,2.543c-1.41,2.038-3.958,5.667-7.569,10.78l-0.461,0.653l-0.769-0.219
		c-1.345-0.382-2.489-1.318-3.401-2.782l-0.051-0.091c-2.112-4.216-3.547-6.866-4.266-7.875l-0.078-0.11l-0.05-0.125
		c-1.278-3.187-2.208-4.362-2.739-4.794h-0.531c-0.043,0.019-0.188,0.094-0.431,0.344c0.089,0.255,0.272,0.68,0.65,1.345
		l1.356,1.809c1.118,1.602,1.544,2.282,1.707,2.662c1.655,2.286,2.963,4.679,3.889,7.117c0.638,1.042,1.282,1.66,1.732,1.66h0.467
		l1.935,1.935l-0.578,0.782c-2.555,3.455-6.077,9.2-10.469,17.074l-0.076,0.137l-0.111,0.111
		C22.708,66.578,22.226,67.097,21.785,67.609z"/>
</g>
<path fill="#FFFFFF" d="M77.461,30.539c0.03-0.005,0.555-0.059,0.681,0c0.125,0.059,1.265,2.099,1.146,2.522
	c-0.119,0.423-1.283,1.541-1.376,1.605s-0.298,0.149-0.459,0.229c-0.161,0.08-0.307,0.214-0.688,0.229s-0.229,0-0.229,0
	c-0.308,0-0.415-0.097-0.688-0.229c-0.273-0.132-1.913-0.992-4.814-1.146l-2.522,0.229c0.15,0.308,0.229,0.842,0.229,1.605
	c0,0-0.002,0.441,0,0.688c0.001,0.247,0.229,1.834,0.229,1.834v0.229c0,0.154-0.212,1.673-0.229,2.063s0,4.127,0,4.127
	c-0.154,0.612-0.229,1.071-0.229,1.375v1.146c-0.154,4.126-0.229,7.186-0.229,9.171v0.458c-0.153,2.447-0.229,5.044-0.229,7.795
	c0,0-0.065,1.074,0,1.38c0.066,0.305,0.224,0.653,0.229,0.906s-0.245,0.749-0.458,1.153s-1.233,1.592-1.376,1.604
	c-0.143,0.014-0.229,0-0.229,0c-0.612,0-1.547-1.614-1.604-1.834s0-0.688,0-0.688c0-0.609,0.178-1.265,0.232-1.612
	c0.056-0.347-0.003-0.681-0.003-0.681c0-0.304,0.224-0.785,0.229-0.917c0.006-0.132,0.65-7,0.688-7.337
	c0.037-0.336,0.202-1.085,0.229-1.375c0.027-0.291,0-1.835,0-2.293v-1.146c0-0.305-0.304-0.824-0.229-1.375
	c0.074-0.552,0.446-2.644,0.458-2.981c0.012-0.336-0.03-1.758,0-2.063c0.03-0.305,0.229-0.917,0.229-1.375s-0.176-1.076-0.229-1.375
	c-0.054-0.3,0.007-4.333,0-4.127s0.075-2.751,0.229-2.751v-0.917c-4.586,0.154-10.122,0.897-10.317,0.92
	c-0.195,0.023-1.834,0.226-1.834,0.226c-0.154,0-0.688,0.079-1.605,0.229h-0.229c-0.154,0-0.229-0.075-0.229-0.229v-0.229
	c0.15-1.375,0.688-2.063,1.604-2.063c1.067-0.458,3.057-0.917,5.961-1.375c0,0,9.859-0.917,11.235-0.917
	C71.034,31.227,77.43,30.543,77.461,30.539z"/>
<path fill="#FFFFFF" d="M66.325,70.649c-0.074,0-0.137-0.003-0.185-0.008c-1.552-0.085-2.611-2.647-2.618-2.674
	c-0.09-0.343-0.065-0.778-0.036-1.045c0.008-0.538,0.113-1.056,0.191-1.438c0.022-0.108,0.042-0.204,0.055-0.281
	c0.02-0.123,0.004-0.275-0.003-0.318l-0.017-0.098l0.002-0.088c0-0.372,0.122-0.736,0.211-1.002c0.01-0.031,0.021-0.061,0.028-0.086
	c0.083-0.982,0.679-7.242,0.685-7.292c0.022-0.204,0.074-0.479,0.128-0.769c0.038-0.206,0.09-0.487,0.1-0.585
	c0.014-0.18,0.004-1.13-0.001-1.586c-0.002-0.253-0.004-0.472-0.004-0.603v-1.091c-0.011-0.041-0.031-0.109-0.048-0.162
	c-0.1-0.334-0.251-0.837-0.172-1.422c0.031-0.224,0.101-0.647,0.182-1.137c0.096-0.578,0.255-1.546,0.269-1.741
	c0.003-0.097-0.002-0.432-0.006-0.727c-0.009-0.718-0.013-1.171,0.01-1.4c0.019-0.181,0.063-0.377,0.108-0.584
	c0.049-0.218,0.115-0.517,0.115-0.678c0-0.212-0.083-0.584-0.139-0.832c-0.03-0.134-0.056-0.252-0.073-0.345
	c-0.036-0.203-0.058-0.587-0.021-3.93c0.002-0.165,0.003-0.288,0.004-0.353c-0.006-0.206,0.008-0.515,0.035-1.027l0.008-0.14
	c0.003-0.066,0.007-0.135,0.011-0.208c0.028-0.52,0.057-0.886,0.088-1.154c-3.513,0.187-7.281,0.641-8.856,0.844l-0.112,0.014
	c-0.193,0.023-1.828,0.225-1.829,0.225l-0.138,0.008c-0.053,0.004-0.34,0.037-1.423,0.214l-0.09,0.015h-0.321
	c-0.774,0-1.358-0.584-1.358-1.358l0.007-0.352c0.271-2.484,1.67-2.981,2.475-3.058c1.19-0.471,3.17-0.921,6.037-1.374l0.071-0.009
	c1-0.093,9.694-0.898,11.274-0.921c1.768-0.189,6.199-0.662,6.357-0.68l0,0c0.127-0.015,0.372-0.035,0.577-0.035
	c0.2,0,0.462,0.015,0.714,0.132c0.241,0.113,0.49,0.229,1.198,1.642c0.629,1.256,0.68,1.776,0.56,2.208
	c-0.254,0.9-1.804,2.217-1.818,2.227c-0.144,0.1-0.307,0.175-0.464,0.249c-0.047,0.022-0.095,0.044-0.139,0.066l-0.036,0.02
	c-0.184,0.106-0.526,0.302-1.108,0.325c-0.151,0.006-0.232,0.007-0.272,0.007c-0.069,0-0.136-0.005-0.199-0.015
	c-0.405-0.035-0.666-0.17-0.862-0.273c-0.036-0.019-0.074-0.039-0.118-0.061l-0.047-0.022c-1.132-0.557-2.642-0.914-4.257-1.008
	l-1.2,0.109c0.011,0.184,0.017,0.382,0.017,0.593c0,0.004-0.002,0.439,0,0.682c0.008,0.15,0.119,0.994,0.218,1.68l0.011,0.08v0.31
	c0,0.125-0.017,0.276-0.097,0.925c-0.05,0.404-0.126,1.015-0.133,1.189c-0.013,0.264-0.006,2.637,0.001,4.071v0.142l-0.034,0.138
	c-0.177,0.702-0.195,1.003-0.195,1.101l-0.001,1.188c-0.151,4.066-0.229,7.138-0.229,9.129l-0.002,0.529
	c-0.151,2.396-0.228,4.994-0.228,7.724L69.18,64.54c-0.026,0.438-0.035,0.938-0.019,1.091c0.016,0.067,0.045,0.16,0.073,0.25
	c0.08,0.251,0.169,0.536,0.177,0.851c0.011,0.474-0.199,0.965-0.589,1.705c-0.011,0.021-1.284,2.114-2.273,2.203
	C66.463,70.647,66.388,70.649,66.325,70.649z"/>
<polygon fill="#FFFFFF" points="66.324,68.394 66.325,69.521 66.325,68.394 "/>
<path fill="#FFFFFF" d="M65.717,67.386c0.109,0.211,0.32,0.531,0.511,0.77c0.251-0.291,0.523-0.637,0.599-0.773
	c0.183-0.347,0.271-0.538,0.311-0.643c-0.017-0.057-0.038-0.125-0.055-0.178c-0.045-0.142-0.096-0.302-0.133-0.474
	c-0.079-0.37-0.058-1.095-0.024-1.651c0-2.751,0.077-5.373,0.229-7.796v-0.423c0-2.016,0.077-5.108,0.229-9.192V45.9
	c0-0.378,0.075-0.873,0.229-1.51c-0.004-0.859-0.015-3.669,0.002-4.044c0.011-0.243,0.068-0.718,0.148-1.363
	c0.031-0.259,0.071-0.577,0.08-0.68v-0.118c-0.151-1.057-0.229-1.7-0.229-1.911c-0.001-0.248,0-0.695,0-0.695
	c0-0.32-0.016-0.555-0.035-0.723v1.855h-0.153c-0.038,0.574-0.068,1.3-0.077,1.654h-0.003c0,0.002,0,0.005,0,0.007h0.003
	l-0.002,0.055c0.002,0.098,0.001,0.206-0.001,0.327c-0.022,2.067-0.024,3.257-0.007,3.542c0.012,0.062,0.028,0.134,0.047,0.214
	c0.081,0.364,0.193,0.864,0.193,1.325c0,0.41-0.095,0.832-0.17,1.17c-0.025,0.113-0.06,0.267-0.065,0.318
	c-0.012,0.143-0.003,0.77,0.002,1.145c0.006,0.423,0.009,0.69,0.003,0.845c-0.009,0.255-0.102,0.839-0.296,2.02
	c-0.075,0.454-0.146,0.882-0.172,1.074c-0.014,0.099,0.048,0.303,0.097,0.467c0.067,0.223,0.143,0.475,0.143,0.757v1.146
	c0,0.126,0.003,0.337,0.005,0.58c0.011,1.072,0.012,1.589-0.01,1.816c-0.019,0.2-0.068,0.473-0.128,0.789
	c-0.041,0.227-0.089,0.483-0.103,0.607c-0.036,0.315-0.656,6.924-0.684,7.28c-0.012,0.2-0.068,0.369-0.133,0.563
	c-0.024,0.072-0.066,0.197-0.086,0.276c0.021,0.198,0.036,0.521-0.019,0.866c-0.017,0.104-0.043,0.233-0.072,0.379
	c-0.065,0.321-0.146,0.721-0.146,1.057l-0.009,0.138C65.725,67.21,65.719,67.313,65.717,67.386z"/>
<path fill="#FFFFFF" d="M76.527,33.995l0.12,2.252c0.5-0.049,1.02-0.512,0.986-1.174c-0.031-0.642-0.561-1.046-1.051-1.07
	c0.009,0.004,0.018,0.009,0.026,0.012c-0.011-0.004-0.025-0.009-0.04-0.013c-0.011,0-0.021,0-0.032,0c0.007,0,0.017,0,0.028,0
	C76.551,33.998,76.537,33.996,76.527,33.995z"/>
<path fill="#FFFFFF" d="M53.838,34.648c-0.075,0-0.144,0.034-0.203,0.103c0.294-0.042,0.459-0.06,0.573-0.065
	c0.277-0.034,1.613-0.199,1.789-0.22l0.091-0.012c1.797-0.231,6.399-0.784,10.322-0.916l0.637-0.021l-0.237-0.503l1.6-0.16
	l2.604-0.237l0.081,0.004c1.375,0.073,3.396,0.348,5.212,1.241l0.034,0.017c0.067,0.033,0.127,0.064,0.182,0.092
	c0.021,0.011,0.039,0.021,0.058,0.031c0.032-0.001,0.078-0.003,0.143-0.005c0.026-0.001,0.038-0.003,0.038-0.003
	c0-0.003,0.018-0.014,0.035-0.024c0.054-0.031,0.105-0.06,0.158-0.086c0.06-0.029,0.124-0.059,0.188-0.089
	c0.04-0.019,0.08-0.037,0.116-0.054c0.202-0.187,0.619-0.616,0.847-0.897c-0.122-0.321-0.371-0.818-0.571-1.176
	c-0.293,0.032-1.459,0.158-6.379,0.683l-0.119,0.006c-1.081,0-8.339,0.653-11.094,0.909c-3.465,0.548-4.988,1.005-5.656,1.292
	l-0.214,0.092H53.838z"/>
</svg>
