<?xml version="1.0" encoding="utf-8"?>
<!-- Generator: Adobe Illustrator 15.0.0, SVG Export Plug-In . SVG Version: 6.00 Build 0)  -->
<!DOCTYPE svg PUBLIC "-//W3C//DTD SVG 1.1//EN" "http://www.w3.org/Graphics/SVG/1.1/DTD/svg11.dtd">
<svg version="1.1" id="图层_1" xmlns="http://www.w3.org/2000/svg" xmlns:xlink="http://www.w3.org/1999/xlink" x="0px" y="0px"
	 width="257px" height="100px" viewBox="0 0 257 100" enable-background="new 0 0 257 100" xml:space="preserve">
<path fill-rule="evenodd" clip-rule="evenodd" fill="#6A6969" d="M232.917,0.917c10.726,0,10.172,11.852,10.172,17.348l0.582,7.365
	l1.849,24.722v19.652c-0.922,0.48-1.472,1.225-2.431,0.91c-2.044-0.672-16.871-12.041-27.974-14.268
	c-0.996-0.199-4.716,1.232-6.836,2.059c0,0-0.394-0.404-0.981-0.516c0.821-1.424,2.507-2.707,3.645-3.4
	c-0.023-0.004,0.971-0.086,1.012-0.127c0.326,0.139,1.604-0.023,1.628-0.023c0.794,0.012,8.142-2.039,9.163-2.039
	c1.975,0,3.627-0.301,5.247,2.76c-2.64-0.32-4.027-0.721-5.049-0.721c-1.02,0-6.237,0.953-8.145,1.584
	c10.489,1.787,26.082,10.238,26.117,10.254c1.234,0.518,1.773,0,1.773,0c-0.41-3.068-0.009-8.992-0.009-10.014
	c0-15.412-1.978-35.968-5.438-50.006c-0.41-1.779-6.058-1.47-7.388-1.47c-8.331,0-14.133,2.364-23.345,7.704v-1.447
	C206.46,5.647,232.661,0.917,232.917,0.917 M218.053,11.088c0.555,0.468,0.62,0.411,0.62,1.425c0,1.782-1.53,2.963-1.741,5.108
	c2.686-2.118,2.552-2.868,4.792-2.868c1.109,0,2.641,0.605,2.641,2.237c0,2.34-4.482,8.43-6.512,10.554
	c3.106,1.785,20.354,4.603,20.354,9.59c0,1.021-0.931,1.608-1.785,2.008h-1.808c-1.896-6.634-16.661-8.52-17.777-8.52
	c-1.63,0-10.565,13.833-17.793,12.585c-0.427,2.063,2.021,13.055-1.94,13.055c-2.147,0-2.042-4.938-2.042-5.496
	c0-2.59,2.254-29.319,4.638-35.602c1.003,0.869,1.066,1.419,1.066,2.433c0,1.016-2.043,16.33-2.049,17.35v5.574
	c0.356,0.332-0.192,0.277,0.821,0.277c4.477,0,11.326-6.673,14.268-11.044h-6.28c-1.015,0.057-1.065,0.866-2.085,0.866
	c-1.016,0-0.817-0.404-1.382-0.465v-1.46c1.453-1.281,4.942-1.736,5.451-1.736c1.017,0,4.682,0.816,5.697,0.816
	c1.324,0,4.865-6.217,5.52-7.184v-1.071c0,0,0.387-0.292-0.633-0.292c-2.041,0-7.427,6.101-7.938,6.101
	c-1.779,0-2.035-2.541-2.035-2.846C210.121,20.246,217.508,11.556,218.053,11.088 M217.653,37.541
	c1.631,0,10.372,2.596,10.372,4.886c0,1.015-0.467,1.563-1.343,2.402h-1.851c-0.667-6.041-7.468-3.948-11.05-5.874
	C215.14,38.367,216.632,37.541,217.653,37.541 M217.043,45.681c1.886,0,5.702,1.526,5.702,2.854c0,1.014-0.933,1.602-1.918,2.018
	c-1.077-3.023-3.95-2.053-6.636-3.828C215.064,45.742,216.022,45.681,217.043,45.681"/>
<g>
	<path fill="#6A6969" d="M162.043,41.414c0-0.287,0.126-0.791,0.247-1.279c0.136-0.541,0.264-1.054,0.264-1.406
		c0-0.817-0.306-2.575-0.659-4.61c-0.41-2.353-0.875-5.021-0.875-6.418v-5.051c0-1.154-1.329-8.097-4.612-8.097
		c-1.289,0-3.335,0.767-3.335,2.823c0,0.286-0.485,1.14-0.875,1.826c-0.569,1-0.915,1.635-0.915,2.01
		c0,0.387,0.212,0.775,0.417,1.15c0.173,0.316,0.351,0.644,0.351,0.896c0,4.279-3.118,13.092-5.868,20.867
		c-2.065,5.838-3.849,10.877-3.849,12.762c0,0.789,0.486,2.949,2.054,2.949c1.156,0,2.567-3.088,2.567-4.613
		c0-0.381-0.209-0.799-0.41-1.203c-0.176-0.35-0.356-0.711-0.356-0.969c0-0.746,0.304-1.672,0.571-2.487
		c0.189-0.574,0.356-1.085,0.408-1.488c0.249-0.03,0.533-0.031,0.831-0.033c0.689-0.001,1.402-0.004,1.875-0.382
		c3.806-2.976,8.885-6.64,9.476-6.725c0.291,0,0.34,0.054,0.366,0.083c0.012,0.015,0.031,0.036,0.057,0.057l0.718,13.02
		c0,0.137,0.021,0.326,0.052,0.594c0.115,1.01,0.354,3.113-0.05,7.557c-0.047,0.535-0.026,1.068-0.007,1.586
		c0.047,1.209,0.087,2.264-0.673,3.094c-0.685-0.447-1.403-0.984-2.16-1.547c-1.352-1.004-2.748-2.043-4.09-2.695l-0.16-0.078
		l-0.133,0.119c-0.073,0.066-0.119,0.086-0.163,0.104c-0.287,0.127-0.287,0.326-0.287,0.73c0,2.229,7.29,7.553,7.808,7.553
		c3.462,0,3.462-3.416,3.462-5.25c0-0.506,0.003-0.85,0.005-1.145c0.006-0.721,0.009-1.156-0.037-2.98L162.043,41.414z
		 M148.504,42.019c-0.009-1.886,1.154-4.43,2.765-6.047c0.767-0.77,1.993-1.688,3.485-1.688h1.116v0.834
		c0.01,1.416-2.377,3.576-4.295,5.31c-1.012,0.915-1.969,1.782-2.528,2.481h-0.543V42.019z M155.271,20.711
		c0.032-0.25,0.045-0.34,0.275-0.544c0.725,0.337,2.64,5.98,2.623,7.341v1.622c-0.906,0.153-1.611,0.232-2.725,0.356
		c-0.703,0.079-1.567,0.176-2.745,0.321c0.585-2.253,1.586-5.606,2.138-7.454c0.173-0.579,0.295-0.989,0.336-1.134
		C155.232,21.006,155.254,20.842,155.271,20.711z M159.466,38.343c0,1.517-5.14,3.85-7.023,4.582
		c1.209-1.812,3.185-3.407,4.95-4.831c0.648-0.524,1.27-1.025,1.806-1.501c0.036,0.234,0.079,0.458,0.119,0.664
		C159.394,37.654,159.466,38.027,159.466,38.343z"/>
	<path fill="#6A6969" d="M178.448,5.095l-0.059-0.011l-29.353,7.287c-0.032,0.001-0.063,0.005-0.091,0.008
		c0.596-0.935,1.389-2.065,2.157-3.163c1.773-2.53,2.494-3.604,2.481-3.976c0.036-0.208,0.145-0.915-0.023-1.255l-0.039-0.057
		c-0.093-0.105-0.266-0.23-0.564-0.23c-0.327,0-0.646,0.149-0.683,0.166l-0.078,0.058c-1.231,1.321-2.218,2.875-3.173,4.377
		c-1.51,2.377-2.936,4.622-5.219,5.954c-2.555,1.494-5.632,1.939-8.891,2.41c-3.075,0.445-6.254,0.904-9.032,2.319l-0.094,0.048
		l-0.035,0.1c-0.025,0.071-0.239,0.711,0.019,1.167l0.059,0.104l0.116,0.025c0.026,0.005,0.681,0.147,1.703,0.147
		c0.598,0,1.199-0.049,1.75-0.142c0.355,0,2.369-0.633,6.561-1.978c2.526-0.811,5.671-1.82,5.998-1.837l0.215-0.001
		c-3.447,4.628-8.053,9.651-11.243,13.053c-0.133,0.142-1.084,0.916-2.091,1.736c-4.518,3.677-4.921,4.103-4.921,4.382
		c0,0.598,0.881,2.567,2.823,2.567c2.255,0,7.507-7.069,12.586-13.905c3.534-4.757,6.873-9.25,8.165-9.85
		c6.193-2.87,13.435-3.714,19.824-4.459c1.214-0.141,2.409-0.281,3.527-0.429c1.359,0.076,2.477,0.114,3.322,0.114
		c1.121,0,1.508-0.067,1.695-0.1c0.027-0.005,0.049-0.009,0.067-0.012c1.354,0.339,2.315,0.511,2.854,0.511
		c1.313,0,2.948,0,2.948-2.184C181.732,6.191,181.088,5.614,178.448,5.095z"/>
</g>
<path fill="#6A6969" d="M119.593,83.752h-2.2c0.143-1.27,0.641-2.236,1.496-2.903c0.855-0.666,1.891-0.999,3.104-0.999
	c1.396,0,2.55,0.397,3.465,1.193s1.372,1.792,1.372,2.989c0,1.489-0.758,2.628-2.271,3.415c1.774,0.914,2.661,2.175,2.661,3.781
	c0,1.261-0.483,2.354-1.448,3.279c-0.966,0.926-2.111,1.389-3.436,1.389c-1.332,0-2.485-0.333-3.459-0.999s-1.613-1.721-1.922-3.163
	h2.247c0.489,1.561,1.49,2.341,3.004,2.341c0.772,0,1.446-0.266,2.022-0.798c0.575-0.532,0.863-1.153,0.863-1.862
	c0-0.741-0.265-1.421-0.793-2.04c-0.527-0.619-1.395-0.94-2.602-0.964v-1.868c0.923-0.016,1.646-0.242,2.17-0.679
	c0.524-0.437,0.787-0.996,0.787-1.681c0-0.7-0.244-1.294-0.733-1.781s-1.085-0.731-1.786-0.731c-0.662,0-1.189,0.165-1.584,0.496
	S119.837,83.026,119.593,83.752z"/>
<path fill="#6A6969" d="M136.83,79.542l1.565,1.083l-3.31,4.842c0.275-0.031,0.469-0.048,0.58-0.048l0.438-0.023
	c1.404,0,2.639,0.501,3.705,1.502c1.064,1.001,1.598,2.156,1.598,3.465c0,1.553-0.528,2.869-1.585,3.949
	c-1.056,1.08-2.345,1.62-3.866,1.62s-2.822-0.529-3.902-1.59s-1.621-2.34-1.621-3.838c0-1.15,0.34-2.215,1.018-3.192L136.83,79.542z
	 M139.254,90.434c0-0.915-0.329-1.705-0.987-2.371c-0.659-0.666-1.437-0.999-2.335-0.999c-0.899,0-1.684,0.337-2.354,1.011
	s-1.006,1.46-1.006,2.359c0,0.93,0.325,1.717,0.977,2.358c0.65,0.644,1.443,0.964,2.383,0.964c0.922,0,1.706-0.323,2.353-0.97
	C138.931,92.141,139.254,91.355,139.254,90.434z"/>
<path fill="#6A6969" d="M149.798,79.85c1.655,0,3.001,0.743,4.038,2.229c1.037,1.486,1.555,3.416,1.555,5.789
	c0,2.459-0.558,4.419-1.673,5.877c-1.116,1.459-2.454,2.188-4.015,2.188c-1.624,0-2.975-0.746-4.051-2.24s-1.613-3.396-1.613-5.706
	c0-2.562,0.553-4.559,1.661-5.989c1.107-1.431,2.435-2.146,3.979-2.146H149.798z M153.238,87.844c0-1.703-0.334-3.103-1.005-4.198
	c-0.67-1.096-1.513-1.644-2.53-1.644c-1.049,0-1.904,0.542-2.566,1.626s-0.993,2.513-0.993,4.286c0,1.759,0.335,3.172,1.005,4.24
	c0.67,1.067,1.537,1.602,2.602,1.602c1.025,0,1.863-0.545,2.514-1.638C152.914,91.026,153.238,89.602,153.238,87.844z"/>
<path fill="#6A6969" d="M157.563,85.668h2.334l3.539,5.3l2.446-5.3h2.122L161.414,100h-2.148l3.221-6.979L157.563,85.668z"/>
<path fill="#6A6969" d="M169.438,90.504c0-1.332,0.525-2.517,1.578-3.554c1.053-1.036,2.261-1.555,3.625-1.555
	c1.402,0,2.629,0.511,3.678,1.531c1.049,1.021,1.572,2.214,1.572,3.577c0,1.372-0.514,2.58-1.543,3.625
	c-1.029,1.044-2.217,1.566-3.565,1.566c-1.442,0-2.694-0.516-3.755-1.549C169.968,93.113,169.438,91.899,169.438,90.504z
	 M177.904,90.51c0-0.829-0.315-1.55-0.945-2.162c-0.631-0.612-1.381-0.918-2.248-0.918c-0.891,0-1.657,0.31-2.299,0.93
	c-0.644,0.62-0.965,1.36-0.965,2.222c0,0.821,0.326,1.54,0.977,2.156s1.412,0.924,2.287,0.924c0.852,0,1.598-0.315,2.235-0.947
	C177.585,92.082,177.904,91.348,177.904,90.51z"/>
<path fill="#6A6969" d="M182.121,85.668h2.058v5.498c0,1.695,0.745,2.543,2.235,2.543c0.662,0,1.186-0.227,1.572-0.681
	c0.387-0.453,0.58-1.073,0.58-1.862v-5.498h2.033v5.829c0,1.223-0.398,2.228-1.194,3.016c-0.796,0.789-1.813,1.183-3.051,1.183
	c-1.261,0-2.282-0.394-3.063-1.183c-0.78-0.788-1.171-1.816-1.171-3.086V85.668z"/>
<path fill="#6A6969" d="M194.154,82.829h2.059v2.839h2.033v1.88h-2.033v7.876h-2.059v-7.876h-1.619v-1.904h1.619V82.829z"/>
<path fill="#6A6969" d="M200.11,85.668h2.058v5.498c0,1.695,0.745,2.543,2.235,2.543c0.662,0,1.187-0.227,1.572-0.681
	c0.386-0.453,0.579-1.073,0.579-1.862v-5.498h2.035v5.829c0,1.223-0.398,2.228-1.195,3.016c-0.796,0.789-1.813,1.183-3.051,1.183
	c-1.262,0-2.281-0.394-3.063-1.183c-0.781-0.788-1.171-1.816-1.171-3.086V85.668z"/>
<path fill="#6A6969" d="M211.127,94.04c0-0.434,0.156-0.809,0.467-1.124c0.313-0.314,0.688-0.473,1.131-0.473
	c0.433,0,0.807,0.158,1.123,0.473c0.314,0.315,0.473,0.69,0.473,1.124c0,0.441-0.156,0.818-0.467,1.129
	c-0.313,0.312-0.688,0.468-1.129,0.468c-0.442,0-0.818-0.154-1.131-0.462C211.283,94.868,211.127,94.489,211.127,94.04z"/>
<path fill="#6A6969" d="M224.497,92.443v2.354c-1.049,0.599-2.065,0.898-3.052,0.898c-1.348,0-2.528-0.506-3.541-1.52
	c-1.014-1.013-1.52-2.186-1.52-3.518c0-1.514,0.504-2.77,1.514-3.767s2.274-1.496,3.796-1.496c0.906,0,1.841,0.236,2.803,0.71v2.294
	c-1.033-0.662-2.011-0.993-2.933-0.993c-0.852,0-1.597,0.3-2.235,0.898c-0.639,0.6-0.958,1.301-0.958,2.104
	c0,0.907,0.3,1.67,0.898,2.288c0.6,0.619,1.333,0.929,2.2,0.929C222.353,93.626,223.361,93.231,224.497,92.443z"/>
<path fill="#6A6969" d="M226.337,90.504c0-1.332,0.526-2.517,1.579-3.554c1.052-1.036,2.26-1.555,3.624-1.555
	c1.403,0,2.629,0.511,3.677,1.531c1.049,1.021,1.573,2.214,1.573,3.577c0,1.372-0.515,2.58-1.543,3.625
	c-1.028,1.044-2.218,1.566-3.565,1.566c-1.442,0-2.694-0.516-3.754-1.549C226.867,93.113,226.337,91.899,226.337,90.504z
	 M234.804,90.51c0-0.829-0.315-1.55-0.946-2.162s-1.379-0.918-2.246-0.918c-0.892,0-1.658,0.31-2.301,0.93s-0.963,1.36-0.963,2.222
	c0,0.821,0.324,1.54,0.975,2.156s1.414,0.924,2.289,0.924c0.852,0,1.596-0.315,2.234-0.947S234.804,91.348,234.804,90.51z"/>
<path fill="#6A6969" d="M239.186,95.424v-9.756h2.034v1.501c0.481-0.614,0.94-1.063,1.378-1.348s0.939-0.426,1.508-0.426
	c0.74,0,1.322,0.162,1.744,0.485s0.778,0.839,1.07,1.549c0.514-0.71,1.011-1.226,1.49-1.549c0.479-0.323,1.034-0.485,1.668-0.485
	c0.775,0,1.443,0.29,2.006,0.869c0.563,0.58,0.844,1.268,0.844,2.063v7.096h-2.059V88.86c0-1.08-0.533-1.62-1.602-1.62
	c-0.608,0-1.125,0.276-1.548,0.828s-0.634,1.233-0.634,2.046v5.31h-2.059v-6.291c0-1.277-0.523-1.916-1.572-1.916
	c-0.623,0-1.151,0.26-1.585,0.78s-0.65,1.163-0.65,1.928v5.499H239.186z"/>
<g>
	<path fill="#FF6600" d="M100,95.748c0,2.347-1.905,4.252-4.252,4.252H4.252C1.904,100,0,98.095,0,95.748V4.252
		C0,1.905,1.904,0,4.252,0h91.494C98.095,0,100,1.905,100,4.252V95.748z"/>
</g>
<g>
	<path fill="#FFFFFF" d="M17.214,25.555h1.118c1.301,0.747,2.699,2.984,4.193,6.709c0.931,1.306,2.7,4.571,5.313,9.787
		c0.93,1.494,2.05,2.425,3.355,2.795c4.473-6.334,7.549-10.717,9.227-13.141l1.957-2.795c0.183-2.236,0.931-3.354,2.236-3.354h0.559
		c1.861,0.375,2.795,0.935,2.795,1.677c0.184,0,0.279,0.188,0.279,0.559c0,0.935-1.397,3.075-4.193,6.43l-3.635,4.194
		c-2.053,2.984-5.221,7.366-9.506,13.141c-7.27,11.56-10.641,18.992-10.903,19.853c-0.265,0.857-1.793,2.581-2.236,2.796
		c-0.446,0.212-1.398,0.279-1.958,0.279c-1.307,0-1.957-0.184-1.957-0.559c0-0.184,0.093-0.373,0.279-0.56
		c0,0-0.23-0.605-0.279-0.84c-0.049-0.233,0.093-0.56,0.279-0.56c0,0-0.205-0.205-0.279-0.279c-0.074-0.076,0-0.278,0-0.278
		c0.742-0.932,1.582-1.862,2.516-2.796c5.404-9.689,9.69-16.682,12.862-20.971l-1.118-1.118c-1.118,0-2.236-0.931-3.355-2.797
		c-1.117-2.979-2.703-5.872-4.752-8.667c0-0.183-0.656-1.21-1.957-3.075l-1.679-2.237c-0.746-1.301-1.118-2.236-1.118-2.795
		C15.999,26.022,16.655,25.555,17.214,25.555z"/>
	<path fill="#FFFFFF" d="M15.815,75.861c-0.824,0-3.333,0-3.333-1.936c0-0.199,0.031-0.449,0.139-0.722
		c-0.047-0.145-0.086-0.283-0.109-0.396c-0.053-0.252-0.051-0.517,0-0.774c-0.102-0.337-0.085-0.717,0.055-1.097l0.076-0.212
		l0.141-0.175c0.73-0.915,1.564-1.849,2.482-2.773c4.969-8.905,9.047-15.605,12.139-19.949c-1.373-0.284-2.627-1.401-3.821-3.392
		L23.52,44.33l-0.044-0.118c-1.069-2.85-2.61-5.656-4.574-8.337l-0.266-0.363V35.34c-0.151-0.265-0.566-0.93-1.696-2.549
		l-1.756-2.358c-0.9-1.568-1.301-2.643-1.301-3.48V26.47l0.3-0.377c1.03-1.289,2.021-1.916,3.034-1.916h1.484l0.318,0.183
		c1.596,0.916,3.1,3.219,4.727,7.244c0.988,1.434,2.723,4.635,5.295,9.771c0.512,0.808,1.064,1.393,1.674,1.768
		c4.06-5.751,6.942-9.858,8.576-12.221l1.756-2.507c0.425-3.675,2.404-4.237,3.571-4.237h0.696l0.135,0.027
		c0.842,0.17,3.188,0.644,3.77,2.252c0.248,0.315,0.409,0.756,0.409,1.333c0,0.985-0.546,2.552-4.513,7.313l-3.604,4.156
		c-2.085,3.028-5.267,7.425-9.459,13.076c-7.363,11.713-10.534,18.873-10.727,19.48c-0.361,1.176-2.123,3.23-2.955,3.632
		C17.588,75.82,16.322,75.861,15.815,75.861z M15.592,71.475l1.511,1.511c0.013-0.003,0.024-0.008,0.036-0.01
		c0.427-0.346,1.424-1.567,1.555-1.973c0.346-1.121,3.838-8.703,11.056-20.179l0.06-0.088c4.217-5.683,7.406-10.09,9.479-13.101
		l0.094-0.121l3.635-4.194c2.244-2.692,3.184-4.132,3.578-4.873v-0.993c-0.167-0.108-0.59-0.317-1.561-0.523h-0.418
		c-0.627,0-0.814,1.462-0.865,2.09l-0.03,0.372l-2.171,3.101c-1.719,2.485-4.827,6.911-9.23,13.146l-0.563,0.797l-0.938-0.268
		c-1.641-0.465-3.035-1.607-4.147-3.392l-0.063-0.111c-2.575-5.142-4.325-8.373-5.202-9.604l-0.096-0.134l-0.061-0.152
		c-1.559-3.887-2.693-5.319-3.34-5.846h-0.648c-0.053,0.023-0.229,0.115-0.525,0.419c0.109,0.311,0.332,0.829,0.793,1.64
		l1.654,2.206c1.363,1.954,1.883,2.783,2.081,3.247c2.019,2.788,3.613,5.706,4.743,8.679c0.777,1.271,1.563,2.025,2.111,2.025h0.57
		l2.359,2.359l-0.705,0.953c-3.115,4.214-7.41,11.221-12.767,20.822l-0.093,0.167l-0.136,0.136
		C16.717,70.217,16.129,70.851,15.592,71.475z"/>
</g>
<path fill="#FFFFFF" d="M83.489,26.267c0.036-0.006,0.676-0.072,0.831,0c0.152,0.072,1.542,2.56,1.396,3.076
	c-0.145,0.516-1.564,1.879-1.678,1.957c-0.114,0.078-0.363,0.182-0.56,0.279s-0.374,0.261-0.839,0.279c-0.465,0.019-0.279,0-0.279,0
	c-0.375,0-0.506-0.118-0.84-0.279c-0.332-0.161-2.332-1.21-5.87-1.397l-3.076,0.279c0.184,0.376,0.28,1.027,0.28,1.958
	c0,0-0.004,0.538,0,0.839c0.001,0.301,0.279,2.236,0.279,2.236v0.279c0,0.188-0.26,2.04-0.279,2.516c-0.021,0.476,0,5.033,0,5.033
	c-0.188,0.747-0.28,1.307-0.28,1.677v1.398c-0.188,5.031-0.278,8.763-0.278,11.184v0.559c-0.188,2.984-0.279,6.151-0.279,9.506
	c0,0-0.081,1.311,0,1.685c0.08,0.371,0.271,0.795,0.279,1.104c0.006,0.309-0.299,0.914-0.559,1.406
	c-0.261,0.493-1.504,1.941-1.679,1.956c-0.174,0.017-0.278,0-0.278,0c-0.748,0-1.888-1.968-1.957-2.236c-0.07-0.269,0-0.839,0-0.839
	c0-0.743,0.217-1.543,0.282-1.966c0.069-0.423-0.002-0.83-0.002-0.83c0-0.372,0.271-0.958,0.278-1.12
	c0.008-0.159,0.794-8.536,0.839-8.946c0.045-0.409,0.246-1.324,0.28-1.677c0.031-0.354,0-2.238,0-2.796v-1.398
	c0-0.371-0.371-1.005-0.28-1.677c0.091-0.673,0.544-3.225,0.56-3.636c0.015-0.409-0.038-2.143,0-2.515
	c0.036-0.373,0.278-1.119,0.278-1.677c0-0.558-0.214-1.312-0.278-1.677c-0.066-0.365,0.007-5.284,0-5.033
	c-0.01,0.251,0.091-3.355,0.278-3.355v-1.118c-5.592,0.188-12.344,1.094-12.582,1.122c-0.236,0.028-2.236,0.275-2.236,0.275
	c-0.187,0-0.84,0.097-1.957,0.279h-0.279c-0.188,0-0.28-0.092-0.28-0.279v-0.279c0.184-1.677,0.84-2.516,1.957-2.516
	c1.302-0.559,3.729-1.118,7.27-1.677c0,0,12.023-1.119,13.701-1.119C75.651,27.106,83.451,26.272,83.489,26.267z"/>
<path fill="#FFFFFF" d="M69.909,75.181c-0.091,0-0.168-0.002-0.226-0.009c-1.894-0.103-3.185-3.228-3.194-3.261
	c-0.109-0.418-0.078-0.948-0.043-1.274c0.01-0.656,0.139-1.288,0.232-1.753c0.027-0.133,0.052-0.251,0.068-0.344
	c0.023-0.149,0.005-0.336-0.005-0.388l-0.021-0.119l0.003-0.107c0-0.454,0.148-0.897,0.257-1.222
	c0.013-0.038,0.025-0.074,0.034-0.104c0.102-1.198,0.828-8.832,0.836-8.895c0.026-0.247,0.09-0.583,0.155-0.938
	c0.048-0.251,0.109-0.594,0.123-0.713c0.017-0.219,0.005-1.378-0.002-1.934c-0.002-0.309-0.004-0.576-0.004-0.736v-1.329
	c-0.015-0.05-0.038-0.134-0.06-0.198c-0.122-0.407-0.306-1.021-0.21-1.734c0.038-0.273,0.124-0.789,0.223-1.387
	c0.116-0.704,0.311-1.885,0.327-2.123c0.005-0.118-0.002-0.527-0.007-0.886c-0.011-0.876-0.016-1.428,0.012-1.708
	c0.024-0.221,0.077-0.459,0.133-0.712c0.06-0.266,0.139-0.631,0.139-0.827c0-0.258-0.1-0.712-0.169-1.015
	c-0.035-0.163-0.067-0.307-0.088-0.421c-0.045-0.247-0.071-0.716-0.026-4.792c0.002-0.201,0.004-0.351,0.005-0.431
	c-0.007-0.251,0.01-0.628,0.043-1.252l0.01-0.171c0.004-0.081,0.009-0.165,0.014-0.254c0.033-0.634,0.069-1.081,0.107-1.407
	c-4.285,0.227-8.88,0.781-10.801,1.029l-0.137,0.017c-0.236,0.028-2.229,0.274-2.229,0.274l-0.169,0.01
	c-0.064,0.005-0.415,0.045-1.735,0.261l-0.109,0.019h-0.392c-0.943,0-1.656-0.712-1.656-1.656l0.008-0.429
	c0.331-3.029,2.037-3.635,3.019-3.729c1.452-0.574,3.866-1.123,7.362-1.675l0.087-0.011c1.22-0.114,11.821-1.095,13.748-1.124
	c2.156-0.23,7.561-0.807,7.753-0.829l0,0c0.155-0.019,0.454-0.043,0.703-0.043c0.245,0,0.564,0.019,0.872,0.161
	c0.293,0.138,0.598,0.279,1.46,2.003c0.767,1.532,0.83,2.166,0.684,2.692c-0.31,1.098-2.201,2.704-2.218,2.716
	c-0.175,0.122-0.374,0.214-0.565,0.304c-0.058,0.027-0.116,0.054-0.169,0.081l-0.045,0.024c-0.224,0.129-0.641,0.369-1.351,0.396
	c-0.185,0.007-0.283,0.008-0.332,0.008c-0.084,0-0.165-0.006-0.243-0.019c-0.494-0.042-0.812-0.207-1.051-0.333
	c-0.043-0.023-0.091-0.047-0.144-0.075l-0.057-0.027c-1.382-0.679-3.223-1.114-5.192-1.229l-1.463,0.133
	c0.014,0.225,0.021,0.466,0.021,0.724c0,0.005-0.003,0.535,0,0.831c0.01,0.184,0.146,1.212,0.266,2.049l0.014,0.098v0.378
	c0,0.152-0.021,0.336-0.119,1.128c-0.061,0.493-0.153,1.238-0.161,1.45c-0.017,0.322-0.008,3.216,0.001,4.965v0.172l-0.042,0.169
	c-0.216,0.856-0.238,1.223-0.238,1.343v1.449c-0.185,4.958-0.279,8.705-0.279,11.132l-0.003,0.646
	c-0.185,2.922-0.277,6.09-0.277,9.419l-0.005,0.092c-0.03,0.535-0.043,1.145-0.022,1.331c0.02,0.08,0.055,0.195,0.09,0.305
	c0.098,0.306,0.204,0.653,0.215,1.038c0.014,0.578-0.243,1.177-0.718,2.079c-0.015,0.025-1.566,2.577-2.772,2.688
	C70.077,75.179,69.986,75.181,69.909,75.181z"/>
<polygon fill="#FFFFFF" points="69.907,72.433 69.909,73.807 69.909,72.433 "/>
<path fill="#FFFFFF" d="M69.167,71.203c0.133,0.258,0.391,0.646,0.624,0.938c0.305-0.354,0.637-0.776,0.729-0.943
	c0.223-0.423,0.33-0.654,0.38-0.783c-0.021-0.069-0.047-0.152-0.067-0.217c-0.055-0.174-0.118-0.369-0.162-0.579
	c-0.097-0.451-0.07-1.335-0.029-2.013c0-3.355,0.094-6.552,0.278-9.508v-0.516c0-2.458,0.096-6.23,0.28-11.21V45
	c0-0.461,0.091-1.065,0.279-1.841c-0.005-1.048-0.019-4.474,0.003-4.932c0.013-0.296,0.083-0.876,0.181-1.663
	c0.037-0.315,0.086-0.704,0.097-0.829v-0.145c-0.185-1.289-0.28-2.073-0.28-2.331c0-0.302,0-0.847,0-0.847
	c0-0.391-0.019-0.677-0.042-0.882v2.262h-0.187c-0.045,0.7-0.083,1.585-0.093,2.017h-0.005c0,0.003,0,0.007,0,0.009h0.005
	l-0.003,0.067c0.003,0.119,0,0.251-0.002,0.398c-0.026,2.521-0.028,3.973-0.009,4.32c0.016,0.075,0.035,0.164,0.058,0.261
	c0.099,0.443,0.235,1.053,0.235,1.615c0,0.5-0.115,1.015-0.207,1.427c-0.03,0.138-0.072,0.326-0.079,0.388
	c-0.015,0.175-0.004,0.94,0.002,1.397c0.007,0.516,0.012,0.841,0.005,1.03c-0.012,0.312-0.125,1.023-0.362,2.464
	c-0.091,0.554-0.178,1.075-0.21,1.31c-0.017,0.121,0.06,0.37,0.119,0.569c0.081,0.273,0.174,0.58,0.174,0.924v1.397
	c0,0.152,0.004,0.41,0.007,0.708c0.013,1.308,0.015,1.937-0.013,2.214c-0.022,0.244-0.083,0.577-0.155,0.962
	c-0.051,0.277-0.11,0.59-0.127,0.739c-0.043,0.385-0.8,8.445-0.833,8.88c-0.015,0.243-0.084,0.45-0.162,0.687
	c-0.03,0.088-0.081,0.24-0.104,0.335c0.024,0.243,0.042,0.637-0.024,1.058c-0.021,0.127-0.053,0.284-0.088,0.463
	c-0.079,0.391-0.178,0.879-0.178,1.288l-0.011,0.168C69.177,70.987,69.169,71.113,69.167,71.203z"/>
<path fill="#FFFFFF" d="M82.351,30.482l0.146,2.746c0.609-0.06,1.244-0.625,1.202-1.432c-0.038-0.782-0.684-1.275-1.281-1.305
	c0.011,0.005,0.021,0.012,0.031,0.015c-0.012-0.005-0.03-0.011-0.048-0.016c-0.015,0-0.026,0-0.039,0c0.008,0,0.021,0,0.034,0
	C82.379,30.485,82.362,30.483,82.351,30.482z"/>
<path fill="#FFFFFF" d="M54.681,31.278c-0.091,0-0.177,0.042-0.248,0.126c0.359-0.051,0.56-0.073,0.699-0.08
	c0.337-0.042,1.966-0.243,2.182-0.269l0.11-0.014c2.191-0.282,7.804-0.956,12.589-1.117l0.776-0.025l-0.288-0.613l1.95-0.195
	l3.175-0.289l0.101,0.005c1.677,0.089,4.141,0.425,6.354,1.513l0.042,0.021c0.082,0.041,0.154,0.078,0.223,0.112
	c0.025,0.013,0.048,0.026,0.07,0.038c0.039-0.001,0.095-0.003,0.175-0.006c0.031-0.001,0.046-0.004,0.046-0.004
	c0-0.003,0.021-0.017,0.042-0.029c0.067-0.038,0.129-0.073,0.193-0.105c0.074-0.035,0.151-0.072,0.229-0.108
	c0.05-0.023,0.098-0.045,0.142-0.065c0.247-0.228,0.755-0.751,1.033-1.094c-0.148-0.392-0.453-0.998-0.696-1.434
	c-0.356,0.039-1.779,0.193-7.778,0.833l-0.146,0.007c-1.318,0-10.17,0.797-13.529,1.109c-4.226,0.668-6.083,1.226-6.897,1.576
	l-0.261,0.112h-0.287V31.278z"/>
</svg>
