<?xml version="1.0" encoding="utf-8"?>
<!-- Generator: Adobe Illustrator 15.0.0, SVG Export Plug-In . SVG Version: 6.00 Build 0)  -->
<!DOCTYPE svg PUBLIC "-//W3C//DTD SVG 1.1//EN" "http://www.w3.org/Graphics/SVG/1.1/DTD/svg11.dtd">
<svg version="1.1" id="图层_1" xmlns="http://www.w3.org/2000/svg" xmlns:xlink="http://www.w3.org/1999/xlink" x="0px" y="0px"
	 width="100px" height="100px" viewBox="0 0 100 100" enable-background="new 0 0 100 100" xml:space="preserve">
<g>
	<path fill="#FF6600" d="M100,95.748c0,2.347-1.905,4.252-4.252,4.252H4.252C1.905,100,0,98.095,0,95.748V4.252
		C0,1.905,1.905,0,4.252,0h91.494C98.095,0,100,1.905,100,4.252V95.748z"/>
</g>
<g>
	<path fill="#FFFFFF" d="M17.214,25.555h1.118c1.301,0.747,2.7,2.984,4.194,6.709c0.93,1.306,2.7,4.571,5.312,9.787
		c0.93,1.494,2.05,2.425,3.355,2.795c4.473-6.334,7.549-10.717,9.227-13.141l1.958-2.795c0.183-2.236,0.931-3.354,2.236-3.354h0.559
		c1.861,0.375,2.795,0.935,2.795,1.677c0.183,0,0.279,0.188,0.279,0.559c0,0.935-1.398,3.075-4.194,6.43l-3.634,4.194
		c-2.054,2.984-5.221,7.366-9.506,13.141c-7.27,11.56-10.641,18.992-10.904,19.853c-0.265,0.857-1.793,2.581-2.236,2.796
		c-0.446,0.212-1.398,0.279-1.958,0.279c-1.306,0-1.958-0.184-1.958-0.559c0-0.184,0.093-0.373,0.279-0.56
		c0,0-0.23-0.605-0.279-0.84c-0.048-0.233,0.093-0.56,0.279-0.56c0,0-0.205-0.205-0.279-0.279c-0.074-0.076,0-0.278,0-0.278
		c0.743-0.932,1.583-1.862,2.516-2.796c5.405-9.689,9.69-16.682,12.862-20.971l-1.118-1.119c-1.118,0-2.236-0.93-3.355-2.796
		c-1.118-2.979-2.704-5.872-4.752-8.667c0-0.183-0.656-1.21-1.957-3.075l-1.679-2.237c-0.746-1.301-1.118-2.236-1.118-2.795
		C15.999,26.022,16.655,25.555,17.214,25.555z"/>
	<path fill="#FFFFFF" d="M15.815,75.861c-0.824,0-3.333,0-3.333-1.936c0-0.199,0.031-0.449,0.138-0.722
		c-0.047-0.145-0.086-0.283-0.109-0.396c-0.052-0.252-0.051-0.517,0-0.774c-0.101-0.337-0.085-0.717,0.054-1.097l0.077-0.212
		l0.14-0.175c0.731-0.915,1.565-1.849,2.483-2.773c4.969-8.905,9.046-15.605,12.138-19.949c-1.372-0.284-2.627-1.401-3.821-3.392
		L23.52,44.33l-0.044-0.118c-1.069-2.85-2.61-5.656-4.574-8.337l-0.266-0.363V35.34c-0.151-0.265-0.566-0.93-1.697-2.549
		l-1.756-2.358c-0.9-1.568-1.3-2.643-1.3-3.48V26.47l0.3-0.377c1.03-1.289,2.021-1.916,3.034-1.916h1.485l0.318,0.183
		c1.596,0.916,3.1,3.219,4.727,7.244c0.988,1.434,2.722,4.635,5.295,9.771c0.511,0.808,1.063,1.393,1.673,1.768
		c4.06-5.751,6.942-9.858,8.576-12.221l1.755-2.507c0.425-3.675,2.405-4.237,3.572-4.237h0.697l0.134,0.027
		c0.843,0.17,3.188,0.644,3.77,2.252c0.249,0.315,0.41,0.756,0.41,1.333c0,0.985-0.546,2.552-4.513,7.313l-3.603,4.156
		c-2.085,3.028-5.267,7.425-9.459,13.076c-7.364,11.713-10.534,18.873-10.726,19.48c-0.362,1.176-2.124,3.23-2.956,3.632
		C17.588,75.82,16.323,75.861,15.815,75.861z M15.592,71.475l1.511,1.511c0.012-0.003,0.024-0.008,0.036-0.01
		c0.427-0.346,1.424-1.567,1.556-1.973c0.345-1.121,3.837-8.703,11.055-20.179l0.06-0.088c4.217-5.683,7.406-10.09,9.478-13.101
		l0.094-0.121l3.635-4.194c2.244-2.692,3.184-4.132,3.578-4.873v-0.993c-0.167-0.108-0.59-0.317-1.561-0.523h-0.418
		c-0.627,0-0.813,1.462-0.865,2.09l-0.03,0.372l-2.171,3.101c-1.719,2.485-4.827,6.911-9.23,13.146l-0.562,0.797l-0.938-0.268
		c-1.641-0.465-3.035-1.607-4.147-3.392l-0.063-0.111c-2.575-5.142-4.326-8.373-5.202-9.604l-0.095-0.134l-0.061-0.152
		c-1.559-3.887-2.693-5.319-3.34-5.846h-0.648c-0.052,0.023-0.229,0.115-0.525,0.419c0.108,0.311,0.332,0.829,0.792,1.64
		l1.654,2.206c1.363,1.954,1.883,2.783,2.082,3.247c2.018,2.788,3.613,5.706,4.743,8.679c0.778,1.271,1.563,2.025,2.112,2.025h0.569
		l2.36,2.36l-0.705,0.953c-3.116,4.213-7.411,11.22-12.767,20.822l-0.093,0.167l-0.135,0.136
		C16.717,70.217,16.129,70.851,15.592,71.475z"/>
</g>
<path fill="#FFFFFF" d="M83.489,26.267c0.036-0.006,0.676-0.072,0.831,0c0.152,0.072,1.542,2.56,1.396,3.076
	c-0.145,0.516-1.564,1.879-1.678,1.957c-0.114,0.078-0.363,0.182-0.56,0.279s-0.374,0.261-0.839,0.279c-0.465,0.019-0.279,0-0.279,0
	c-0.375,0-0.506-0.118-0.84-0.279c-0.332-0.161-2.332-1.21-5.87-1.397l-3.076,0.279c0.184,0.376,0.28,1.027,0.28,1.958
	c0,0-0.004,0.538,0,0.839c0.001,0.301,0.279,2.236,0.279,2.236v0.279c0,0.188-0.26,2.04-0.279,2.516c-0.021,0.476,0,5.033,0,5.033
	c-0.188,0.747-0.28,1.307-0.28,1.677v1.398c-0.188,5.031-0.278,8.763-0.278,11.184v0.559c-0.188,2.984-0.279,6.151-0.279,9.506
	c0,0-0.081,1.311,0,1.685c0.08,0.371,0.271,0.795,0.279,1.104c0.006,0.309-0.299,0.914-0.559,1.406
	c-0.261,0.493-1.504,1.941-1.679,1.956c-0.174,0.017-0.278,0-0.278,0c-0.748,0-1.888-1.968-1.957-2.236c-0.07-0.269,0-0.839,0-0.839
	c0-0.743,0.217-1.543,0.282-1.966c0.069-0.423-0.002-0.83-0.002-0.83c0-0.372,0.271-0.958,0.278-1.12
	c0.008-0.159,0.794-8.536,0.839-8.946c0.045-0.409,0.246-1.324,0.28-1.677c0.031-0.354,0-2.238,0-2.796v-1.398
	c0-0.371-0.371-1.005-0.28-1.677c0.091-0.673,0.544-3.225,0.56-3.635c0.015-0.41-0.038-2.144,0-2.516
	c0.036-0.373,0.278-1.119,0.278-1.677c0-0.558-0.214-1.312-0.278-1.677c-0.066-0.365,0.007-5.284,0-5.033
	c-0.01,0.251,0.091-3.355,0.278-3.355v-1.118c-5.592,0.188-12.344,1.094-12.582,1.122c-0.236,0.028-2.236,0.275-2.236,0.275
	c-0.187,0-0.84,0.097-1.957,0.279h-0.279c-0.188,0-0.28-0.092-0.28-0.279v-0.279c0.184-1.677,0.84-2.516,1.957-2.516
	c1.302-0.559,3.729-1.118,7.27-1.677c0,0,12.023-1.119,13.701-1.119C75.651,27.106,83.451,26.272,83.489,26.267z"/>
<path fill="#FFFFFF" d="M69.909,75.181c-0.091,0-0.168-0.002-0.226-0.009c-1.894-0.103-3.185-3.228-3.194-3.261
	c-0.109-0.418-0.078-0.948-0.043-1.274c0.01-0.656,0.139-1.288,0.232-1.753c0.027-0.133,0.052-0.251,0.068-0.344
	c0.023-0.149,0.005-0.336-0.005-0.388l-0.021-0.119l0.003-0.107c0-0.454,0.148-0.897,0.257-1.222
	c0.013-0.038,0.025-0.074,0.034-0.104c0.102-1.198,0.828-8.832,0.836-8.895c0.026-0.247,0.09-0.583,0.155-0.938
	c0.048-0.251,0.109-0.594,0.123-0.713c0.017-0.219,0.005-1.378-0.002-1.934c-0.002-0.309-0.004-0.576-0.004-0.736v-1.329
	c-0.015-0.05-0.038-0.134-0.06-0.198c-0.122-0.407-0.306-1.021-0.21-1.734c0.038-0.273,0.124-0.789,0.223-1.387
	c0.116-0.704,0.311-1.885,0.327-2.123c0.005-0.119-0.002-0.527-0.007-0.887c-0.011-0.876-0.016-1.428,0.012-1.708
	c0.024-0.221,0.077-0.459,0.133-0.712c0.06-0.266,0.139-0.631,0.139-0.827c0-0.258-0.1-0.712-0.169-1.015
	c-0.035-0.163-0.067-0.307-0.088-0.421c-0.045-0.247-0.071-0.716-0.026-4.792c0.002-0.201,0.004-0.351,0.005-0.431
	c-0.007-0.251,0.01-0.628,0.043-1.252l0.01-0.171c0.004-0.081,0.009-0.165,0.014-0.254c0.033-0.634,0.069-1.081,0.107-1.407
	c-4.285,0.227-8.88,0.781-10.801,1.029l-0.137,0.017c-0.236,0.028-2.229,0.274-2.229,0.274l-0.169,0.01
	c-0.064,0.005-0.415,0.045-1.735,0.261l-0.109,0.019h-0.392c-0.943,0-1.656-0.712-1.656-1.656l0.008-0.429
	c0.331-3.029,2.037-3.635,3.019-3.729c1.452-0.574,3.866-1.123,7.362-1.675l0.087-0.011c1.22-0.114,11.821-1.095,13.748-1.124
	c2.156-0.23,7.561-0.807,7.753-0.829l0,0c0.155-0.019,0.454-0.043,0.703-0.043c0.245,0,0.564,0.019,0.872,0.161
	c0.293,0.138,0.598,0.279,1.46,2.003c0.767,1.532,0.83,2.166,0.684,2.692c-0.31,1.098-2.201,2.704-2.218,2.716
	c-0.175,0.122-0.374,0.214-0.565,0.304c-0.058,0.027-0.116,0.054-0.169,0.081l-0.045,0.024c-0.224,0.129-0.641,0.369-1.351,0.396
	c-0.185,0.007-0.283,0.008-0.332,0.008c-0.084,0-0.165-0.006-0.243-0.019c-0.494-0.042-0.812-0.207-1.051-0.333
	c-0.043-0.023-0.091-0.047-0.144-0.075l-0.057-0.027c-1.382-0.679-3.223-1.114-5.192-1.229l-1.463,0.133
	c0.014,0.225,0.021,0.466,0.021,0.724c0,0.005-0.003,0.535,0,0.831c0.01,0.184,0.146,1.212,0.266,2.049l0.014,0.098v0.378
	c0,0.152-0.021,0.336-0.119,1.128c-0.061,0.493-0.153,1.238-0.161,1.45c-0.017,0.322-0.008,3.216,0.001,4.965v0.172l-0.042,0.169
	c-0.216,0.856-0.238,1.223-0.238,1.343v1.449c-0.185,4.958-0.279,8.705-0.279,11.132l-0.003,0.646
	c-0.185,2.922-0.277,6.09-0.277,9.419l-0.005,0.092c-0.03,0.535-0.043,1.145-0.022,1.331c0.02,0.08,0.055,0.195,0.09,0.305
	c0.098,0.306,0.204,0.653,0.215,1.038c0.014,0.578-0.243,1.177-0.718,2.079c-0.015,0.025-1.566,2.577-2.772,2.688
	C70.077,75.179,69.986,75.181,69.909,75.181z"/>
<polygon fill="#FFFFFF" points="69.907,72.433 69.909,73.807 69.909,72.433 "/>
<path fill="#FFFFFF" d="M69.167,71.203c0.133,0.258,0.391,0.646,0.624,0.938c0.305-0.354,0.637-0.776,0.729-0.943
	c0.223-0.423,0.33-0.654,0.38-0.783c-0.021-0.069-0.047-0.152-0.067-0.217c-0.055-0.174-0.118-0.369-0.162-0.579
	c-0.097-0.451-0.07-1.335-0.029-2.013c0-3.355,0.094-6.552,0.278-9.508v-0.516c0-2.458,0.096-6.23,0.28-11.21V45
	c0-0.461,0.091-1.065,0.279-1.841c-0.005-1.048-0.019-4.474,0.003-4.932c0.013-0.296,0.083-0.876,0.181-1.663
	c0.037-0.315,0.086-0.704,0.097-0.829v-0.145c-0.185-1.289-0.28-2.073-0.28-2.331c0-0.302,0-0.847,0-0.847
	c0-0.391-0.019-0.677-0.042-0.882v2.262h-0.187c-0.045,0.7-0.083,1.585-0.093,2.017h-0.005c0,0.003,0,0.007,0,0.009h0.005
	l-0.003,0.067c0.003,0.119,0,0.251-0.002,0.398c-0.026,2.521-0.028,3.973-0.009,4.32c0.016,0.075,0.035,0.164,0.058,0.261
	c0.099,0.443,0.235,1.053,0.235,1.615c0,0.5-0.115,1.015-0.207,1.427c-0.03,0.138-0.072,0.326-0.079,0.388
	c-0.015,0.175-0.004,0.94,0.002,1.397c0.007,0.516,0.012,0.841,0.005,1.03c-0.012,0.311-0.125,1.023-0.362,2.463
	c-0.091,0.554-0.178,1.076-0.21,1.31c-0.017,0.121,0.06,0.37,0.119,0.569c0.081,0.273,0.174,0.58,0.174,0.924v1.397
	c0,0.152,0.004,0.41,0.007,0.708c0.013,1.308,0.015,1.937-0.013,2.214c-0.022,0.244-0.083,0.577-0.155,0.962
	c-0.051,0.277-0.11,0.59-0.127,0.739c-0.043,0.385-0.8,8.445-0.833,8.88c-0.015,0.243-0.084,0.45-0.162,0.687
	c-0.03,0.088-0.081,0.24-0.104,0.335c0.024,0.243,0.042,0.637-0.024,1.058c-0.021,0.127-0.053,0.284-0.088,0.463
	c-0.079,0.391-0.178,0.879-0.178,1.288l-0.011,0.168C69.177,70.987,69.169,71.113,69.167,71.203z"/>
<path fill="#FFFFFF" d="M82.351,30.482l0.146,2.746c0.609-0.06,1.244-0.625,1.202-1.432c-0.038-0.782-0.684-1.275-1.281-1.305
	c0.011,0.005,0.021,0.012,0.031,0.015c-0.012-0.005-0.03-0.011-0.048-0.016c-0.015,0-0.026,0-0.039,0c0.008,0,0.021,0,0.034,0
	C82.379,30.485,82.362,30.483,82.351,30.482z"/>
<path fill="#FFFFFF" d="M54.681,31.278c-0.091,0-0.177,0.042-0.248,0.126c0.359-0.051,0.56-0.073,0.699-0.08
	c0.337-0.042,1.966-0.243,2.182-0.269l0.11-0.014c2.191-0.282,7.804-0.956,12.589-1.117l0.776-0.025l-0.288-0.613l1.95-0.195
	l3.175-0.289l0.101,0.005c1.677,0.089,4.141,0.425,6.354,1.513l0.042,0.021c0.082,0.041,0.154,0.078,0.223,0.112
	c0.025,0.013,0.048,0.026,0.07,0.038c0.039-0.001,0.095-0.003,0.175-0.006c0.031-0.001,0.046-0.004,0.046-0.004
	c0-0.003,0.021-0.017,0.042-0.029c0.067-0.038,0.129-0.073,0.193-0.105c0.074-0.035,0.151-0.072,0.229-0.108
	c0.05-0.023,0.098-0.045,0.142-0.065c0.247-0.228,0.755-0.751,1.033-1.094c-0.148-0.392-0.453-0.998-0.696-1.434
	c-0.356,0.039-1.779,0.193-7.778,0.833l-0.146,0.007c-1.318,0-10.17,0.797-13.529,1.109c-4.226,0.668-6.083,1.226-6.897,1.576
	l-0.261,0.112h-0.287V31.278z"/>
</svg>
