<?xml version="1.0" encoding="utf-8"?>
<!-- Generator: Adobe Illustrator 15.0.0, SVG Export Plug-In . SVG Version: 6.00 Build 0)  -->
<!DOCTYPE svg PUBLIC "-//W3C//DTD SVG 1.1//EN" "http://www.w3.org/Graphics/SVG/1.1/DTD/svg11.dtd">
<svg version="1.1" id="图层_1" xmlns="http://www.w3.org/2000/svg" xmlns:xlink="http://www.w3.org/1999/xlink" x="0px" y="0px"
	 width="100px" height="100px" viewBox="0 0 100 100" enable-background="new 0 0 100 100" xml:space="preserve">
<g>
	<rect x="9" y="9" fill="#FF6600" width="82" height="82"/>
</g>
<g>
	<path fill="#FFFFFF" d="M23.575,30.087h0.909c1.059,0.607,2.194,2.425,3.408,5.455c0.758,1.061,2.195,3.713,4.318,7.954
		c0.757,1.214,1.666,1.97,2.728,2.272c3.636-5.148,6.136-8.71,7.5-10.681l1.59-2.272c0.149-1.818,0.757-2.727,1.818-2.727h0.454
		c1.514,0.305,2.273,0.76,2.273,1.363c0.149,0,0.228,0.153,0.228,0.455c0,0.76-1.137,2.5-3.41,5.227l-2.953,3.409
		c-1.669,2.425-4.243,5.986-7.728,10.681c-5.909,9.396-8.648,15.438-8.863,16.136c-0.214,0.697-1.456,2.099-1.817,2.272
		c-0.362,0.174-1.137,0.228-1.592,0.228c-1.061,0-1.591-0.149-1.591-0.455c0-0.149,0.075-0.301,0.228-0.454
		c0,0-0.188-0.492-0.228-0.683c-0.04-0.189,0.075-0.454,0.228-0.454c0,0-0.166-0.166-0.228-0.228c-0.061-0.061,0-0.227,0-0.227
		c0.604-0.756,1.286-1.513,2.046-2.272c4.393-7.876,7.876-13.557,10.454-17.045l-0.909-0.909c-0.909,0-1.818-0.756-2.728-2.272
		c-0.909-2.421-2.197-4.772-3.863-7.045c0-0.149-0.532-0.983-1.591-2.5l-1.363-1.818c-0.607-1.058-0.909-1.818-0.909-2.273
		C22.588,30.466,23.121,30.087,23.575,30.087z"/>
	<path fill="#FFFFFF" d="M22.438,70.976c-0.67,0-2.709,0-2.709-1.573c0-0.162,0.024-0.364,0.112-0.587
		c-0.038-0.116-0.07-0.229-0.089-0.32c-0.043-0.204-0.042-0.42,0-0.629c-0.082-0.273-0.069-0.583,0.044-0.893l0.063-0.172
		l0.114-0.143c0.593-0.743,1.271-1.501,2.019-2.254c4.038-7.236,7.354-12.684,9.864-16.214c-1.114-0.231-2.136-1.139-3.104-2.757
		l-0.053-0.087l-0.035-0.094c-0.87-2.317-2.121-4.598-3.719-6.777l-0.217-0.296v-0.138c-0.122-0.216-0.46-0.755-1.378-2.071
		l-1.428-1.917c-0.731-1.275-1.058-2.147-1.058-2.83v-0.392l0.245-0.307c0.836-1.047,1.643-1.557,2.465-1.557h1.207l0.259,0.148
		c1.297,0.744,2.519,2.617,3.842,5.888c0.803,1.166,2.213,3.768,4.305,7.941c0.415,0.657,0.864,1.132,1.359,1.437
		c3.299-4.674,5.643-8.013,6.972-9.933l1.426-2.038c0.347-2.988,1.954-3.444,2.902-3.444h0.566l0.11,0.021
		c0.684,0.139,2.59,0.524,3.063,1.832c0.202,0.255,0.334,0.614,0.334,1.084c0,0.8-0.444,2.074-3.668,5.943l-2.928,3.378
		c-1.695,2.461-4.282,6.037-7.689,10.627c-5.983,9.521-8.562,15.341-8.718,15.834c-0.294,0.957-1.727,2.626-2.402,2.951
		C23.879,70.943,22.852,70.976,22.438,70.976z M22.257,67.411l1.229,1.228c0.01-0.002,0.019-0.005,0.028-0.008
		c0.348-0.279,1.157-1.273,1.265-1.604c0.28-0.911,3.119-7.072,8.985-16.401l0.049-0.071c3.428-4.619,6.02-8.202,7.704-10.648
		l0.076-0.099l2.954-3.409c1.824-2.189,2.589-3.359,2.908-3.962v-0.806c-0.135-0.087-0.479-0.258-1.269-0.426h-0.34
		c-0.509,0-0.66,1.189-0.703,1.7l-0.024,0.302l-1.765,2.521c-1.397,2.021-3.923,5.617-7.503,10.685l-0.457,0.647l-0.763-0.216
		c-1.333-0.379-2.467-1.307-3.37-2.757l-0.051-0.091c-2.094-4.18-3.517-6.806-4.229-7.806l-0.078-0.109l-0.05-0.124
		c-1.267-3.158-2.188-4.324-2.714-4.752h-0.527c-0.043,0.02-0.186,0.094-0.428,0.341c0.088,0.253,0.271,0.674,0.645,1.333
		l1.345,1.793c1.107,1.588,1.53,2.262,1.691,2.639c1.641,2.266,2.937,4.638,3.854,7.055c0.634,1.032,1.271,1.646,1.718,1.646h0.463
		l1.918,1.918l-0.572,0.774c-2.532,3.425-6.022,9.12-10.376,16.925l-0.076,0.136l-0.11,0.109
		C23.172,66.389,22.693,66.903,22.257,67.411z"/>
</g>
<path fill="#FFFFFF" d="M77.443,30.569c0.03-0.005,0.551-0.058,0.675,0c0.124,0.058,1.253,2.081,1.136,2.5
	c-0.117,0.419-1.271,1.527-1.363,1.592c-0.093,0.063-0.295,0.148-0.455,0.227c-0.159,0.079-0.304,0.213-0.682,0.228
	c-0.377,0.014-0.228,0-0.228,0c-0.305,0-0.411-0.097-0.681-0.228c-0.271-0.13-1.896-0.984-4.772-1.136l-2.501,0.227
	c0.149,0.306,0.228,0.834,0.228,1.591c0,0-0.001,0.437,0,0.682c0.001,0.244,0.228,1.818,0.228,1.818v0.227
	c0,0.153-0.21,1.659-0.228,2.045c-0.017,0.387,0,4.091,0,4.091c-0.152,0.607-0.228,1.061-0.228,1.363v1.137
	c-0.151,4.09-0.227,7.123-0.227,9.09v0.455c-0.152,2.425-0.228,4.999-0.228,7.727c0,0-0.065,1.063,0,1.366
	c0.065,0.304,0.222,0.649,0.228,0.899s-0.243,0.742-0.455,1.143c-0.211,0.401-1.222,1.578-1.362,1.591c-0.142,0.013-0.228,0-0.228,0
	c-0.607,0-1.533-1.6-1.591-1.818c-0.058-0.217,0-0.682,0-0.682c0-0.603,0.176-1.254,0.23-1.598c0.054-0.344-0.004-0.674-0.004-0.674
	c0-0.303,0.222-0.779,0.228-0.909c0.005-0.131,0.645-6.938,0.682-7.272c0.037-0.333,0.201-1.076,0.228-1.363
	c0.026-0.289,0-1.818,0-2.273v-1.136c0-0.302-0.303-0.817-0.228-1.364c0.074-0.547,0.443-2.621,0.455-2.955
	c0.011-0.333-0.031-1.743,0-2.045c0.029-0.302,0.228-0.909,0.228-1.364c0-0.454-0.175-1.066-0.228-1.363
	c-0.054-0.298,0.007-4.294,0-4.091c-0.008,0.204,0.074-2.727,0.228-2.727v-0.909c-4.546,0.152-10.034,0.889-10.228,0.912
	c-0.194,0.023-1.818,0.224-1.818,0.224c-0.151,0-0.682,0.079-1.591,0.228h-0.228c-0.151,0-0.228-0.074-0.228-0.228v-0.227
	c0.149-1.364,0.683-2.045,1.592-2.045c1.058-0.455,3.029-0.909,5.908-1.364c0,0,9.772-0.909,11.137-0.909
	C71.073,31.251,77.413,30.575,77.443,30.569z"/>
<path fill="#FFFFFF" d="M66.406,70.328c-0.074,0-0.136-0.004-0.184-0.008c-1.537-0.084-2.589-2.625-2.595-2.65
	c-0.089-0.34-0.065-0.771-0.036-1.035c0.008-0.533,0.112-1.047,0.189-1.426c0.022-0.107,0.042-0.201,0.054-0.279
	c0.02-0.121,0.005-0.271-0.001-0.315l-0.018-0.096l0.002-0.087c0-0.37,0.121-0.731,0.208-0.994c0.011-0.031,0.021-0.059,0.029-0.085
	c0.082-0.974,0.672-7.179,0.679-7.228c0.021-0.203,0.073-0.474,0.126-0.762c0.038-0.205,0.09-0.484,0.099-0.58
	c0.014-0.179,0.005-1.119,0-1.573c-0.003-0.25-0.004-0.467-0.004-0.597v-1.08c-0.012-0.042-0.031-0.109-0.048-0.162
	c-0.1-0.33-0.249-0.83-0.17-1.408c0.03-0.222,0.099-0.642,0.18-1.127c0.094-0.574,0.252-1.533,0.266-1.726
	c0.003-0.096-0.001-0.428-0.005-0.721c-0.01-0.711-0.014-1.16,0.01-1.388c0.018-0.179,0.061-0.374,0.106-0.579
	c0.048-0.217,0.114-0.512,0.114-0.672c0-0.209-0.082-0.58-0.137-0.824c-0.03-0.133-0.056-0.25-0.072-0.342
	c-0.036-0.201-0.058-0.583-0.021-3.896c0.002-0.164,0.003-0.286,0.003-0.35c-0.005-0.204,0.009-0.509,0.035-1.018l0.007-0.138
	c0.004-0.066,0.008-0.135,0.012-0.207c0.027-0.515,0.056-0.878,0.087-1.144c-3.481,0.186-7.217,0.636-8.778,0.837l-0.111,0.014
	c-0.192,0.022-1.813,0.223-1.813,0.223l-0.138,0.009c-0.052,0.003-0.336,0.036-1.409,0.212l-0.091,0.015h-0.318
	c-0.767,0-1.346-0.578-1.346-1.346l0.007-0.348c0.27-2.462,1.656-2.955,2.453-3.031c1.18-0.467,3.142-0.913,5.984-1.361l0.07-0.009
	c0.991-0.092,9.609-0.89,11.176-0.914c1.753-0.187,6.145-0.656,6.302-0.674v0.001c0.125-0.016,0.368-0.036,0.571-0.036
	c0.198,0,0.458,0.015,0.708,0.131c0.239,0.112,0.485,0.227,1.188,1.628c0.623,1.245,0.674,1.761,0.554,2.188
	c-0.251,0.893-1.787,2.198-1.802,2.208c-0.143,0.099-0.304,0.174-0.46,0.247c-0.047,0.022-0.094,0.044-0.138,0.064l-0.034,0.021
	c-0.184,0.105-0.522,0.299-1.1,0.322c-0.15,0.005-0.23,0.007-0.271,0.007c-0.068,0-0.134-0.005-0.197-0.015
	c-0.402-0.035-0.659-0.169-0.854-0.271c-0.035-0.019-0.073-0.039-0.117-0.06l-0.047-0.023c-1.121-0.551-2.617-0.905-4.219-0.999
	l-1.189,0.108c0.011,0.183,0.017,0.378,0.017,0.588c0,0.004-0.002,0.434,0,0.675c0.007,0.149,0.118,0.986,0.215,1.666l0.012,0.079
	v0.307c0,0.125-0.017,0.275-0.097,0.918c-0.05,0.4-0.124,1.006-0.132,1.179c-0.012,0.261-0.006,2.613,0.002,4.035v0.141
	l-0.034,0.137c-0.176,0.695-0.193,0.994-0.193,1.091l-0.001,1.178c-0.15,4.031-0.227,7.076-0.227,9.048l-0.002,0.524
	c-0.15,2.375-0.226,4.951-0.226,7.657l-0.002,0.068c-0.026,0.435-0.035,0.93-0.02,1.081c0.017,0.067,0.046,0.159,0.074,0.248
	c0.078,0.248,0.167,0.53,0.175,0.843c0.01,0.47-0.197,0.956-0.584,1.689c-0.011,0.021-1.272,2.096-2.253,2.185
	C66.542,70.325,66.467,70.328,66.406,70.328z"/>
<polygon fill="#FFFFFF" points="66.405,68.092 66.406,69.21 66.406,68.092 "/>
<path fill="#FFFFFF" d="M65.803,67.093c0.108,0.21,0.317,0.526,0.506,0.764c0.248-0.289,0.519-0.633,0.595-0.767
	c0.181-0.345,0.267-0.533,0.307-0.638c-0.016-0.056-0.038-0.124-0.054-0.177c-0.045-0.14-0.095-0.299-0.132-0.469
	c-0.079-0.367-0.058-1.085-0.025-1.637c0.001-2.727,0.077-5.326,0.228-7.728v-0.42c0-1.998,0.077-5.063,0.228-9.111v-1.116
	c0-0.375,0.074-0.865,0.227-1.497c-0.003-0.851-0.016-3.637,0.002-4.007c0.011-0.241,0.067-0.712,0.146-1.352
	c0.032-0.257,0.07-0.573,0.079-0.674v-0.116c-0.15-1.048-0.227-1.686-0.227-1.895c-0.002-0.246,0-0.689,0-0.689
	c0-0.317-0.016-0.55-0.035-0.717v1.839h-0.152c-0.037,0.57-0.067,1.289-0.075,1.64l-0.004-0.001c0,0.003,0,0.005,0,0.007
	l0.004,0.001l-0.002,0.054c0.001,0.097,0,0.205-0.001,0.325c-0.022,2.048-0.025,3.229-0.008,3.511
	c0.013,0.061,0.029,0.133,0.046,0.213c0.081,0.361,0.192,0.855,0.192,1.313c0,0.407-0.093,0.824-0.169,1.16
	c-0.024,0.111-0.059,0.264-0.064,0.315c-0.012,0.142-0.003,0.763,0.002,1.134c0.006,0.42,0.009,0.685,0.004,0.837
	c-0.009,0.254-0.102,0.833-0.294,2.002c-0.075,0.45-0.145,0.875-0.17,1.065c-0.014,0.099,0.047,0.3,0.095,0.462
	c0.067,0.221,0.143,0.47,0.143,0.75v1.136c0,0.126,0.002,0.334,0.005,0.575c0.01,1.063,0.011,1.575-0.011,1.801
	c-0.018,0.197-0.068,0.469-0.126,0.782c-0.042,0.225-0.09,0.479-0.104,0.602c-0.034,0.313-0.648,6.863-0.676,7.217
	c-0.012,0.198-0.068,0.365-0.133,0.559c-0.023,0.072-0.065,0.195-0.085,0.273c0.021,0.197,0.036,0.518-0.018,0.859
	c-0.017,0.103-0.042,0.23-0.072,0.375c-0.064,0.318-0.146,0.714-0.146,1.047l-0.008,0.138
	C65.811,66.918,65.805,67.021,65.803,67.093z"/>
<path fill="#FFFFFF" d="M76.519,33.995l0.118,2.233c0.496-0.049,1.011-0.508,0.979-1.164c-0.032-0.636-0.556-1.037-1.042-1.061
	c0.009,0.004,0.018,0.008,0.026,0.012c-0.011-0.004-0.025-0.009-0.04-0.013c-0.011,0-0.021,0-0.032,0c0.008,0,0.017,0,0.028-0.001
	C76.541,33.999,76.527,33.996,76.519,33.995z"/>
<path fill="#FFFFFF" d="M54.028,34.642c-0.075,0-0.143,0.035-0.202,0.102c0.291-0.041,0.456-0.058,0.569-0.064
	c0.274-0.034,1.599-0.198,1.772-0.218l0.09-0.011c1.781-0.229,6.344-0.778,10.231-0.908l0.631-0.021l-0.234-0.498l1.586-0.158
	l2.58-0.235l0.081,0.004c1.362,0.072,3.364,0.344,5.166,1.229l0.033,0.017c0.067,0.033,0.126,0.063,0.181,0.092
	c0.02,0.01,0.039,0.021,0.057,0.03c0.032,0,0.077-0.002,0.142-0.005c0.026-0.001,0.037-0.002,0.038-0.002
	c0-0.003,0.017-0.015,0.034-0.024c0.053-0.031,0.104-0.059,0.156-0.085c0.06-0.029,0.123-0.059,0.187-0.088
	c0.04-0.018,0.08-0.036,0.115-0.054c0.201-0.185,0.614-0.61,0.839-0.89c-0.121-0.318-0.367-0.81-0.566-1.166
	c-0.29,0.033-1.445,0.157-6.322,0.677l-0.118,0.006c-1.072,0-8.266,0.647-10.997,0.901c-3.434,0.543-4.944,0.997-5.606,1.28
	l-0.211,0.091H54.028z"/>
</svg>
