<?xml version="1.0" encoding="utf-8"?>
<!-- Generator: Adobe Illustrator 15.0.0, SVG Export Plug-In . SVG Version: 6.00 Build 0)  -->
<!DOCTYPE svg PUBLIC "-//W3C//DTD SVG 1.1//EN" "http://www.w3.org/Graphics/SVG/1.1/DTD/svg11.dtd">
<svg version="1.1" id="图层_1" xmlns="http://www.w3.org/2000/svg" xmlns:xlink="http://www.w3.org/1999/xlink" x="0px" y="0px"
	 width="257px" height="100px" viewBox="0 0 257 100" enable-background="new 0 0 257 100" xml:space="preserve">
<path fill-rule="evenodd" clip-rule="evenodd" fill="#6A6969" d="M232.917,0.917c10.726,0,10.172,11.852,10.172,17.348l0.582,7.365
	l1.849,24.722v19.652c-0.922,0.48-1.472,1.225-2.431,0.91c-2.044-0.672-16.871-12.041-27.974-14.268
	c-0.996-0.199-4.716,1.232-6.836,2.059c0,0-0.394-0.404-0.981-0.516c0.821-1.424,2.507-2.707,3.645-3.4
	c-0.023-0.004,0.971-0.086,1.012-0.127c0.326,0.139,1.604-0.023,1.628-0.023c0.794,0.012,8.142-2.039,9.163-2.039
	c1.975,0,3.627-0.301,5.247,2.76c-2.64-0.32-4.027-0.721-5.049-0.721c-1.02,0-6.237,0.953-8.145,1.584
	c10.489,1.787,26.082,10.238,26.117,10.254c1.234,0.518,1.773,0,1.773,0c-0.41-3.068-0.009-8.992-0.009-10.014
	c0-15.412-1.978-35.968-5.438-50.006c-0.41-1.779-6.058-1.47-7.388-1.47c-8.331,0-14.133,2.364-23.345,7.704v-1.447
	C206.46,5.647,232.661,0.917,232.917,0.917 M218.053,11.088c0.555,0.468,0.62,0.411,0.62,1.425c0,1.782-1.53,2.963-1.741,5.108
	c2.686-2.118,2.552-2.868,4.792-2.868c1.109,0,2.641,0.605,2.641,2.237c0,2.34-4.482,8.43-6.512,10.554
	c3.106,1.785,20.354,4.603,20.354,9.59c0,1.021-0.931,1.608-1.785,2.008h-1.808c-1.896-6.634-16.661-8.52-17.777-8.52
	c-1.63,0-10.565,13.833-17.793,12.585c-0.427,2.063,2.021,13.055-1.94,13.055c-2.147,0-2.042-4.938-2.042-5.496
	c0-2.59,2.254-29.319,4.638-35.602c1.003,0.869,1.066,1.419,1.066,2.433c0,1.016-2.043,16.33-2.049,17.35v5.574
	c0.356,0.332-0.192,0.277,0.821,0.277c4.477,0,11.326-6.673,14.268-11.044h-6.28c-1.015,0.057-1.065,0.866-2.085,0.866
	c-1.016,0-0.817-0.404-1.382-0.465v-1.46c1.453-1.281,4.942-1.736,5.451-1.736c1.017,0,4.682,0.816,5.697,0.816
	c1.324,0,4.865-6.217,5.52-7.184v-1.071c0,0,0.387-0.292-0.633-0.292c-2.041,0-7.427,6.101-7.938,6.101
	c-1.779,0-2.035-2.541-2.035-2.846C210.121,20.246,217.508,11.556,218.053,11.088 M217.653,37.541
	c1.631,0,10.372,2.596,10.372,4.886c0,1.015-0.467,1.563-1.343,2.402h-1.851c-0.667-6.041-7.468-3.948-11.05-5.874
	C215.14,38.367,216.632,37.541,217.653,37.541 M217.043,45.681c1.886,0,5.702,1.526,5.702,2.854c0,1.014-0.933,1.602-1.918,2.018
	c-1.077-3.023-3.95-2.053-6.636-3.828C215.064,45.742,216.022,45.681,217.043,45.681"/>
<g>
	<path fill="#6A6969" d="M162.043,41.414c0-0.287,0.126-0.791,0.247-1.279c0.136-0.541,0.264-1.054,0.264-1.406
		c0-0.817-0.306-2.575-0.659-4.61c-0.41-2.353-0.875-5.021-0.875-6.418v-5.051c0-1.154-1.329-8.097-4.612-8.097
		c-1.289,0-3.335,0.767-3.335,2.823c0,0.286-0.485,1.14-0.875,1.826c-0.569,1-0.915,1.635-0.915,2.01
		c0,0.387,0.212,0.775,0.417,1.15c0.173,0.316,0.351,0.644,0.351,0.896c0,4.279-3.118,13.092-5.868,20.867
		c-2.065,5.838-3.849,10.877-3.849,12.762c0,0.789,0.486,2.949,2.054,2.949c1.156,0,2.567-3.088,2.567-4.613
		c0-0.381-0.209-0.799-0.41-1.203c-0.176-0.35-0.356-0.711-0.356-0.969c0-0.746,0.304-1.672,0.571-2.487
		c0.189-0.574,0.356-1.085,0.408-1.488c0.249-0.03,0.533-0.031,0.831-0.033c0.689-0.001,1.402-0.004,1.875-0.382
		c3.806-2.976,8.885-6.64,9.476-6.725c0.291,0,0.34,0.054,0.366,0.083c0.012,0.015,0.031,0.036,0.057,0.057l0.718,13.02
		c0,0.137,0.021,0.326,0.052,0.594c0.115,1.01,0.354,3.113-0.05,7.557c-0.047,0.535-0.026,1.068-0.007,1.586
		c0.047,1.209,0.087,2.264-0.673,3.094c-0.685-0.447-1.403-0.984-2.16-1.547c-1.352-1.004-2.748-2.043-4.09-2.695l-0.16-0.078
		l-0.133,0.119c-0.073,0.066-0.119,0.086-0.163,0.104c-0.287,0.127-0.287,0.326-0.287,0.73c0,2.229,7.29,7.553,7.808,7.553
		c3.462,0,3.462-3.416,3.462-5.25c0-0.506,0.003-0.85,0.005-1.145c0.006-0.721,0.009-1.156-0.037-2.98L162.043,41.414z
		 M148.504,42.019c-0.009-1.886,1.154-4.43,2.765-6.047c0.767-0.77,1.993-1.688,3.485-1.688h1.116v0.834
		c0.01,1.416-2.377,3.576-4.295,5.31c-1.012,0.915-1.969,1.782-2.528,2.481h-0.543V42.019z M155.271,20.711
		c0.032-0.25,0.045-0.34,0.275-0.544c0.725,0.337,2.64,5.98,2.623,7.341v1.622c-0.906,0.153-1.611,0.232-2.725,0.356
		c-0.703,0.079-1.567,0.176-2.745,0.321c0.585-2.253,1.586-5.606,2.138-7.454c0.173-0.579,0.295-0.989,0.336-1.134
		C155.232,21.006,155.254,20.842,155.271,20.711z M159.466,38.343c0,1.517-5.14,3.85-7.023,4.582
		c1.209-1.812,3.185-3.407,4.95-4.831c0.648-0.524,1.27-1.025,1.806-1.501c0.036,0.234,0.079,0.458,0.119,0.664
		C159.394,37.654,159.466,38.027,159.466,38.343z"/>
	<path fill="#6A6969" d="M178.448,5.095l-0.059-0.011l-29.353,7.287c-0.032,0.001-0.063,0.005-0.091,0.008
		c0.596-0.935,1.389-2.065,2.157-3.163c1.773-2.53,2.494-3.604,2.481-3.976c0.036-0.208,0.145-0.915-0.023-1.255l-0.039-0.057
		c-0.093-0.105-0.266-0.23-0.564-0.23c-0.327,0-0.646,0.149-0.683,0.166l-0.078,0.058c-1.231,1.321-2.218,2.875-3.173,4.377
		c-1.51,2.377-2.936,4.622-5.219,5.954c-2.555,1.494-5.632,1.939-8.891,2.41c-3.075,0.445-6.254,0.904-9.032,2.319l-0.094,0.048
		l-0.035,0.1c-0.025,0.071-0.239,0.711,0.019,1.167l0.059,0.104l0.116,0.025c0.026,0.005,0.681,0.147,1.703,0.147
		c0.598,0,1.199-0.049,1.75-0.142c0.355,0,2.369-0.633,6.561-1.978c2.526-0.811,5.671-1.82,5.998-1.837l0.215-0.001
		c-3.447,4.628-8.053,9.651-11.243,13.053c-0.133,0.142-1.084,0.916-2.091,1.736c-4.518,3.677-4.921,4.103-4.921,4.382
		c0,0.598,0.881,2.567,2.823,2.567c2.255,0,7.507-7.069,12.586-13.905c3.534-4.757,6.873-9.25,8.165-9.85
		c6.193-2.87,13.435-3.714,19.824-4.459c1.214-0.141,2.409-0.281,3.527-0.429c1.359,0.076,2.477,0.114,3.322,0.114
		c1.121,0,1.508-0.067,1.695-0.1c0.027-0.005,0.049-0.009,0.067-0.012c1.354,0.339,2.315,0.511,2.854,0.511
		c1.313,0,2.948,0,2.948-2.184C181.732,6.191,181.088,5.614,178.448,5.095z"/>
</g>
<path fill="#6A6969" d="M119.593,83.752h-2.2c0.143-1.27,0.641-2.236,1.496-2.903c0.855-0.666,1.891-0.999,3.104-0.999
	c1.396,0,2.55,0.397,3.465,1.193s1.372,1.792,1.372,2.989c0,1.489-0.758,2.628-2.271,3.415c1.774,0.914,2.661,2.175,2.661,3.781
	c0,1.261-0.483,2.354-1.448,3.279c-0.966,0.926-2.111,1.389-3.436,1.389c-1.332,0-2.485-0.333-3.459-0.999s-1.613-1.721-1.922-3.163
	h2.247c0.489,1.561,1.49,2.341,3.004,2.341c0.772,0,1.446-0.266,2.022-0.798c0.575-0.532,0.863-1.153,0.863-1.862
	c0-0.741-0.265-1.421-0.793-2.04c-0.527-0.619-1.395-0.94-2.602-0.964v-1.868c0.923-0.016,1.646-0.242,2.17-0.679
	c0.524-0.437,0.787-0.996,0.787-1.681c0-0.7-0.244-1.294-0.733-1.781s-1.085-0.731-1.786-0.731c-0.662,0-1.189,0.165-1.584,0.496
	S119.837,83.026,119.593,83.752z"/>
<path fill="#6A6969" d="M136.83,79.542l1.565,1.083l-3.31,4.842c0.275-0.031,0.469-0.048,0.58-0.048l0.438-0.023
	c1.404,0,2.639,0.501,3.705,1.502c1.064,1.001,1.598,2.156,1.598,3.465c0,1.553-0.528,2.869-1.585,3.949
	c-1.056,1.08-2.345,1.62-3.866,1.62s-2.822-0.529-3.902-1.59s-1.621-2.34-1.621-3.838c0-1.15,0.34-2.215,1.018-3.192L136.83,79.542z
	 M139.254,90.434c0-0.915-0.329-1.705-0.987-2.371c-0.659-0.666-1.437-0.999-2.335-0.999c-0.899,0-1.684,0.337-2.354,1.011
	s-1.006,1.46-1.006,2.359c0,0.93,0.325,1.717,0.977,2.358c0.65,0.644,1.443,0.964,2.383,0.964c0.922,0,1.706-0.323,2.353-0.97
	C138.931,92.141,139.254,91.355,139.254,90.434z"/>
<path fill="#6A6969" d="M149.798,79.85c1.655,0,3.001,0.743,4.038,2.229c1.037,1.486,1.555,3.416,1.555,5.789
	c0,2.459-0.558,4.419-1.673,5.877c-1.116,1.459-2.454,2.188-4.015,2.188c-1.624,0-2.975-0.746-4.051-2.24s-1.613-3.396-1.613-5.706
	c0-2.562,0.553-4.559,1.661-5.989c1.107-1.431,2.435-2.146,3.979-2.146H149.798z M153.238,87.844c0-1.703-0.334-3.103-1.005-4.198
	c-0.67-1.096-1.513-1.644-2.53-1.644c-1.049,0-1.904,0.542-2.566,1.626s-0.993,2.513-0.993,4.286c0,1.759,0.335,3.172,1.005,4.24
	c0.67,1.067,1.537,1.602,2.602,1.602c1.025,0,1.863-0.545,2.514-1.638C152.914,91.026,153.238,89.602,153.238,87.844z"/>
<path fill="#6A6969" d="M157.563,85.668h2.334l3.539,5.3l2.446-5.3h2.122L161.414,100h-2.148l3.221-6.979L157.563,85.668z"/>
<path fill="#6A6969" d="M169.438,90.504c0-1.332,0.525-2.517,1.578-3.554c1.053-1.036,2.261-1.555,3.625-1.555
	c1.402,0,2.629,0.511,3.678,1.531c1.049,1.021,1.572,2.214,1.572,3.577c0,1.372-0.514,2.58-1.543,3.625
	c-1.029,1.044-2.217,1.566-3.565,1.566c-1.442,0-2.694-0.516-3.755-1.549C169.968,93.113,169.438,91.899,169.438,90.504z
	 M177.904,90.51c0-0.829-0.315-1.55-0.945-2.162c-0.631-0.612-1.381-0.918-2.248-0.918c-0.891,0-1.657,0.31-2.299,0.93
	c-0.644,0.62-0.965,1.36-0.965,2.222c0,0.821,0.326,1.54,0.977,2.156s1.412,0.924,2.287,0.924c0.852,0,1.598-0.315,2.235-0.947
	C177.585,92.082,177.904,91.348,177.904,90.51z"/>
<path fill="#6A6969" d="M182.121,85.668h2.058v5.498c0,1.695,0.745,2.543,2.235,2.543c0.662,0,1.186-0.227,1.572-0.681
	c0.387-0.453,0.58-1.073,0.58-1.862v-5.498h2.033v5.829c0,1.223-0.398,2.228-1.194,3.016c-0.796,0.789-1.813,1.183-3.051,1.183
	c-1.261,0-2.282-0.394-3.063-1.183c-0.78-0.788-1.171-1.816-1.171-3.086V85.668z"/>
<path fill="#6A6969" d="M194.154,82.829h2.059v2.839h2.033v1.88h-2.033v7.876h-2.059v-7.876h-1.619v-1.904h1.619V82.829z"/>
<path fill="#6A6969" d="M200.11,85.668h2.058v5.498c0,1.695,0.745,2.543,2.235,2.543c0.662,0,1.187-0.227,1.572-0.681
	c0.386-0.453,0.579-1.073,0.579-1.862v-5.498h2.035v5.829c0,1.223-0.398,2.228-1.195,3.016c-0.796,0.789-1.813,1.183-3.051,1.183
	c-1.262,0-2.281-0.394-3.063-1.183c-0.781-0.788-1.171-1.816-1.171-3.086V85.668z"/>
<path fill="#6A6969" d="M211.127,94.04c0-0.434,0.156-0.809,0.467-1.124c0.313-0.314,0.688-0.473,1.131-0.473
	c0.433,0,0.807,0.158,1.123,0.473c0.314,0.315,0.473,0.69,0.473,1.124c0,0.441-0.156,0.818-0.467,1.129
	c-0.313,0.312-0.688,0.468-1.129,0.468c-0.442,0-0.818-0.154-1.131-0.462C211.283,94.868,211.127,94.489,211.127,94.04z"/>
<path fill="#6A6969" d="M224.497,92.443v2.354c-1.049,0.599-2.065,0.898-3.052,0.898c-1.348,0-2.528-0.506-3.541-1.52
	c-1.014-1.013-1.52-2.186-1.52-3.518c0-1.514,0.504-2.77,1.514-3.767s2.274-1.496,3.796-1.496c0.906,0,1.841,0.236,2.803,0.71v2.294
	c-1.033-0.662-2.011-0.993-2.933-0.993c-0.852,0-1.597,0.3-2.235,0.898c-0.639,0.6-0.958,1.301-0.958,2.104
	c0,0.907,0.3,1.67,0.898,2.288c0.6,0.619,1.333,0.929,2.2,0.929C222.353,93.626,223.361,93.231,224.497,92.443z"/>
<path fill="#6A6969" d="M226.337,90.504c0-1.332,0.526-2.517,1.579-3.554c1.052-1.036,2.26-1.555,3.624-1.555
	c1.403,0,2.629,0.511,3.677,1.531c1.049,1.021,1.573,2.214,1.573,3.577c0,1.372-0.515,2.58-1.543,3.625
	c-1.028,1.044-2.218,1.566-3.565,1.566c-1.442,0-2.694-0.516-3.754-1.549C226.867,93.113,226.337,91.899,226.337,90.504z
	 M234.804,90.51c0-0.829-0.315-1.55-0.946-2.162s-1.379-0.918-2.246-0.918c-0.892,0-1.658,0.31-2.301,0.93s-0.963,1.36-0.963,2.222
	c0,0.821,0.324,1.54,0.975,2.156s1.414,0.924,2.289,0.924c0.852,0,1.596-0.315,2.234-0.947S234.804,91.348,234.804,90.51z"/>
<path fill="#6A6969" d="M239.186,95.424v-9.756h2.034v1.501c0.481-0.614,0.94-1.063,1.378-1.348s0.939-0.426,1.508-0.426
	c0.74,0,1.322,0.162,1.744,0.485s0.778,0.839,1.07,1.549c0.514-0.71,1.011-1.226,1.49-1.549c0.479-0.323,1.034-0.485,1.668-0.485
	c0.775,0,1.443,0.29,2.006,0.869c0.563,0.58,0.844,1.268,0.844,2.063v7.096h-2.059V88.86c0-1.08-0.533-1.62-1.602-1.62
	c-0.608,0-1.125,0.276-1.548,0.828s-0.634,1.233-0.634,2.046v5.31h-2.059v-6.291c0-1.277-0.523-1.916-1.572-1.916
	c-0.623,0-1.151,0.26-1.585,0.78s-0.65,1.163-0.65,1.928v5.499H239.186z"/>
<g>
	<rect x="0.55" fill="#FF6600" width="100" height="100"/>
</g>
<g>
	<path fill="#FFFFFF" d="M18.323,25.716h1.109c1.291,0.74,2.676,2.958,4.156,6.652c0.924,1.294,2.677,4.528,5.268,9.7
		c0.922,1.48,2.031,2.403,3.325,2.771c4.435-6.278,7.481-10.622,9.146-13.026l1.938-2.771c0.183-2.217,0.923-3.326,2.218-3.326
		h0.555c1.846,0.372,2.771,0.926,2.771,1.663c0.182,0,0.277,0.186,0.277,0.555c0,0.927-1.387,3.048-4.159,6.374l-3.601,4.158
		c-2.036,2.957-5.176,7.3-9.424,13.025c-7.207,11.458-10.547,18.825-10.81,19.678c-0.261,0.851-1.776,2.56-2.216,2.771
		c-0.441,0.213-1.387,0.279-1.941,0.279c-1.293,0-1.939-0.184-1.939-0.557c0-0.182,0.092-0.366,0.277-0.555
		c0,0-0.229-0.6-0.277-0.832c-0.049-0.23,0.092-0.553,0.277-0.553c0,0-0.203-0.203-0.277-0.277s0-0.276,0-0.276
		c0.736-0.922,1.568-1.845,2.494-2.771c5.357-9.605,9.605-16.532,12.75-20.788l-1.109-1.109c-1.109,0-2.217-0.922-3.326-2.771
		c-1.109-2.953-2.68-5.82-4.711-8.592c0-0.182-0.648-1.199-1.939-3.048l-1.664-2.218c-0.74-1.29-1.108-2.217-1.108-2.772
		C17.12,26.178,17.771,25.716,18.323,25.716z"/>
	<path fill="#FFFFFF" d="M16.938,75.58c-0.818,0-3.304,0-3.304-1.919c0-0.197,0.03-0.444,0.137-0.716
		c-0.046-0.143-0.086-0.279-0.108-0.391c-0.052-0.25-0.051-0.513,0-0.768c-0.1-0.333-0.084-0.711,0.054-1.09l0.076-0.209
		l0.139-0.174c0.723-0.905,1.551-1.83,2.463-2.748c4.924-8.825,8.967-15.469,12.028-19.773c-1.358-0.282-2.604-1.389-3.786-3.363
		l-0.064-0.106l-0.043-0.115c-1.061-2.825-2.586-5.606-4.535-8.264l-0.264-0.361v-0.168c-0.148-0.263-0.561-0.921-1.681-2.526
		l-1.741-2.338c-0.892-1.555-1.289-2.619-1.289-3.452v-0.478l0.299-0.374c1.02-1.277,2.002-1.898,3.006-1.898h1.472l0.315,0.181
		c1.582,0.908,3.071,3.191,4.686,7.181c0.979,1.421,2.697,4.594,5.25,9.685c0.506,0.801,1.054,1.38,1.658,1.752
		c4.023-5.7,6.881-9.772,8.502-12.113l1.738-2.485c0.424-3.644,2.383-4.2,3.541-4.2h0.689l0.135,0.026
		c0.834,0.169,3.158,0.64,3.735,2.234c0.247,0.311,0.407,0.749,0.407,1.322c0,0.976-0.543,2.529-4.473,7.248l-3.57,4.12
		c-2.067,3.001-5.223,7.361-9.377,12.961c-7.299,11.61-10.443,18.707-10.635,19.309c-0.357,1.166-2.104,3.201-2.93,3.599
		C18.694,75.541,17.442,75.58,16.938,75.58z M16.717,71.232l1.498,1.498c0.012-0.004,0.022-0.006,0.035-0.01
		c0.424-0.342,1.411-1.554,1.542-1.957c0.342-1.109,3.804-8.623,10.958-20l0.06-0.086c4.18-5.634,7.342-10.003,9.395-12.987
		l0.094-0.12l3.604-4.157c2.225-2.67,3.156-4.097,3.547-4.832v-0.983c-0.166-0.106-0.586-0.314-1.547-0.52h-0.416
		c-0.621,0-0.805,1.45-0.856,2.073l-0.03,0.368l-2.152,3.074c-1.703,2.464-4.783,6.85-9.149,13.03l-0.558,0.79l-0.93-0.264
		c-1.625-0.462-3.008-1.593-4.109-3.362l-0.063-0.111c-2.553-5.097-4.289-8.3-5.156-9.52l-0.096-0.133l-0.061-0.151
		c-1.545-3.852-2.67-5.273-3.311-5.795h-0.643c-0.053,0.023-0.227,0.114-0.522,0.416c0.107,0.309,0.33,0.822,0.786,1.626
		l1.641,2.188c1.35,1.937,1.865,2.759,2.063,3.218c2.001,2.764,3.581,5.656,4.701,8.604c0.773,1.258,1.55,2.006,2.095,2.006h0.563
		l2.34,2.339l-0.698,0.944c-3.088,4.177-7.345,11.122-12.653,20.64l-0.094,0.166l-0.134,0.133
		C17.833,69.986,17.249,70.613,16.717,71.232z"/>
</g>
<path fill="#FFFFFF" d="M84.018,26.304c0.037-0.006,0.673-0.07,0.822,0c0.151,0.071,1.528,2.538,1.386,3.048
	c-0.144,0.512-1.551,1.862-1.662,1.941c-0.113,0.078-0.359,0.181-0.556,0.276c-0.194,0.096-0.37,0.26-0.831,0.277
	c-0.46,0.018-0.277,0-0.277,0c-0.371,0-0.502-0.118-0.83-0.277c-0.33-0.159-2.313-1.2-5.819-1.385L73.2,30.46
	c0.182,0.373,0.276,1.018,0.276,1.941c0,0-0.001,0.533,0,0.831s0.277,2.217,0.277,2.217v0.276c0,0.187-0.256,2.023-0.277,2.495
	c-0.021,0.472,0,4.989,0,4.989c-0.186,0.74-0.276,1.294-0.276,1.663v1.386c-0.186,4.988-0.276,8.688-0.276,11.085v0.556
	c-0.187,2.957-0.276,6.097-0.276,9.422c0,0-0.08,1.298,0,1.666c0.078,0.371,0.27,0.793,0.276,1.098s-0.297,0.904-0.556,1.395
	c-0.258,0.488-1.489,1.924-1.661,1.938c-0.173,0.017-0.277,0-0.277,0c-0.739,0-1.87-1.95-1.938-2.217c-0.07-0.265,0-0.831,0-0.831
	c0-0.735,0.213-1.529,0.279-1.949c0.065-0.419-0.005-0.82-0.005-0.82c0-0.369,0.271-0.951,0.278-1.108
	c0.006-0.16,0.785-8.462,0.831-8.869c0.045-0.406,0.245-1.313,0.276-1.663c0.032-0.354,0-2.217,0-2.771v-1.385
	c0-0.369-0.369-0.996-0.276-1.664c0.09-0.667,0.54-3.196,0.555-3.603c0.015-0.406-0.038-2.125,0-2.494
	c0.036-0.369,0.277-1.109,0.277-1.664c0-0.554-0.214-1.3-0.277-1.662c-0.065-0.363,0.009-5.237,0-4.99
	c-0.01,0.249,0.091-3.325,0.277-3.325v-1.108c-5.544,0.185-12.236,1.084-12.474,1.112c-0.235,0.028-2.217,0.272-2.217,0.272
	c-0.185,0-0.832,0.096-1.939,0.278H53.8c-0.186,0-0.277-0.091-0.277-0.278v-0.276c0.182-1.664,0.832-2.495,1.94-2.495
	c1.29-0.555,3.694-1.109,7.206-1.664c0,0,11.917-1.108,13.581-1.108C76.249,27.135,83.981,26.311,84.018,26.304z"/>
<path fill="#FFFFFF" d="M70.558,74.79c-0.091,0-0.166-0.005-0.224-0.009c-1.875-0.104-3.157-3.201-3.165-3.232
	c-0.107-0.415-0.079-0.941-0.044-1.263c0.01-0.649,0.137-1.276,0.231-1.738c0.026-0.131,0.051-0.245,0.064-0.341
	c0.023-0.146,0.006-0.331-0.001-0.385l-0.021-0.117l0.002-0.105c0-0.451,0.146-0.892,0.254-1.213
	c0.013-0.037,0.023-0.07,0.035-0.104c0.101-1.188,0.818-8.754,0.827-8.813c0.026-0.248,0.089-0.578,0.153-0.93
	c0.047-0.251,0.109-0.591,0.12-0.708c0.018-0.218,0.007-1.364,0-1.918c-0.003-0.306-0.005-0.569-0.005-0.729V51.87
	c-0.014-0.052-0.037-0.134-0.059-0.198c-0.121-0.402-0.304-1.012-0.207-1.717c0.036-0.271,0.12-0.782,0.219-1.375
	c0.115-0.699,0.309-1.869,0.324-2.104c0.004-0.118,0-0.522-0.006-0.879c-0.013-0.868-0.017-1.415,0.012-1.692
	c0.021-0.219,0.073-0.456,0.131-0.706c0.059-0.265,0.139-0.625,0.139-0.82c0-0.255-0.1-0.707-0.166-1.004
	c-0.037-0.162-0.068-0.305-0.089-0.417c-0.044-0.245-0.069-0.71-0.024-4.75c0.002-0.2,0.004-0.348,0.004-0.426
	c-0.007-0.249,0.012-0.621,0.043-1.242l0.008-0.168c0.006-0.081,0.011-0.165,0.016-0.252c0.033-0.628,0.066-1.071,0.105-1.395
	c-4.246,0.226-8.802,0.776-10.705,1.021l-0.137,0.017c-0.234,0.028-2.21,0.272-2.21,0.272l-0.168,0.011
	c-0.063,0.004-0.409,0.044-1.719,0.258l-0.11,0.018h-0.389c-0.936,0-1.643-0.705-1.643-1.642l0.01-0.424
	c0.328-3.003,2.02-3.603,2.99-3.697c1.438-0.569,3.832-1.113,7.299-1.66l0.086-0.011c1.21-0.115,11.72-1.088,13.63-1.117
	c2.138-0.228,7.494-0.8,7.687-0.822v0.001c0.151-0.019,0.448-0.043,0.695-0.043c0.242,0,0.559,0.018,0.863,0.16
	c0.292,0.136,0.593,0.276,1.447,1.985c0.761,1.518,0.822,2.147,0.676,2.669c-0.307,1.089-2.18,2.68-2.196,2.692
	c-0.174,0.121-0.37,0.212-0.562,0.301c-0.058,0.026-0.114,0.053-0.168,0.079l-0.041,0.025c-0.225,0.128-0.639,0.365-1.342,0.393
	c-0.184,0.006-0.281,0.009-0.33,0.009c-0.084,0-0.162-0.006-0.24-0.018c-0.49-0.042-0.805-0.206-1.043-0.331
	c-0.041-0.023-0.088-0.048-0.143-0.073l-0.057-0.028c-1.367-0.672-3.192-1.104-5.146-1.218l-1.449,0.132
	c0.013,0.223,0.021,0.461,0.021,0.718c0,0.004-0.003,0.529,0,0.823c0.008,0.182,0.144,1.202,0.263,2.031l0.014,0.096v0.374
	c0,0.152-0.021,0.335-0.117,1.12c-0.061,0.488-0.151,1.227-0.161,1.438c-0.015,0.318-0.007,3.187,0.003,4.92v0.172l-0.042,0.167
	c-0.215,0.847-0.235,1.212-0.235,1.33l-0.002,1.437c-0.184,4.917-0.275,8.627-0.275,11.036l-0.002,0.639
	c-0.184,2.896-0.275,6.039-0.275,9.338l-0.002,0.084c-0.031,0.529-0.043,1.134-0.023,1.318c0.021,0.082,0.057,0.193,0.09,0.303
	c0.097,0.303,0.205,0.646,0.214,1.027c0.013,0.572-0.24,1.166-0.712,2.061c-0.014,0.025-1.553,2.556-2.748,2.664
	C70.723,74.787,70.631,74.79,70.558,74.79z"/>
<polygon fill="#FFFFFF" points="70.557,72.063 70.558,73.428 70.558,72.063 "/>
<path fill="#FFFFFF" d="M69.821,70.846c0.133,0.256,0.387,0.641,0.617,0.932c0.303-0.354,0.631-0.771,0.725-0.937
	c0.221-0.42,0.324-0.649,0.373-0.776c-0.019-0.067-0.045-0.151-0.064-0.217c-0.055-0.17-0.115-0.363-0.16-0.57
	c-0.097-0.448-0.07-1.323-0.031-1.996c0.002-3.325,0.095-6.495,0.277-9.424v-0.512c0-2.438,0.096-6.176,0.277-11.112v-1.361
	c0-0.458,0.091-1.055,0.275-1.826c-0.002-1.037-0.019-4.436,0.004-4.887c0.013-0.294,0.082-0.869,0.179-1.648
	c0.039-0.313,0.085-0.699,0.096-0.822v-0.142c-0.183-1.278-0.276-2.055-0.276-2.31c-0.002-0.3,0-0.84,0-0.84
	c0-0.387-0.019-0.67-0.041-0.875v2.243h-0.188c-0.045,0.695-0.082,1.572-0.092,2l-0.004-0.001c0,0.003,0,0.007,0,0.009l0.004,0.001
	L71.79,35.84c0.001,0.119,0,0.25-0.002,0.396c-0.026,2.498-0.03,3.938-0.01,4.281c0.017,0.075,0.037,0.162,0.057,0.26
	c0.1,0.44,0.234,1.043,0.234,1.602c0,0.496-0.112,1.005-0.205,1.415c-0.03,0.135-0.072,0.322-0.08,0.384
	c-0.014,0.172-0.004,0.931,0.004,1.383c0.007,0.512,0.011,0.834,0.004,1.021c-0.012,0.31-0.123,1.015-0.358,2.441
	c-0.092,0.549-0.176,1.066-0.207,1.299c-0.017,0.12,0.058,0.366,0.115,0.565c0.083,0.27,0.175,0.572,0.175,0.914v1.385
	c0,0.154,0.002,0.407,0.006,0.703c0.012,1.295,0.014,1.92-0.014,2.194c-0.021,0.241-0.083,0.571-0.152,0.954
	c-0.053,0.273-0.109,0.585-0.127,0.734c-0.041,0.381-0.791,8.369-0.824,8.801c-0.015,0.24-0.084,0.445-0.162,0.681
	c-0.027,0.089-0.08,0.238-0.104,0.334c0.023,0.24,0.044,0.631-0.021,1.048c-0.021,0.125-0.051,0.281-0.088,0.457
	c-0.078,0.389-0.178,0.871-0.178,1.277l-0.01,0.167C69.831,70.632,69.823,70.758,69.821,70.846z"/>
<path fill="#FFFFFF" d="M82.89,30.482l0.145,2.724c0.604-0.06,1.232-0.619,1.192-1.419c-0.038-0.776-0.678-1.265-1.271-1.294
	c0.011,0.005,0.021,0.01,0.031,0.014c-0.013-0.005-0.03-0.011-0.049-0.016c-0.013,0-0.025,0-0.039,0c0.01,0,0.021,0,0.034-0.001
	C82.917,30.487,82.901,30.483,82.89,30.482z"/>
<path fill="#FFFFFF" d="M55.462,31.271c-0.092,0-0.174,0.042-0.246,0.125c0.354-0.05,0.557-0.071,0.693-0.079
	c0.336-0.042,1.949-0.241,2.162-0.267l0.109-0.014c2.172-0.279,7.736-0.948,12.477-1.107l0.771-0.026l-0.285-0.607l1.935-0.193
	l3.146-0.286l0.099,0.005c1.662,0.088,4.104,0.42,6.301,1.5l0.041,0.02c0.082,0.04,0.152,0.078,0.221,0.112
	c0.023,0.012,0.047,0.026,0.068,0.037c0.039-0.001,0.095-0.003,0.173-0.007c0.032-0.001,0.045-0.003,0.047-0.003
	c0-0.003,0.021-0.018,0.041-0.029c0.063-0.037,0.128-0.072,0.19-0.104c0.072-0.036,0.149-0.072,0.228-0.108
	c0.049-0.022,0.099-0.044,0.142-0.065c0.245-0.225,0.748-0.744,1.022-1.085c-0.147-0.388-0.448-0.988-0.69-1.422
	c-0.354,0.04-1.763,0.191-7.711,0.826L76.249,28.5c-1.309,0-10.08,0.789-13.411,1.099c-4.188,0.663-6.029,1.215-6.837,1.562
	l-0.258,0.111L55.462,31.271L55.462,31.271z"/>
</svg>
