<?xml version="1.0" encoding="utf-8"?>
<!-- Generator: Adobe Illustrator 15.0.0, SVG Export Plug-In . SVG Version: 6.00 Build 0)  -->
<!DOCTYPE svg PUBLIC "-//W3C//DTD SVG 1.1//EN" "http://www.w3.org/Graphics/SVG/1.1/DTD/svg11.dtd">
<svg version="1.1" id="图层_1" xmlns="http://www.w3.org/2000/svg" xmlns:xlink="http://www.w3.org/1999/xlink" x="0px" y="0px"
	 width="223px" height="100px" viewBox="0 0 223 100" enable-background="new 0 0 223 100" xml:space="preserve">
<path fill="#6A6969" d="M196.483,16.013c7.278,0,6.902,8.042,6.902,11.772l0.396,4.998l1.255,16.777v13.335
	c-0.626,0.326-0.999,0.831-1.65,0.617c-1.387-0.455-11.448-8.17-18.982-9.681c-0.676-0.136-3.201,0.835-4.639,1.396
	c0,0-0.268-0.273-0.666-0.35c0.558-0.965,1.7-1.836,2.474-2.307c-0.016-0.003,0.659-0.059,0.688-0.087
	c0.22,0.094,1.088-0.017,1.104-0.017c0.54,0.01,5.525-1.383,6.219-1.383c1.341,0,2.461-0.204,3.56,1.873
	c-1.791-0.217-2.732-0.49-3.426-0.49c-0.691,0-4.232,0.648-5.527,1.076c7.118,1.212,17.699,6.947,17.723,6.958
	c0.838,0.353,1.204,0,1.204,0c-0.278-2.081-0.007-6.102-0.007-6.796c0-10.458-1.341-24.407-3.689-33.933
	c-0.279-1.208-4.111-0.998-5.014-0.998c-5.653,0-9.591,1.604-15.842,5.228v-0.982C178.53,19.222,196.31,16.013,196.483,16.013
	 M186.396,22.915c0.377,0.317,0.421,0.279,0.421,0.967c0,1.209-1.039,2.011-1.182,3.466c1.823-1.437,1.732-1.946,3.253-1.946
	c0.753,0,1.791,0.411,1.791,1.518c0,1.588-3.04,5.72-4.418,7.162c2.107,1.211,13.812,3.124,13.812,6.508
	c0,0.693-0.632,1.091-1.211,1.363h-1.228c-1.287-4.502-11.306-5.782-12.063-5.782c-1.107,0-7.17,9.387-12.075,8.541
	c-0.288,1.399,1.372,8.858-1.315,8.858c-1.457,0-1.386-3.352-1.386-3.729c0-1.758,1.53-19.896,3.147-24.159
	c0.68,0.59,0.723,0.963,0.723,1.651c0,0.689-1.387,11.082-1.391,11.773v3.783c0.242,0.226-0.13,0.188,0.558,0.188
	c3.038,0,7.686-4.529,9.684-7.495h-4.264c-0.688,0.039-0.723,0.588-1.415,0.588c-0.688,0-0.554-0.274-0.938-0.315v-0.991
	c0.986-0.87,3.354-1.178,3.7-1.178c0.69,0,3.176,0.554,3.864,0.554c0.899,0,3.303-4.219,3.746-4.875v-0.727
	c0,0,0.263-0.198-0.429-0.198c-1.386,0-5.04,4.14-5.388,4.14c-1.206,0-1.38-1.724-1.38-1.931
	C181.015,29.129,186.026,23.232,186.396,22.915 M186.125,40.866c1.107,0,7.039,1.761,7.039,3.315c0,0.688-0.315,1.061-0.911,1.63
	h-1.256c-0.453-4.1-5.068-2.68-7.499-3.985C184.421,41.426,185.434,40.866,186.125,40.866 M185.712,46.39
	c1.28,0,3.87,1.035,3.87,1.937c0,0.688-0.634,1.087-1.303,1.369c-0.73-2.052-2.681-1.393-4.503-2.598
	C184.369,46.43,185.018,46.39,185.712,46.39"/>
<g>
	<path fill="#6A6969" d="M148.39,43.494c0-0.195,0.085-0.537,0.167-0.868c0.093-0.367,0.181-0.715,0.181-0.954
		c0-0.554-0.208-1.747-0.449-3.128c-0.277-1.597-0.593-3.407-0.593-4.355V30.76c0-0.783-0.901-5.494-3.13-5.494
		c-0.874,0-2.264,0.521-2.264,1.916c0,0.194-0.329,0.773-0.593,1.239c-0.388,0.679-0.621,1.109-0.621,1.364
		c0,0.262,0.145,0.525,0.283,0.78c0.117,0.215,0.237,0.438,0.237,0.608c0,2.904-2.115,8.885-3.981,14.161
		c-1.401,3.961-2.612,7.381-2.612,8.659c0,0.537,0.331,2.002,1.395,2.002c0.784,0,1.742-2.095,1.742-3.13
		c0-0.259-0.144-0.543-0.279-0.816c-0.119-0.237-0.241-0.482-0.241-0.657c0-0.507,0.206-1.135,0.387-1.688
		c0.13-0.39,0.242-0.736,0.278-1.011c0.169-0.02,0.362-0.02,0.563-0.022c0.467,0,0.951-0.002,1.272-0.259
		c2.582-2.02,6.028-4.506,6.43-4.563c0.198,0,0.23,0.036,0.249,0.056c0.008,0.011,0.021,0.025,0.039,0.039l0.486,8.835
		c0,0.092,0.014,0.221,0.036,0.402c0.078,0.687,0.239,2.113-0.035,5.129c-0.031,0.363-0.018,0.725-0.004,1.076
		c0.031,0.82,0.059,1.537-0.458,2.1c-0.464-0.304-0.951-0.668-1.465-1.051c-0.917-0.681-1.865-1.386-2.776-1.828l-0.108-0.052
		l-0.09,0.081c-0.049,0.043-0.081,0.057-0.11,0.069c-0.194,0.085-0.194,0.222-0.194,0.495c0,1.513,4.946,5.126,5.298,5.126
		c2.349,0,2.349-2.317,2.349-3.563c0-0.343,0.003-0.576,0.004-0.776c0.005-0.489,0.006-0.784-0.024-2.021L148.39,43.494z
		 M139.202,43.904c-0.007-1.28,0.783-3.006,1.876-4.103c0.521-0.523,1.352-1.146,2.365-1.146h0.757v0.566
		c0.007,0.96-1.613,2.426-2.914,3.603c-0.688,0.621-1.336,1.209-1.716,1.684h-0.368V43.904z M143.794,29.445
		c0.021-0.17,0.03-0.231,0.186-0.37c0.493,0.228,1.793,4.058,1.781,4.982v1.1c-0.614,0.104-1.094,0.157-1.851,0.241
		c-0.477,0.055-1.063,0.12-1.862,0.219c0.397-1.529,1.077-3.805,1.451-5.059c0.117-0.393,0.2-0.671,0.228-0.769
		C143.768,29.645,143.782,29.534,143.794,29.445z M146.641,41.41c0,1.03-3.487,2.612-4.766,3.109
		c0.819-1.229,2.161-2.312,3.358-3.278c0.439-0.355,0.862-0.696,1.226-1.019c0.023,0.159,0.054,0.311,0.081,0.45
		C146.592,40.942,146.641,41.196,146.641,41.41z"/>
	<path fill="#6A6969" d="M159.521,18.848l-0.041-0.007l-19.917,4.944c-0.023,0-0.044,0.004-0.063,0.006
		c0.404-0.635,0.942-1.402,1.463-2.147c1.204-1.716,1.693-2.445,1.684-2.698c0.025-0.141,0.1-0.621-0.015-0.852l-0.025-0.038
		c-0.064-0.072-0.182-0.157-0.385-0.157c-0.221,0-0.438,0.102-0.463,0.113l-0.053,0.039c-0.835,0.897-1.504,1.951-2.153,2.97
		c-1.024,1.613-1.992,3.137-3.542,4.041c-1.733,1.014-3.82,1.315-6.031,1.635c-2.088,0.302-4.245,0.614-6.13,1.574l-0.064,0.032
		l-0.023,0.068c-0.018,0.048-0.163,0.482,0.013,0.792l0.04,0.071l0.078,0.017c0.018,0.003,0.463,0.1,1.156,0.1
		c0.405,0,0.813-0.033,1.188-0.096c0.241,0,1.607-0.43,4.452-1.342c1.715-0.55,3.848-1.235,4.07-1.247l0.146,0
		c-2.338,3.14-5.465,6.549-7.63,8.857c-0.09,0.097-0.735,0.622-1.418,1.178c-3.065,2.496-3.339,2.784-3.339,2.974
		c0,0.407,0.597,1.742,1.915,1.742c1.53,0,5.095-4.796,8.541-9.436c2.397-3.228,4.664-6.277,5.54-6.684
		c4.203-1.947,9.117-2.52,13.452-3.025c0.823-0.096,1.635-0.191,2.394-0.292c0.923,0.052,1.682,0.077,2.255,0.077
		c0.761,0,1.023-0.045,1.149-0.067c0.02-0.003,0.034-0.006,0.046-0.008c0.919,0.229,1.571,0.346,1.937,0.346
		c0.891,0,2.001,0,2.001-1.482C161.751,19.592,161.313,19.2,159.521,18.848z"/>
</g>
<path fill="#6A6969" d="M115.605,73.182h-1.627c0.105-0.939,0.474-1.654,1.106-2.147c0.632-0.492,1.398-0.739,2.296-0.739
	c1.032,0,1.886,0.294,2.563,0.883c0.678,0.588,1.016,1.325,1.016,2.21c0,1.103-0.562,1.944-1.68,2.526
	c1.312,0.676,1.968,1.609,1.968,2.797c0,0.933-0.357,1.741-1.071,2.425c-0.714,0.686-1.562,1.028-2.541,1.028
	c-0.986,0-1.838-0.247-2.559-0.74c-0.721-0.492-1.193-1.272-1.422-2.339h1.662c0.361,1.155,1.102,1.731,2.222,1.731
	c0.571,0,1.069-0.197,1.496-0.59c0.425-0.394,0.639-0.853,0.639-1.377c0-0.549-0.196-1.052-0.587-1.51
	c-0.391-0.457-1.032-0.694-1.925-0.712v-1.383c0.683-0.012,1.217-0.179,1.606-0.503c0.388-0.321,0.582-0.736,0.582-1.242
	c0-0.518-0.181-0.958-0.543-1.317c-0.361-0.36-0.802-0.541-1.32-0.541c-0.49,0-0.88,0.122-1.172,0.367
	C116.021,72.253,115.786,72.644,115.605,73.182z"/>
<path fill="#6A6969" d="M128.355,70.066l1.157,0.802l-2.448,3.581c0.203-0.022,0.348-0.035,0.429-0.035l0.325-0.017
	c1.037,0,1.951,0.369,2.739,1.111c0.787,0.739,1.182,1.595,1.182,2.563c0,1.148-0.39,2.122-1.173,2.921
	c-0.78,0.799-1.733,1.197-2.858,1.197c-1.126,0-2.088-0.391-2.887-1.175c-0.799-0.785-1.199-1.731-1.199-2.84
	c0-0.851,0.252-1.638,0.754-2.36L128.355,70.066z M130.148,78.124c0-0.677-0.244-1.262-0.729-1.754
	c-0.488-0.493-1.063-0.739-1.729-0.739s-1.245,0.248-1.74,0.748c-0.495,0.498-0.744,1.08-0.744,1.745
	c0,0.687,0.239,1.269,0.722,1.744c0.481,0.476,1.067,0.713,1.763,0.713c0.682,0,1.263-0.239,1.741-0.718
	C129.91,79.386,130.148,78.805,130.148,78.124z"/>
<path fill="#6A6969" d="M137.947,70.295c1.224,0,2.22,0.55,2.986,1.649c0.768,1.098,1.15,2.526,1.15,4.281
	c0,1.819-0.413,3.269-1.237,4.348c-0.826,1.078-1.815,1.618-2.97,1.618c-1.201,0-2.2-0.552-2.996-1.657
	c-0.797-1.104-1.193-2.512-1.193-4.221c0-1.896,0.409-3.372,1.229-4.43c0.818-1.059,1.801-1.588,2.943-1.588L137.947,70.295
	L137.947,70.295z M140.492,76.207c0-1.259-0.248-2.295-0.745-3.104c-0.495-0.811-1.118-1.216-1.87-1.216
	c-0.776,0-1.409,0.4-1.898,1.202c-0.489,0.803-0.733,1.859-0.733,3.171c0,1.301,0.247,2.347,0.742,3.137
	c0.496,0.789,1.137,1.185,1.925,1.185c0.758,0,1.378-0.403,1.859-1.212C140.252,78.562,140.492,77.508,140.492,76.207z"/>
<path fill="#6A6969" d="M143.69,74.598h1.726l2.618,3.922l1.81-3.922h1.569l-4.874,10.602h-1.589l2.382-5.162L143.69,74.598z"/>
<path fill="#6A6969" d="M152.474,78.175c0-0.984,0.389-1.861,1.167-2.629c0.779-0.766,1.674-1.149,2.682-1.149
	c1.037,0,1.944,0.378,2.72,1.132c0.777,0.756,1.163,1.639,1.163,2.646c0,1.016-0.379,1.909-1.141,2.683
	c-0.762,0.771-1.64,1.157-2.637,1.157c-1.067,0-1.992-0.382-2.778-1.146C152.866,80.105,152.474,79.207,152.474,78.175z
	 M158.736,78.18c0-0.612-0.233-1.146-0.699-1.6c-0.467-0.452-1.021-0.679-1.663-0.679c-0.658,0-1.225,0.229-1.7,0.688
	c-0.477,0.46-0.714,1.007-0.714,1.645c0,0.606,0.242,1.139,0.723,1.595c0.481,0.455,1.045,0.684,1.691,0.684
	c0.63,0,1.182-0.232,1.653-0.701C158.5,79.343,158.736,78.8,158.736,78.18z"/>
<path fill="#6A6969" d="M161.855,74.598h1.522v4.067c0,1.254,0.551,1.881,1.653,1.881c0.489,0,0.876-0.167,1.163-0.504
	c0.285-0.335,0.428-0.794,0.428-1.377v-4.067h1.505v4.312c0,0.905-0.295,1.648-0.885,2.231c-0.588,0.584-1.341,0.874-2.256,0.874
	c-0.934,0-1.688-0.29-2.266-0.874c-0.576-0.583-0.866-1.343-0.866-2.281L161.855,74.598L161.855,74.598z"/>
<path fill="#6A6969" d="M170.756,72.498h1.523v2.1h1.503v1.391h-1.503v5.826h-1.523v-5.826h-1.198v-1.407h1.198V72.498z"/>
<path fill="#6A6969" d="M175.161,74.598h1.522v4.067c0,1.254,0.551,1.881,1.652,1.881c0.49,0,0.878-0.167,1.163-0.504
	c0.286-0.335,0.429-0.794,0.429-1.377v-4.067h1.505v4.312c0,0.905-0.294,1.648-0.883,2.231c-0.591,0.584-1.342,0.874-2.258,0.874
	c-0.934,0-1.687-0.29-2.267-0.874c-0.576-0.583-0.864-1.343-0.864-2.281V74.598L175.161,74.598z"/>
<path fill="#6A6969" d="M183.31,80.791c0-0.322,0.116-0.6,0.346-0.832c0.232-0.232,0.509-0.35,0.836-0.35
	c0.321,0,0.598,0.117,0.831,0.35c0.232,0.232,0.35,0.51,0.35,0.832c0,0.325-0.114,0.604-0.346,0.835
	c-0.23,0.23-0.509,0.346-0.835,0.346s-0.604-0.114-0.836-0.341C183.426,81.403,183.31,81.122,183.31,80.791z"/>
<path fill="#6A6969" d="M193.199,79.609v1.741c-0.776,0.443-1.527,0.664-2.257,0.664c-0.997,0-1.87-0.373-2.619-1.124
	c-0.75-0.749-1.125-1.617-1.125-2.603c0-1.12,0.373-2.049,1.12-2.786s1.682-1.105,2.808-1.105c0.67,0,1.362,0.174,2.073,0.523v1.698
	c-0.765-0.49-1.486-0.735-2.169-0.735c-0.631,0-1.182,0.223-1.653,0.664c-0.474,0.444-0.709,0.962-0.709,1.558
	c0,0.671,0.223,1.234,0.665,1.691c0.443,0.458,0.984,0.688,1.626,0.688C191.613,80.484,192.359,80.191,193.199,79.609z"/>
<path fill="#6A6969" d="M194.56,78.175c0-0.984,0.39-1.861,1.169-2.629c0.778-0.766,1.672-1.149,2.681-1.149
	c1.038,0,1.944,0.378,2.719,1.132c0.776,0.756,1.164,1.639,1.164,2.646c0,1.016-0.381,1.909-1.141,2.683
	c-0.761,0.771-1.641,1.157-2.638,1.157c-1.066,0-1.992-0.382-2.777-1.146C194.952,80.105,194.56,79.207,194.56,78.175z
	 M200.823,78.18c0-0.612-0.233-1.146-0.7-1.6c-0.467-0.452-1.02-0.679-1.661-0.679c-0.659,0-1.226,0.229-1.702,0.688
	c-0.476,0.46-0.712,1.007-0.712,1.645c0,0.606,0.24,1.139,0.722,1.595c0.481,0.455,1.045,0.684,1.692,0.684
	c0.63,0,1.181-0.232,1.652-0.701C200.587,79.343,200.823,78.8,200.823,78.18z"/>
<path fill="#6A6969" d="M204.063,81.814v-7.217h1.506v1.111c0.355-0.455,0.694-0.787,1.019-0.998
	c0.324-0.21,0.694-0.314,1.115-0.314c0.547,0,0.979,0.119,1.29,0.358s0.575,0.621,0.792,1.146c0.38-0.525,0.748-0.907,1.103-1.146
	c0.353-0.239,0.764-0.358,1.232-0.358c0.574,0,1.067,0.215,1.484,0.643c0.416,0.429,0.624,0.938,0.624,1.525v5.249h-1.522v-4.854
	c0-0.799-0.395-1.198-1.185-1.198c-0.45,0-0.832,0.204-1.146,0.613c-0.313,0.408-0.469,0.911-0.469,1.512v3.929h-1.523v-4.653
	c0-0.944-0.387-1.417-1.162-1.417c-0.462,0-0.853,0.192-1.173,0.577c-0.321,0.385-0.481,0.859-0.481,1.426v4.067H204.063z"/>
<g>
	<rect x="0.55" fill="#FF6600" width="100" height="100"/>
</g>
<g>
	<path fill="#FFFFFF" d="M18.323,25.716h1.109c1.291,0.74,2.676,2.958,4.156,6.652c0.924,1.294,2.677,4.528,5.268,9.7
		c0.922,1.48,2.031,2.403,3.325,2.771c4.435-6.278,7.481-10.622,9.146-13.026l1.938-2.771c0.183-2.217,0.923-3.326,2.218-3.326
		h0.555c1.846,0.372,2.771,0.926,2.771,1.663c0.182,0,0.277,0.186,0.277,0.555c0,0.927-1.387,3.048-4.159,6.374l-3.601,4.158
		c-2.036,2.957-5.176,7.3-9.424,13.025c-7.207,11.458-10.547,18.825-10.81,19.678c-0.261,0.851-1.776,2.56-2.216,2.771
		c-0.441,0.213-1.387,0.279-1.941,0.279c-1.293,0-1.939-0.184-1.939-0.557c0-0.182,0.092-0.366,0.277-0.555
		c0,0-0.229-0.601-0.277-0.832c-0.049-0.23,0.092-0.553,0.277-0.553c0,0-0.203-0.203-0.277-0.277c-0.074-0.074,0-0.276,0-0.276
		c0.736-0.922,1.568-1.845,2.494-2.771c5.357-9.605,9.605-16.532,12.75-20.789l-1.109-1.109c-1.109,0-2.217-0.922-3.326-2.771
		c-1.109-2.953-2.68-5.82-4.711-8.592c0-0.182-0.648-1.199-1.939-3.048l-1.664-2.218c-0.74-1.29-1.108-2.217-1.108-2.772
		C17.12,26.178,17.771,25.716,18.323,25.716z"/>
	<path fill="#FFFFFF" d="M16.938,75.58c-0.818,0-3.304,0-3.304-1.919c0-0.197,0.03-0.444,0.137-0.716
		c-0.046-0.143-0.086-0.279-0.108-0.391c-0.052-0.25-0.051-0.514,0-0.769c-0.1-0.333-0.084-0.711,0.054-1.091l0.076-0.209
		l0.139-0.174c0.723-0.904,1.551-1.83,2.463-2.748c4.924-8.824,8.967-15.469,12.028-19.772c-1.358-0.282-2.604-1.389-3.786-3.363
		l-0.064-0.106l-0.043-0.115c-1.061-2.825-2.586-5.606-4.535-8.264l-0.264-0.361v-0.168c-0.148-0.263-0.561-0.921-1.681-2.526
		l-1.741-2.338c-0.892-1.555-1.289-2.619-1.289-3.452v-0.478l0.299-0.374c1.02-1.277,2.002-1.898,3.006-1.898h1.472l0.315,0.181
		c1.582,0.908,3.071,3.191,4.686,7.181c0.979,1.421,2.697,4.594,5.25,9.685c0.506,0.801,1.054,1.38,1.658,1.752
		c4.023-5.7,6.881-9.772,8.502-12.113l1.738-2.485c0.424-3.644,2.383-4.2,3.541-4.2h0.689l0.135,0.026
		c0.834,0.169,3.158,0.64,3.735,2.234c0.247,0.311,0.407,0.749,0.407,1.322c0,0.976-0.543,2.529-4.473,7.248l-3.57,4.12
		c-2.067,3.001-5.223,7.361-9.377,12.962C25.734,63.871,22.59,70.968,22.398,71.57c-0.357,1.166-2.104,3.201-2.93,3.599
		C18.694,75.541,17.442,75.58,16.938,75.58z M16.717,71.232l1.498,1.498c0.012-0.004,0.022-0.006,0.035-0.01
		c0.424-0.343,1.411-1.555,1.542-1.957c0.342-1.109,3.804-8.623,10.958-20l0.06-0.086c4.18-5.635,7.342-10.004,9.395-12.988
		l0.094-0.12l3.604-4.157c2.225-2.67,3.156-4.097,3.547-4.832v-0.983c-0.166-0.106-0.586-0.314-1.547-0.52h-0.416
		c-0.621,0-0.805,1.45-0.856,2.073l-0.03,0.368l-2.152,3.074c-1.703,2.464-4.783,6.85-9.149,13.03l-0.558,0.79l-0.93-0.264
		c-1.625-0.462-3.008-1.593-4.109-3.362l-0.063-0.111c-2.553-5.097-4.289-8.3-5.156-9.52l-0.096-0.133l-0.061-0.151
		c-1.545-3.852-2.67-5.273-3.311-5.795h-0.643c-0.053,0.023-0.227,0.114-0.522,0.416c0.107,0.309,0.33,0.822,0.786,1.626
		l1.641,2.188c1.35,1.937,1.865,2.759,2.063,3.218c2.001,2.764,3.581,5.656,4.701,8.604c0.773,1.258,1.55,2.006,2.095,2.006H29.7
		l2.34,2.339l-0.698,0.944c-3.088,4.178-7.345,11.122-12.653,20.641l-0.094,0.166l-0.134,0.133
		C17.833,69.986,17.249,70.613,16.717,71.232z"/>
</g>
<path fill="#FFFFFF" d="M84.018,26.304c0.037-0.006,0.673-0.07,0.822,0c0.151,0.071,1.528,2.538,1.386,3.048
	c-0.144,0.512-1.551,1.862-1.662,1.941c-0.113,0.078-0.359,0.181-0.556,0.276c-0.194,0.096-0.37,0.26-0.831,0.277
	c-0.46,0.018-0.277,0-0.277,0c-0.371,0-0.502-0.118-0.83-0.277c-0.33-0.159-2.313-1.2-5.819-1.385L73.2,30.46
	c0.182,0.373,0.276,1.018,0.276,1.941c0,0-0.001,0.533,0,0.831s0.277,2.217,0.277,2.217v0.276c0,0.187-0.256,2.023-0.277,2.495
	c-0.021,0.472,0,4.989,0,4.989c-0.186,0.74-0.276,1.294-0.276,1.663v1.386c-0.186,4.988-0.276,8.688-0.276,11.085v0.556
	c-0.187,2.957-0.276,6.098-0.276,9.422c0,0-0.08,1.299,0,1.666c0.078,0.371,0.27,0.793,0.276,1.099
	c0.006,0.306-0.297,0.903-0.556,1.396c-0.258,0.487-1.489,1.924-1.661,1.938c-0.173,0.018-0.277,0-0.277,0
	c-0.739,0-1.87-1.949-1.938-2.217c-0.07-0.266,0-0.831,0-0.831c0-0.735,0.213-1.529,0.279-1.949
	c0.065-0.419-0.005-0.819-0.005-0.819c0-0.369,0.271-0.951,0.278-1.108c0.006-0.16,0.785-8.462,0.831-8.869
	c0.045-0.406,0.245-1.313,0.276-1.663c0.032-0.354,0-2.217,0-2.771v-1.385c0-0.369-0.369-0.996-0.276-1.664
	c0.09-0.667,0.54-3.196,0.555-3.603c0.015-0.406-0.038-2.125,0-2.494c0.036-0.369,0.277-1.109,0.277-1.664
	c0-0.554-0.214-1.3-0.277-1.662c-0.065-0.363,0.009-5.237,0-4.99c-0.01,0.249,0.091-3.325,0.277-3.325v-1.108
	c-5.544,0.185-12.236,1.084-12.474,1.112c-0.235,0.028-2.217,0.272-2.217,0.272c-0.185,0-0.832,0.096-1.939,0.278H53.8
	c-0.186,0-0.277-0.091-0.277-0.278v-0.276c0.182-1.664,0.832-2.495,1.94-2.495c1.29-0.555,3.694-1.109,7.206-1.664
	c0,0,11.917-1.108,13.581-1.108C76.249,27.135,83.981,26.311,84.018,26.304z"/>
<path fill="#FFFFFF" d="M70.558,74.79c-0.091,0-0.166-0.005-0.224-0.009c-1.875-0.104-3.157-3.201-3.165-3.232
	c-0.107-0.415-0.079-0.941-0.044-1.263c0.01-0.649,0.137-1.276,0.231-1.738c0.026-0.131,0.051-0.245,0.064-0.341
	c0.023-0.146,0.006-0.331-0.001-0.385l-0.021-0.117L67.4,67.6c0-0.451,0.146-0.892,0.254-1.213c0.013-0.037,0.023-0.07,0.035-0.104
	c0.101-1.188,0.818-8.754,0.827-8.813c0.026-0.248,0.089-0.578,0.153-0.931c0.047-0.251,0.109-0.591,0.12-0.708
	c0.018-0.219,0.007-1.364,0-1.918c-0.003-0.307-0.005-0.568-0.005-0.729V51.87c-0.014-0.052-0.037-0.134-0.059-0.198
	c-0.121-0.402-0.304-1.012-0.207-1.717c0.036-0.271,0.12-0.782,0.219-1.375c0.115-0.699,0.309-1.869,0.324-2.104
	c0.004-0.118,0-0.522-0.006-0.879c-0.013-0.868-0.017-1.415,0.012-1.692c0.021-0.219,0.073-0.456,0.131-0.706
	c0.059-0.265,0.139-0.625,0.139-0.82c0-0.255-0.1-0.707-0.166-1.004c-0.037-0.162-0.068-0.305-0.089-0.417
	c-0.044-0.245-0.069-0.71-0.024-4.75c0.002-0.2,0.004-0.348,0.004-0.426c-0.007-0.249,0.012-0.621,0.043-1.242l0.008-0.168
	c0.006-0.081,0.011-0.165,0.016-0.252c0.033-0.628,0.066-1.071,0.105-1.395c-4.246,0.226-8.802,0.776-10.705,1.021l-0.137,0.017
	c-0.234,0.028-2.21,0.272-2.21,0.272l-0.168,0.011c-0.063,0.004-0.409,0.044-1.719,0.258l-0.11,0.018h-0.389
	c-0.936,0-1.643-0.705-1.643-1.642l0.01-0.424c0.328-3.003,2.02-3.603,2.99-3.697c1.438-0.569,3.832-1.113,7.299-1.66l0.086-0.011
	c1.21-0.115,11.72-1.088,13.63-1.117c2.138-0.228,7.494-0.8,7.687-0.822v0.001c0.151-0.019,0.448-0.043,0.695-0.043
	c0.242,0,0.559,0.018,0.863,0.16c0.292,0.136,0.593,0.276,1.447,1.985c0.761,1.518,0.822,2.147,0.676,2.669
	c-0.307,1.089-2.18,2.68-2.196,2.692c-0.174,0.121-0.37,0.212-0.562,0.301c-0.058,0.026-0.114,0.053-0.168,0.079l-0.041,0.025
	c-0.225,0.128-0.639,0.365-1.342,0.393c-0.184,0.006-0.281,0.009-0.33,0.009c-0.084,0-0.162-0.006-0.24-0.018
	c-0.49-0.042-0.805-0.206-1.043-0.331c-0.041-0.023-0.088-0.048-0.143-0.073l-0.057-0.028c-1.367-0.672-3.192-1.104-5.146-1.218
	l-1.449,0.132c0.013,0.223,0.021,0.461,0.021,0.718c0,0.004-0.003,0.529,0,0.823c0.008,0.182,0.144,1.202,0.263,2.031l0.014,0.096
	v0.374c0,0.152-0.021,0.335-0.117,1.12c-0.061,0.488-0.151,1.227-0.161,1.438c-0.015,0.318-0.007,3.187,0.003,4.92v0.172
	L74.8,43.543c-0.215,0.847-0.235,1.212-0.235,1.33l-0.002,1.437c-0.184,4.917-0.275,8.627-0.275,11.036l-0.002,0.639
	c-0.184,2.896-0.275,6.039-0.275,9.338l-0.002,0.084c-0.031,0.529-0.043,1.135-0.023,1.318c0.021,0.082,0.057,0.193,0.09,0.303
	c0.097,0.304,0.205,0.646,0.214,1.027c0.013,0.572-0.24,1.166-0.712,2.062c-0.014,0.024-1.553,2.556-2.748,2.663
	C70.723,74.787,70.631,74.79,70.558,74.79z"/>
<polygon fill="#FFFFFF" points="70.557,72.063 70.558,73.428 70.558,72.063 "/>
<path fill="#FFFFFF" d="M69.821,70.846c0.133,0.256,0.387,0.641,0.617,0.932c0.303-0.354,0.631-0.771,0.725-0.937
	c0.221-0.42,0.324-0.649,0.373-0.776c-0.019-0.066-0.045-0.15-0.064-0.217c-0.055-0.17-0.115-0.363-0.16-0.57
	c-0.097-0.447-0.07-1.322-0.031-1.996c0.002-3.324,0.095-6.494,0.277-9.424v-0.512c0-2.438,0.096-6.176,0.277-11.112v-1.361
	c0-0.458,0.091-1.055,0.275-1.826c-0.002-1.037-0.019-4.436,0.004-4.887c0.013-0.294,0.082-0.869,0.179-1.648
	c0.039-0.313,0.085-0.699,0.096-0.822v-0.142c-0.183-1.278-0.276-2.055-0.276-2.31c-0.002-0.3,0-0.84,0-0.84
	c0-0.387-0.019-0.67-0.041-0.875v2.243h-0.188c-0.045,0.695-0.082,1.572-0.092,2l-0.004-0.001c0,0.003,0,0.007,0,0.009l0.004,0.001
	L71.79,35.84c0.001,0.119,0,0.25-0.002,0.396c-0.026,2.498-0.03,3.938-0.01,4.281c0.017,0.075,0.037,0.162,0.057,0.26
	c0.1,0.44,0.234,1.043,0.234,1.602c0,0.496-0.112,1.005-0.205,1.415c-0.03,0.135-0.072,0.322-0.08,0.384
	c-0.014,0.172-0.004,0.931,0.004,1.383c0.007,0.512,0.011,0.834,0.004,1.021c-0.012,0.31-0.123,1.015-0.358,2.441
	c-0.092,0.549-0.176,1.066-0.207,1.299c-0.017,0.12,0.058,0.366,0.115,0.565c0.083,0.27,0.175,0.572,0.175,0.914v1.385
	c0,0.154,0.002,0.407,0.006,0.703c0.012,1.295,0.014,1.92-0.014,2.194c-0.021,0.241-0.083,0.571-0.152,0.954
	c-0.053,0.273-0.109,0.585-0.127,0.734c-0.041,0.381-0.791,8.369-0.824,8.801c-0.015,0.24-0.084,0.445-0.162,0.681
	c-0.027,0.089-0.08,0.238-0.104,0.334c0.023,0.24,0.044,0.631-0.021,1.048c-0.021,0.125-0.051,0.281-0.088,0.457
	c-0.078,0.389-0.178,0.871-0.178,1.277l-0.01,0.167C69.831,70.632,69.823,70.758,69.821,70.846z"/>
<path fill="#FFFFFF" d="M82.89,30.482l0.145,2.724c0.604-0.06,1.232-0.619,1.192-1.419c-0.038-0.776-0.678-1.265-1.271-1.294
	c0.011,0.005,0.021,0.01,0.031,0.014c-0.013-0.005-0.03-0.011-0.049-0.016c-0.013,0-0.025,0-0.039,0c0.01,0,0.021,0,0.034-0.001
	C82.917,30.487,82.901,30.483,82.89,30.482z"/>
<path fill="#FFFFFF" d="M55.462,31.271c-0.092,0-0.174,0.042-0.246,0.125c0.354-0.05,0.557-0.071,0.693-0.079
	c0.336-0.042,1.949-0.241,2.162-0.267l0.109-0.014c2.172-0.279,7.736-0.948,12.477-1.107l0.771-0.026l-0.285-0.607l1.935-0.193
	l3.146-0.286l0.099,0.005c1.662,0.088,4.104,0.42,6.301,1.5l0.041,0.02c0.082,0.04,0.152,0.078,0.221,0.112
	c0.023,0.012,0.047,0.026,0.068,0.037c0.039-0.001,0.095-0.003,0.173-0.007c0.032-0.001,0.045-0.003,0.047-0.003
	c0-0.003,0.021-0.018,0.041-0.029c0.063-0.037,0.128-0.072,0.19-0.104c0.072-0.036,0.149-0.072,0.228-0.108
	c0.049-0.022,0.099-0.044,0.142-0.065c0.245-0.225,0.748-0.744,1.022-1.085c-0.147-0.388-0.448-0.988-0.69-1.422
	c-0.354,0.04-1.763,0.191-7.711,0.826L76.249,28.5c-1.309,0-10.08,0.789-13.411,1.099c-4.188,0.663-6.029,1.215-6.837,1.562
	l-0.258,0.111L55.462,31.271L55.462,31.271z"/>
</svg>
