<?xml version="1.0" encoding="utf-8"?>
<!-- Generator: Adobe Illustrator 15.0.0, SVG Export Plug-In . SVG Version: 6.00 Build 0)  -->
<!DOCTYPE svg PUBLIC "-//W3C//DTD SVG 1.1//EN" "http://www.w3.org/Graphics/SVG/1.1/DTD/svg11.dtd">
<svg version="1.1" id="图层_1" xmlns="http://www.w3.org/2000/svg" xmlns:xlink="http://www.w3.org/1999/xlink" x="0px" y="0px"
	 width="100px" height="100px" viewBox="0 0 100 100" enable-background="new 0 0 100 100" xml:space="preserve">
<g>
	<rect fill="#FF6600" width="100" height="100"/>
</g>
<g>
	<path fill="#FFFFFF" d="M17.774,25.716h1.109c1.291,0.74,2.676,2.958,4.156,6.652c0.924,1.294,2.677,4.528,5.267,9.7
		c0.923,1.48,2.032,2.403,3.326,2.771c4.434-6.278,7.482-10.622,9.146-13.026l1.938-2.771c0.183-2.217,0.923-3.326,2.218-3.326
		h0.554c1.846,0.372,2.772,0.926,2.772,1.663c0.182,0,0.277,0.186,0.277,0.555c0,0.927-1.386,3.048-4.159,6.374l-3.601,4.158
		c-2.036,2.957-5.175,7.3-9.424,13.025c-7.207,11.458-10.547,18.826-10.809,19.678c-0.261,0.85-1.776,2.559-2.216,2.771
		c-0.442,0.212-1.386,0.278-1.941,0.278c-1.293,0-1.94-0.183-1.94-0.556c0-0.182,0.092-0.366,0.278-0.554c0,0-0.229-0.6-0.278-0.832
		c-0.049-0.231,0.092-0.554,0.278-0.554c0,0-0.203-0.203-0.278-0.277c-0.074-0.074,0-0.276,0-0.276
		c0.736-0.922,1.568-1.845,2.495-2.771c5.357-9.605,9.605-16.532,12.749-20.787l-1.109-1.109c-1.109,0-2.217-0.922-3.326-2.771
		c-1.109-2.953-2.68-5.82-4.711-8.592c0-0.182-0.649-1.199-1.94-3.048l-1.663-2.218c-0.741-1.29-1.109-2.217-1.109-2.772
		C16.571,26.178,17.221,25.716,17.774,25.716z"/>
	<path fill="#FFFFFF" d="M16.388,75.58c-0.817,0-3.303,0-3.303-1.919c0-0.197,0.03-0.444,0.137-0.716
		c-0.046-0.142-0.086-0.279-0.108-0.391c-0.052-0.249-0.051-0.512,0-0.767c-0.1-0.333-0.084-0.711,0.054-1.089l0.076-0.209
		l0.139-0.174c0.723-0.906,1.551-1.831,2.462-2.749c4.924-8.825,8.968-15.468,12.029-19.773c-1.359-0.282-2.604-1.389-3.786-3.363
		l-0.064-0.106l-0.043-0.115c-1.061-2.825-2.586-5.606-4.535-8.264l-0.264-0.361v-0.168c-0.149-0.263-0.561-0.921-1.681-2.526
		l-1.741-2.338c-0.892-1.555-1.29-2.619-1.29-3.452v-0.478l0.299-0.374c1.02-1.277,2.003-1.898,3.006-1.898h1.472l0.315,0.181
		c1.582,0.908,3.072,3.191,4.686,7.181c0.979,1.421,2.698,4.594,5.25,9.685c0.506,0.801,1.054,1.38,1.658,1.752
		c4.023-5.7,6.881-9.772,8.502-12.113l1.739-2.485c0.423-3.644,2.383-4.2,3.54-4.2h0.69l0.135,0.026
		c0.833,0.169,3.158,0.64,3.735,2.234c0.247,0.311,0.407,0.749,0.407,1.322c0,0.976-0.542,2.529-4.473,7.248l-3.57,4.12
		c-2.067,3.001-5.222,7.361-9.377,12.96C25.185,63.872,22.041,70.969,21.85,71.57c-0.358,1.167-2.105,3.202-2.93,3.599
		C18.145,75.541,16.892,75.58,16.388,75.58z M16.167,71.233l1.498,1.497c0.012-0.003,0.022-0.006,0.035-0.01
		c0.424-0.341,1.411-1.553,1.542-1.956c0.342-1.11,3.804-8.624,10.958-20.001l0.06-0.086c4.18-5.633,7.341-10.002,9.395-12.986
		l0.093-0.12l3.603-4.157c2.225-2.67,3.157-4.097,3.547-4.832v-0.983c-0.165-0.106-0.585-0.314-1.547-0.52h-0.415
		c-0.621,0-0.805,1.45-0.857,2.073l-0.03,0.368l-2.152,3.074c-1.704,2.464-4.784,6.85-9.15,13.03l-0.557,0.79l-0.93-0.264
		c-1.625-0.462-3.008-1.593-4.11-3.362l-0.062-0.111c-2.553-5.097-4.289-8.3-5.157-9.52l-0.095-0.133l-0.061-0.151
		c-1.545-3.852-2.669-5.273-3.31-5.795h-0.643c-0.053,0.023-0.227,0.114-0.522,0.416c0.107,0.309,0.33,0.822,0.786,1.626l1.64,2.188
		c1.35,1.937,1.866,2.759,2.063,3.218c2.001,2.764,3.581,5.656,4.701,8.604c0.773,1.258,1.55,2.006,2.095,2.006h0.564l2.339,2.339
		l-0.698,0.944c-3.088,4.177-7.344,11.122-12.654,20.64l-0.093,0.166l-0.134,0.133C17.283,69.986,16.699,70.614,16.167,71.233z"/>
</g>
<path fill="#FFFFFF" d="M83.468,26.304c0.037-0.006,0.672-0.07,0.822,0c0.151,0.071,1.528,2.538,1.386,3.048
	c-0.144,0.512-1.551,1.862-1.663,1.941c-0.113,0.078-0.359,0.181-0.555,0.276c-0.194,0.096-0.37,0.26-0.831,0.277
	c-0.46,0.018-0.277,0-0.277,0c-0.372,0-0.502-0.118-0.83-0.277c-0.33-0.159-2.313-1.2-5.82-1.385l-3.05,0.276
	c0.182,0.373,0.277,1.018,0.277,1.941c0,0-0.001,0.533,0,0.831c0.001,0.298,0.277,2.217,0.277,2.217v0.276
	c0,0.187-0.256,2.023-0.277,2.495c-0.021,0.472,0,4.989,0,4.989c-0.186,0.74-0.277,1.294-0.277,1.663v1.386
	c-0.185,4.988-0.276,8.687-0.276,11.085v0.555c-0.186,2.957-0.277,6.097-0.277,9.423c0,0-0.08,1.297,0,1.666
	c0.079,0.37,0.27,0.792,0.277,1.097c0.007,0.305-0.297,0.905-0.556,1.394c-0.257,0.489-1.489,1.925-1.661,1.939
	c-0.173,0.016-0.277,0-0.277,0c-0.74,0-1.87-1.95-1.939-2.217c-0.07-0.265,0-0.831,0-0.831c0-0.735,0.214-1.529,0.28-1.949
	c0.065-0.419-0.005-0.821-0.005-0.821c0-0.369,0.271-0.95,0.278-1.108c0.006-0.16,0.785-8.462,0.831-8.869
	c0.045-0.406,0.245-1.313,0.277-1.663c0.032-0.353,0-2.217,0-2.772v-1.385c0-0.368-0.369-0.996-0.277-1.663
	c0.09-0.667,0.54-3.196,0.555-3.603c0.014-0.406-0.038-2.125,0-2.494c0.036-0.369,0.277-1.109,0.277-1.664
	c0-0.554-0.213-1.3-0.277-1.662c-0.065-0.363,0.009-5.237,0-4.99c-0.01,0.249,0.091-3.325,0.277-3.325v-1.108
	c-5.544,0.185-12.236,1.084-12.473,1.112c-0.236,0.028-2.217,0.272-2.217,0.272c-0.185,0-0.832,0.096-1.94,0.278h-0.277
	c-0.185,0-0.277-0.091-0.277-0.278v-0.276c0.182-1.664,0.832-2.495,1.94-2.495c1.29-0.555,3.694-1.109,7.206-1.664
	c0,0,11.917-1.108,13.581-1.108C75.699,27.135,83.431,26.311,83.468,26.304z"/>
<path fill="#FFFFFF" d="M70.008,74.79c-0.091,0-0.166-0.005-0.224-0.009c-1.875-0.103-3.157-3.201-3.165-3.232
	c-0.108-0.415-0.079-0.941-0.044-1.263c0.01-0.65,0.137-1.276,0.231-1.738c0.027-0.131,0.051-0.246,0.065-0.341
	c0.023-0.147,0.006-0.331-0.001-0.385l-0.021-0.117l0.002-0.105c0-0.451,0.147-0.892,0.254-1.213
	c0.013-0.038,0.024-0.071,0.035-0.104c0.101-1.187,0.819-8.754,0.828-8.813c0.026-0.248,0.089-0.578,0.153-0.929
	c0.047-0.251,0.11-0.591,0.12-0.708c0.018-0.218,0.007-1.364,0-1.918c-0.003-0.306-0.004-0.569-0.004-0.729V51.87
	c-0.015-0.052-0.038-0.134-0.059-0.198c-0.122-0.402-0.304-1.012-0.207-1.717c0.036-0.271,0.12-0.782,0.219-1.375
	c0.114-0.699,0.308-1.869,0.324-2.104c0.003-0.118-0.001-0.522-0.006-0.879c-0.013-0.868-0.017-1.415,0.012-1.692
	c0.021-0.219,0.073-0.456,0.13-0.706c0.059-0.265,0.139-0.625,0.139-0.82c0-0.255-0.1-0.707-0.166-1.004
	c-0.037-0.162-0.068-0.305-0.089-0.417c-0.044-0.245-0.069-0.71-0.024-4.75c0.002-0.2,0.004-0.348,0.004-0.426
	c-0.007-0.249,0.011-0.621,0.042-1.242l0.009-0.168c0.005-0.081,0.01-0.165,0.015-0.252c0.033-0.628,0.067-1.071,0.105-1.395
	c-4.245,0.226-8.801,0.776-10.705,1.021l-0.136,0.017c-0.234,0.028-2.21,0.272-2.21,0.272l-0.168,0.011
	c-0.063,0.004-0.41,0.044-1.719,0.258l-0.111,0.018h-0.388c-0.935,0-1.642-0.705-1.642-1.642l0.009-0.424
	c0.328-3.003,2.02-3.603,2.991-3.697c1.438-0.569,3.831-1.113,7.298-1.66l0.086-0.011C63.2,26.773,73.71,25.8,75.62,25.771
	c2.138-0.228,7.494-0.8,7.686-0.822v0.001c0.152-0.019,0.449-0.043,0.696-0.043c0.242,0,0.559,0.018,0.863,0.16
	c0.292,0.136,0.593,0.276,1.448,1.985c0.76,1.518,0.822,2.147,0.676,2.669c-0.307,1.089-2.18,2.68-2.197,2.692
	c-0.174,0.121-0.37,0.212-0.562,0.301c-0.057,0.026-0.114,0.053-0.168,0.079l-0.041,0.025c-0.224,0.128-0.638,0.365-1.341,0.393
	c-0.184,0.006-0.281,0.009-0.33,0.009c-0.084,0-0.163-0.006-0.241-0.018c-0.49-0.042-0.804-0.206-1.042-0.331
	c-0.042-0.023-0.089-0.048-0.143-0.073l-0.057-0.028c-1.367-0.672-3.192-1.104-5.146-1.218l-1.45,0.132
	c0.013,0.223,0.021,0.461,0.021,0.718c0,0.004-0.003,0.529,0,0.823c0.008,0.182,0.144,1.202,0.262,2.031l0.015,0.096v0.374
	c0,0.152-0.021,0.335-0.118,1.12c-0.061,0.488-0.151,1.227-0.161,1.438c-0.014,0.318-0.007,3.187,0.003,4.92v0.172l-0.042,0.167
	c-0.215,0.847-0.236,1.212-0.236,1.33l-0.001,1.437c-0.184,4.916-0.276,8.628-0.276,11.035l-0.002,0.64
	c-0.184,2.896-0.275,6.038-0.275,9.338l-0.002,0.083c-0.032,0.53-0.043,1.134-0.024,1.318c0.021,0.082,0.057,0.194,0.091,0.303
	c0.096,0.303,0.204,0.646,0.213,1.027c0.013,0.573-0.24,1.166-0.712,2.061c-0.013,0.026-1.552,2.556-2.747,2.664
	C70.173,74.787,70.081,74.79,70.008,74.79z"/>
<polygon fill="#FFFFFF" points="70.007,72.063 70.008,73.427 70.008,72.063 "/>
<path fill="#FFFFFF" d="M69.271,70.845c0.133,0.256,0.387,0.642,0.617,0.932c0.303-0.353,0.632-0.771,0.726-0.936
	c0.22-0.42,0.324-0.649,0.373-0.777c-0.019-0.067-0.046-0.151-0.065-0.216c-0.055-0.17-0.115-0.364-0.16-0.571
	c-0.097-0.448-0.07-1.323-0.031-1.996c0.001-3.325,0.094-6.495,0.277-9.424v-0.512c0-2.437,0.095-6.175,0.277-11.111v-1.361
	c0-0.458,0.091-1.055,0.276-1.826c-0.003-1.037-0.019-4.436,0.003-4.887c0.013-0.294,0.082-0.869,0.179-1.648
	c0.039-0.313,0.085-0.699,0.096-0.822v-0.142c-0.183-1.278-0.276-2.055-0.276-2.31c-0.002-0.3,0-0.84,0-0.84
	c0-0.387-0.019-0.67-0.042-0.875v2.243h-0.187c-0.045,0.695-0.082,1.572-0.092,2l-0.004-0.001c0,0.003,0,0.007,0,0.009l0.004,0.001
	L71.24,35.84c0.001,0.119,0,0.25-0.001,0.396c-0.027,2.498-0.031,3.938-0.01,4.281c0.016,0.075,0.036,0.162,0.056,0.26
	c0.1,0.44,0.235,1.043,0.235,1.602c0,0.496-0.113,1.005-0.206,1.415c-0.03,0.135-0.072,0.322-0.079,0.384
	c-0.015,0.172-0.004,0.931,0.003,1.383c0.007,0.512,0.011,0.834,0.004,1.021c-0.011,0.31-0.123,1.015-0.358,2.441
	c-0.092,0.549-0.176,1.066-0.207,1.299c-0.017,0.12,0.058,0.366,0.115,0.564c0.083,0.27,0.175,0.573,0.175,0.915v1.385
	c0,0.154,0.002,0.407,0.006,0.702c0.012,1.296,0.013,1.921-0.014,2.195c-0.021,0.241-0.083,0.572-0.153,0.954
	c-0.052,0.274-0.109,0.585-0.126,0.734c-0.042,0.382-0.791,8.369-0.824,8.801c-0.015,0.241-0.084,0.445-0.162,0.681
	c-0.028,0.089-0.08,0.238-0.104,0.334c0.024,0.24,0.044,0.631-0.021,1.048c-0.021,0.125-0.052,0.281-0.088,0.457
	c-0.079,0.389-0.178,0.871-0.178,1.277l-0.01,0.167C69.281,70.632,69.274,70.758,69.271,70.845z"/>
<path fill="#FFFFFF" d="M82.34,30.482l0.144,2.724c0.605-0.06,1.233-0.619,1.193-1.419c-0.039-0.776-0.678-1.265-1.271-1.294
	c0.011,0.005,0.021,0.01,0.032,0.014c-0.013-0.005-0.031-0.011-0.049-0.016c-0.013,0-0.025,0-0.039,0c0.01,0,0.021,0,0.034-0.001
	C82.367,30.487,82.351,30.483,82.34,30.482z"/>
<path fill="#FFFFFF" d="M54.912,31.271c-0.091,0-0.174,0.042-0.246,0.125c0.354-0.05,0.557-0.071,0.694-0.079
	c0.335-0.042,1.949-0.241,2.161-0.267l0.11-0.014c2.172-0.279,7.736-0.948,12.477-1.107l0.77-0.026l-0.285-0.607l1.934-0.193
	l3.146-0.286l0.099,0.005c1.661,0.088,4.103,0.42,6.3,1.5l0.041,0.02c0.082,0.04,0.153,0.078,0.221,0.112
	c0.023,0.012,0.047,0.026,0.068,0.037c0.04-0.001,0.095-0.003,0.173-0.007c0.032-0.001,0.045-0.003,0.047-0.003
	c0-0.003,0.02-0.018,0.041-0.029c0.064-0.037,0.128-0.072,0.19-0.104c0.073-0.036,0.15-0.072,0.228-0.108
	c0.049-0.022,0.098-0.044,0.141-0.065c0.246-0.225,0.749-0.744,1.023-1.085c-0.147-0.388-0.448-0.988-0.69-1.422
	c-0.354,0.04-1.763,0.191-7.711,0.826L75.699,28.5c-1.308,0-10.08,0.789-13.411,1.099c-4.188,0.663-6.029,1.215-6.837,1.562
	l-0.258,0.111H54.912z"/>
</svg>
