<?xml version="1.0" encoding="utf-8"?>
<!-- Generator: Adobe Illustrator 15.0.0, SVG Export Plug-In . SVG Version: 6.00 Build 0)  -->
<!DOCTYPE svg PUBLIC "-//W3C//DTD SVG 1.1//EN" "http://www.w3.org/Graphics/SVG/1.1/DTD/svg11.dtd">
<svg version="1.1" id="图层_1" xmlns="http://www.w3.org/2000/svg" xmlns:xlink="http://www.w3.org/1999/xlink" x="0px" y="0px"
	 width="128px" height="128px" viewBox="0 0 128 128" enable-background="new 0 0 128 128" xml:space="preserve">
<path fill="#666666" d="M95.979,7.958h-72c-8.8,0-16,7.2-16,16v72c0,8.8,7.2,16,16,16h72c8.8,0,16-7.2,16-16v-72
	C111.979,15.158,104.779,7.958,95.979,7.958z"/>
<path fill="#FFFFFF" d="M25.262,86.061c0-1.554,0.901-2.774,2.048-2.774h20.476c1.147,0,2.048,1.221,2.048,2.774l0,0
	c0,1.553-0.901,2.773-2.048,2.773H27.31C26.163,88.834,25.262,87.613,25.262,86.061L25.262,86.061z"/>
<path fill="#FFFFFF" d="M47.786,63.191H31.405c-1.147,0-2.048-1.22-2.048-2.774c0-1.553,0.901-2.774,2.048-2.774h16.381
	c1.147,0,2.048,1.221,2.048,2.774C49.833,61.971,48.933,63.191,47.786,63.191z"/>
<path fill="#FFFFFF" d="M21.167,34.774c0-1.554,0.901-2.774,2.048-2.774h24.571c1.147,0,2.048,1.22,2.048,2.774
	c0,1.553-0.901,2.774-2.048,2.774H23.214C22.067,37.548,21.167,36.327,21.167,34.774z"/>
<path fill="#FFFFFF" d="M94.738,86.061c0,1.553-0.9,2.773-2.048,2.773H72.215c-1.147,0-2.049-1.221-2.049-2.773l0,0
	c0-1.554,0.901-2.774,2.049-2.774H92.69C93.838,83.286,94.738,84.507,94.738,86.061L94.738,86.061z"/>
<path fill="#FFFFFF" d="M70.166,60.417c0-1.554,0.901-2.774,2.049-2.774h16.381c1.146,0,2.047,1.22,2.047,2.774
	s-0.9,2.774-2.047,2.774H72.215C71.067,63.191,70.166,61.971,70.166,60.417z"/>
<path fill="#FFFFFF" d="M96.785,37.548h-24.57c-1.147,0-2.049-1.221-2.049-2.774c0-1.554,0.901-2.774,2.049-2.774h24.57
	c1.147,0,2.049,1.22,2.049,2.774C98.834,36.327,97.933,37.548,96.785,37.548z"/>
<rect x="58.521" y="12.042" fill="#FFFFFF" width="2.917" height="95.833"/>
</svg>
