<?xml version="1.0" encoding="utf-8"?>
<!-- Generator: Adobe Illustrator 15.0.0, SVG Export Plug-In . SVG Version: 6.00 Build 0)  -->
<!DOCTYPE svg PUBLIC "-//W3C//DTD SVG 1.1//EN" "http://www.w3.org/Graphics/SVG/1.1/DTD/svg11.dtd">
<svg version="1.1" id="图层_1" xmlns="http://www.w3.org/2000/svg" xmlns:xlink="http://www.w3.org/1999/xlink" x="0px" y="0px"
	 width="2834.65px" height="595.28px" viewBox="0 0 2834.65 595.28" enable-background="new 0 0 2834.65 595.28"
	 xml:space="preserve">
<g>
	<g>
		<path fill="#FFFFFF" d="M1317.283,280.74c-6.133-3.507-14.311-6.669-24.532-9.484c-29.308-8.431-52.132-14.753-68.487-18.968
			c-7.507,11.246-17.042,20.73-28.622,28.453c-9.551,5.615-24.532,5.96-44.976,1.054c-2.044,0-3.066-0.691-3.066-2.107
			c0-0.692,1.022-0.692,3.066,0c24.533,1.416,44.625-8.431,60.309-29.507c-19.773-5.615-39.865-8.068-60.309-7.376
			c-0.687,1.416-1.709,3.161-3.066,5.269c-7.507,11.954-12.618,21.438-15.333,28.453c-1.374,2.107-3.066,3.162-5.111,3.162
			c-4.089-2.108-5.462-6.669-4.089-13.7c6.804-21.768,11.58-47.421,14.311-76.928c0-7.015-1.022-10.538-3.066-10.538
			c-6.133,2.815-15.333,8.43-27.599,16.861c-0.687,0.708-3.067,2.47-7.155,5.269c-11.596,7.739-18.064,11.592-19.422,11.592
			c-2.731-0.691-4.44-2.107-5.111-4.215c0-1.399,0.671-2.799,2.044-4.215c5.446-11.23,9.2-20.368,11.244-27.399
			c2.044-4.215,3.737-6.323,5.111-6.323c2.044,0.708,2.715,3.162,2.044,7.377c-0.687,6.323-2.044,11.954-4.089,16.861
			c3.402-1.4,9.871-4.907,19.422-10.538c10.893-6.323,18.399-10.538,22.488-12.646c4.76-4.215,7.826-6.323,9.2-6.323
			c2.715,0,4.089,2.816,4.089,8.431c0,19.676-1.709,41.46-5.111,65.336c13.624-16.861,25.89-34.775,36.799-53.744
			c0.671-14.753,2.38-29.144,5.111-43.206c0-4.215-2.396-7.722-7.155-10.538c-2.044-0.691-3.066-1.745-3.066-3.161
			c0-1.4,1.693-2.108,5.111-2.108c12.266-1.399,17.712,3.87,16.355,15.807c0,14.062-1.709,27.399-5.111,40.044
			c-2.044,4.923-5.111,7.377-9.2,7.377c-3.418,6.323-9.2,16.515-17.377,30.561c-4.089,7.031-6.82,11.954-8.177,14.753
			c19.757,1.416,40.536,3.524,62.354,6.323c6.133-10.538,11.58-22.821,16.355-36.883c-12.266,4.923-25.219,13.008-38.843,24.237
			c-6.133,1.416-8.864-1.399-8.178-8.43c18.399-33.014,36.112-55.144,53.154-66.39c-17.042-2.107-24.884-10.176-23.511-24.237
			c0-0.692,0-1.4,0-2.108c0.671-8.43,2.044-17.552,4.089-27.399c-6.133,2.108-13.64,5.977-22.488,11.592
			c-0.687,0-1.709,0.362-3.066,1.054c-2.044,2.107-3.418,2.107-4.089,0c-2.044-1.4-1.374-3.853,2.044-7.377
			c12.266-9.122,25.555-15.807,39.865-20.022c4.089,0,6.133,1.762,6.133,5.269c0,2.107-0.687,3.869-2.044,5.269
			c-1.374,0.708-2.396,1.416-3.066,2.107c-4.089,7.739-6.133,18.623-6.133,32.668c-0.687,7.739,1.358,11.592,6.133,11.592h20.444
			c0.671,0,1.693-0.346,3.066-1.054l3.066-1.054c5.447,0,8.178,1.762,8.178,5.269c0,1.416-0.687,3.161-2.044,5.269
			c-27.95,13.354-48.729,33.03-62.354,59.013c6.133-3.507,15.668-9.122,28.621-16.861c6.133-3.507,10.893-6.323,14.311-8.43
			c5.446,2.107,6.804,5.631,4.088,10.538c-4.775,14.753-11.595,30.922-20.443,48.475c8.177,1.416,21.114,3.869,38.843,7.376
			c12.267,2.816,21.802,4.923,28.622,6.323c15.668,7.031,23.846,13.7,24.533,20.022
			C1322.395,278.632,1320.686,280.048,1317.283,280.74z M1141.467,117.4c0-2.108,1.357-3.853,4.089-5.269h1.022
			c5.446-4.215,7.826-7.377,7.155-9.484c-17.729-6.323-26.577-14.391-26.577-24.238c0-2.799,0.671-4.215,2.044-4.215
			c2.044,0,4.759,2.107,8.177,6.323c2.044,2.815,3.402,4.577,4.089,5.269c4.76,3.523,14.311,6.685,28.621,9.484
			c2.715,1.416,4.089,3.869,4.089,7.376c0,3.523-0.687,5.269-2.044,5.269c-1.374,0-3.066,0.362-5.111,1.054
			c-2.044,0.708-5.462,2.47-10.222,5.269c-6.82,3.523-11.244,5.269-13.289,5.269C1142.138,119.507,1141.467,118.816,1141.467,117.4z
			"/>
		<path fill="#FFFFFF" d="M1597.977,154.283c0.671,3.524-3.066,5.631-11.244,6.323c-18.399,1.416-37.485,5.977-57.242,13.699
			c0,7.031,0,14.408,0,22.13c0.671,11.954,1.021,24.6,1.021,37.937c0,11.954,0,28.815,0,50.583c0,12.646-2.73,23.184-8.177,31.614
			h-1.022c-0.687,0.691-1.709,0-3.066-2.107c-0.687-10.538-1.022-26.346-1.022-47.422c-0.687-21.076-1.022-36.883-1.022-47.421
			c0-4.907-0.351-12.284-1.021-22.13c0-7.722,0-13.337,0-16.861c-11.596,4.923-22.488,10.192-32.71,15.807
			c-1.374,1.416-3.418,2.816-6.134,4.215c-2.731,2.107-4.775,3.87-6.133,5.269c-17.729,23.892-36.464,47.076-56.221,69.551
			c-1.374,0-2.396,0-3.066,0c-4.089-0.691-6.484-2.454-7.155-5.269c0-2.799,1.693-8.068,5.111-15.807
			c1.357-2.107,2.38-3.853,3.066-5.269c6.133-23.875,9.2-43.552,9.2-59.013c0-0.691,0-2.107,0-4.215
			c0.671-8.43,0-14.391-2.044-17.915c-17.729,9.139-34.419,19.331-50.087,30.561c-1.374,1.416-2.731,2.107-4.089,2.107
			c-2.731-0.691-4.44-2.799-5.111-6.323c1.357-8.431,5.111-15.807,11.244-22.13c2.715-2.108,4.759-3.162,6.133-3.162
			c0.671,0.708,0.335,2.47-1.022,5.269c0,4.923,1.022,6.685,3.066,5.269h1.022c3.402-1.399,8.177-4.215,14.311-8.43
			c10.222-6.323,18.399-10.176,24.533-11.592c1.357-0.691,2.715-2.107,4.089-4.215c2.715-3.507,5.781-5.269,9.199-5.269
			c4.76,0,7.155,1.416,7.155,4.215c0,2.108-1.373,3.524-4.089,4.215c-2.73,1.416-4.089,3.162-4.089,5.269
			c0,3.524,0.336,8.431,1.022,14.753c0.671,5.631,1.022,9.847,1.022,12.646c0,5.631-1.022,14.408-3.066,26.345
			c-2.045,11.246-3.066,19.331-3.066,24.238c-0.688,0,0,0,2.044,0c2.044-2.108,5.111-5.269,9.199-9.484
			c9.535-10.538,16.355-18.969,20.444-25.292c0-0.691,0-2.107,0-4.215c0.671-9.122,3.737-13.699,9.199-13.699h2.045
			c1.357,0.708,2.38,1.054,3.066,1.054c0.671,0,1.693-0.346,3.066-1.054c14.311-7.723,27.248-14.045,38.844-18.969
			c0-25.983,1.692-49.529,5.11-70.605c0.671-2.799-0.352-3.853-3.066-3.161h-1.022c-1.373-0.692-2.396-0.346-3.066,1.054
			c1.357,2.815,1.357,5.631,0,8.43c0,0.708,0,1.417,0,2.108c-8.178-2.108-13.288-8.068-15.333-17.915
			c0-2.108,2.045-3.853,6.134-5.269h1.021c2.716,0,6.805-1.054,12.267-3.162c6.804-2.107,11.579-3.162,14.311-3.162
			c4.089,0,6.134,2.108,6.134,6.323c0,1.416-0.352,2.815-1.022,4.215c-3.418,16.861-5.798,41.807-7.155,74.82
			c17.025-6.323,35.776-11.592,56.22-15.807h4.089C1595.245,147.96,1597.977,150.068,1597.977,154.283z M1433.404,97.377
			c0.671-0.691,1.357-2.107,2.044-4.215v-1.054c-0.687-0.691-1.709-1.399-3.066-2.107c-10.908-5.615-16.355-11.592-16.355-17.915
			c0-2.799,1.693-4.215,5.111-4.215c2.045,0,4.76,1.762,8.178,5.269c3.402,3.524,5.781,5.269,7.155,5.269
			c1.357,0.708,4.089,1.416,8.178,2.108c8.848,0.708,13.288,3.869,13.288,9.484c0,4.923-3.753,7.739-11.244,8.43
			c-1.373,0-2.396,0-3.066,0c-1.373,1.416-2.396,2.108-3.066,2.108h-1.022C1435.448,99.847,1433.404,98.793,1433.404,97.377z"/>
		<path fill="#FFFFFF" d="M1813.249,288.116c-6.819-2.815-17.377-5.631-31.688-8.43c-9.551-2.108-16.706-3.853-21.466-5.269
			c-32.71-9.122-60.31-10.884-82.798-5.269c-2.044,0.708-5.11,2.47-9.199,5.269c-4.089,2.815-7.155,4.215-9.2,4.215
			c-2.044,0-3.418-1.399-4.089-4.215h-1.021c0-6.323,9.535-11.23,28.621-14.753c10.893-2.107,21.466-3.162,31.688-3.162
			c-2.73-4.215,0-8.068,8.178-11.592h1.022c1.357-0.691,2.044-1.745,2.044-3.161h-1.021c-10.223-9.83-14.998-21.422-14.312-34.776
			c0-3.507,1.022-8.068,3.067-13.699c2.044-4.907,3.066-8.776,3.066-11.592c-10.222,2.816-24.197,10.538-41.91,23.184
			c-4.775,3.523-8.528,5.977-11.244,7.376c-3.418,0-5.798-1.745-7.155-5.269c3.402-9.83,11.915-20.714,25.555-32.668
			c2.716-0.691,4.089,0.708,4.089,4.215c-0.687,1.416-2.044,4.215-4.089,8.43c-0.687,0.708-1.022,1.417-1.022,2.108
			c11.58-7.723,23.847-14.391,36.799-20.022c0.671-0.691,1.693-2.107,3.067-4.215c1.357-2.799,3.737-4.215,7.155-4.215
			c9.535,0.708,14.311,3.869,14.311,9.484c0,2.816-2.731,7.031-8.178,12.646c-5.462,5.631-8.529,9.846-9.199,12.646
			c-4.776,9.847-5.111,19.331-1.022,28.453c1.357,1.416,3.737,3.87,7.155,7.377c8.849,6.323,13.288,11.592,13.288,15.807
			c0,2.107-2.044,3.869-6.133,5.269c-0.687,0-1.374,0-2.045,0c-0.687,0-2.044,0.362-4.088,1.054
			c-4.776,0.708-8.178,1.762-10.223,3.161c11.58,2.108,28.957,5.631,52.132,10.538c11.58,2.816,20.093,4.923,25.555,6.323
			c2.716,0.708,6.804,1.762,12.267,3.162c14.311,3.523,25.203,4.923,32.71,4.215c3.402-0.692,9.535-1.746,18.399-3.162
			c14.981-3.507,26.226-5.269,33.732-5.269c4.76-0.691,7.155,1.054,7.155,5.269c0,1.416-2.731,2.816-8.178,4.215
			c-2.044,0.691-3.418,1.054-4.089,1.054c-4.775,0.692-11.244,2.454-19.421,5.269c-8.178,2.799-14.662,4.561-19.422,5.269
			c-4.089,0.691-8.178,1.054-12.267,1.054c-3.418,0-9.199-1.054-17.377-3.161C1818.36,289.862,1815.294,288.808,1813.249,288.116z
			 M1714.097,132.153c0-1.399,2.716-3.507,8.178-6.323c8.849-4.907,13.288-9.484,13.288-13.699
			c-0.687-0.692-2.044-1.746-4.088-3.162c-8.178-3.507-12.267-8.068-12.267-13.699c0.671-4.907,2.715-7.377,6.133-7.377h1.022
			c1.357,5.631,6.469,10.192,15.333,13.7c7.49,2.107,11.244,5.269,11.244,9.484c0,4.923-2.731,8.431-8.178,10.538
			c-8.864,5.631-18.064,9.847-27.6,12.646C1715.119,134.261,1714.097,133.569,1714.097,132.153z M1809.16,267.04
			c0-0.691,0-2.799,0-6.323c0.671-4.907,1.022-8.068,1.022-9.484c-0.687-7.722-1.022-16.861-1.022-27.399
			c-11.595,5.631-23.175,11.592-34.754,17.915c-4.089,2.107-8.529,5.269-13.288,9.484c-6.134,1.416-8.865-1.745-8.178-9.484
			c7.49-6.323,14.981-12.992,22.488-20.022c6.133-7.723,17.712-19.314,34.754-34.776c0-7.722,0-12.646,0-14.753
			c-2.044,0.708-9.199,4.577-21.466,11.592c-5.462,2.815-8.529,4.578-9.199,5.269c-1.374,0.708-3.067,2.107-5.111,4.215
			c-4.089,3.523-6.82,5.269-8.178,5.269c-4.089-0.692-6.484-2.454-7.155-5.269c0-2.108,1.022-4.907,3.066-8.431
			c0.671-1.399,1.022-2.453,1.022-3.162c8.849-14.753,17.377-30.906,25.555-48.475c-1.374,0.708-3.753,2.107-7.155,4.215
			c-10.222,5.631-17.729,10.9-22.488,15.807h-1.022c-3.418-0.691-5.11-2.453-5.11-5.269c2.715-7.722,5.11-11.938,7.155-12.646
			c1.357,0.708,2.38,1.416,3.066,2.107h3.066c4.089-2.799,10.558-6.323,19.422-10.538c2.715-1.399,4.76-2.453,6.133-3.161
			c6.134-16.861,9.871-29.853,11.244-38.991v-4.215c-6.819-2.799-11.931-4.561-15.333-5.269c-3.418-1.4-5.462-3.507-6.133-6.323
			c0-2.799,2.044-4.215,6.133-4.215h2.045c0.671,0,1.692,0,3.066,0c16.354,1.416,24.532,6.323,24.532,14.753
			c0,2.107-0.687,3.869-2.044,5.269c-2.045,10.538-4.775,21.076-8.178,31.614c1.357-0.691,3.737-2.107,7.155-4.215
			c12.267-7.015,22.137-10.884,29.644-11.592c4.76-0.692,7.155,1.054,7.155,5.269c-0.687,3.524-2.044,5.977-4.089,7.377
			c-3.418,0.708-5.798,1.054-7.155,1.054c-15.685,4.215-27.95,9.139-36.799,14.753c-0.687,0.708-1.022,2.107-1.022,4.215
			c4.089-0.692,9.871-1.054,17.378-1.054c2.044,0.708,3.401,3.162,4.089,7.377c-0.688,2.107-1.022,7.031-1.022,14.753
			c0.671,0,2.044-0.346,4.089-1.054c5.446-2.107,9.199-3.507,11.244-4.215c3.401,0,5.11,1.762,5.11,5.269
			c0,1.417-0.352,3.162-1.021,5.269c-0.688,0.708-2.396,2.47-5.111,5.269c-6.133,5.631-10.909,10.192-14.311,13.7
			c0,8.43,0,18.277,0,29.506c2.044-0.691,4.424-1.745,7.155-3.161c3.402-1.4,5.781-2.454,7.155-3.162
			c-1.374-0.691-2.044-1.399-2.044-2.107c-1.374,0-2.045-1.054-2.045-3.162c-1.373-1.399-1.373-2.107,0-2.107
			c0.671-0.691,2.715-1.054,6.133-1.054h6.134c6.133,0.708,9.535,1.054,10.222,1.054c4.76,0,7.155,2.107,7.155,6.323
			s-3.418,7.031-10.222,8.431c-1.374,0-2.396,0-3.066,0l-27.6,10.538v40.044c0,9.139-1.709,13.699-5.11,13.699
			C1812.228,273.363,1809.831,271.255,1809.16,267.04z M1780.539,176.413c4.76-2.108,12.267-5.961,22.488-11.592
			c2.715-2.107,4.76-3.507,6.133-4.215c0.671-1.4,1.022-6.323,1.022-14.753c0.671-1.399,0-2.454-2.044-3.162
			c-0.688,0-2.045,0-4.089,0c-2.045,0.708-3.418,1.054-4.089,1.054c-0.687,0-1.709-0.346-3.066-1.054
			c-1.374,2.108-3.066,5.977-5.111,11.592C1786.321,164.821,1782.584,172.198,1780.539,176.413z M1780.539,225.942
			c10.222-3.507,19.757-7.377,28.621-11.592c0-2.799,0.336-7.015,1.022-12.646c0-4.215,0-7.376,0-9.484
			C1797.917,204.866,1788.03,216.112,1780.539,225.942z M1822.449,165.875v8.43c2.044-2.107,4.424-4.561,7.155-7.376l5.111-5.269
			c0-0.692-2.396,0-7.156,2.107C1824.829,165.183,1823.12,165.875,1822.449,165.875z"/>
		<path fill="#FFFFFF" d="M2035.679,153.229c0,3.524-2.044,5.977-6.133,7.377c-0.687,0.708-1.374,1.054-2.045,1.054
			c-0.687,0-1.709,0.362-3.066,1.054c-2.044,0.708-3.418,1.416-4.089,2.107c0,9.847,0,20.022,0,30.561
			c4.089-2.799,9.535-9.122,16.355-18.968l1.022-1.054c1.357-1.399,2.715-2.107,4.088-2.107c1.358,0.708,1.693,2.107,1.022,4.215
			c-4.775,10.538-12.266,21.076-22.488,31.614c0,1.416,0,6.685,0,15.807c0.671,12.646,1.022,20.022,1.022,22.13
			c4.089-2.108,9.535-4.561,16.355-7.377c7.49-3.507,12.937-5.96,16.354-7.376c10.893-14.753,18.399-27.399,22.488-37.937
			c-15.685,7.031-27.95,13.354-36.799,18.968c-4.089-2.107-5.111-4.907-3.066-8.43c8.849-6.323,18.048-14.753,27.599-25.292
			c3.402-4.907,7.491-11.229,12.267-18.968c0.671-0.692,1.022-1.4,1.022-2.108c2.044-2.799,1.692-3.507-1.022-2.107
			c-7.507,4.215-13.288,9.138-17.377,14.753c-5.463,4.215-9.2,2.47-11.244-5.269c0-4.907,1.357-8.431,4.089-10.538
			c3.401-4.215,6.804-11.592,10.222-22.13c-3.418,2.107-6.82,4.215-10.222,6.323c-10.223,2.815-14.662,0.708-13.289-6.323
			c2.716-2.799,7.155-7.723,13.289-14.753c9.535-9.83,16.69-17.553,21.466-23.184c1.357-1.4,1.022-2.799-1.022-4.215
			c-10.908-5.615-16.706-14.045-17.377-25.292c0-4.215,1.022-6.323,3.066-6.323c2.715,0.708,4.76,2.815,6.133,6.323
			c1.358,6.323,7.155,11.592,17.378,15.807c5.446,2.107,8.848,5.631,10.222,10.538c0.671,2.107-1.022,4.578-5.111,7.376
			c-6.133,4.215-11.596,8.793-16.354,13.7c-2.045,2.107-4.089,4.215-6.134,6.323c-1.373,1.416-2.396,2.47-3.066,3.162
			c2.045,0,5.111-1.4,9.2-4.215c2.044-1.4,3.401-2.454,4.089-3.162c2.044-1.399,4.759-3.161,8.177-5.269
			c6.805-4.907,12.602-7.722,17.378-8.43c3.401-0.692,5.781,1.762,7.155,7.376c0,1.416-1.022,2.47-3.066,3.162
			c-0.688,0.708-1.374,1.054-2.045,1.054c-0.687,0-1.709,0.362-3.066,1.054c-3.418,1.416-7.842,3.523-13.288,6.323
			c-8.178,4.923-14.312,15.116-18.399,30.561c0.67,0,2.715-1.4,6.133-4.215c6.804-3.507,10.893-5.615,12.267-6.323
			c5.446-4.215,9.87-6.323,13.288-6.323c6.804-0.692,9.87,3.523,9.199,12.646c0,1.416-2.396,3.162-7.155,5.269l-2.044,1.054
			c-0.687,0.708-1.374,1.416-2.045,2.108c-13.64,11.246-21.466,20.384-23.51,27.399c4.089-2.108,11.244-6.323,21.466-12.646
			l2.044-1.054c7.491-5.615,12.938-8.43,16.355-8.43c4.089,0,6.133,1.762,6.133,5.269c0,3.523-4.089,8.43-12.266,14.753
			c-2.045,1.416-3.754,2.47-5.111,3.162c-0.687,0.708-1.709,1.416-3.066,2.107c-5.463,4.215-8.864,8.085-10.222,11.592
			c-1.374,2.816-5.463,9.139-12.267,18.969c-3.418,4.215-5.462,7.031-6.133,8.43c4.089-2.107,11.579-4.907,22.488-8.43l-2.045-1.054
			c-1.373-4.215,0-7.015,4.089-8.431c2.044,0,4.76,0,8.178,0c6.804-0.691,12.937,0,18.399,2.108
			c19.757-5.615,39.865-9.484,60.309-11.592c6.134,0,9.2,2.816,9.2,8.431c-0.687,2.815-2.045,4.215-4.089,4.215
			c-24.532,2.815-47.372,7.031-68.486,12.646c-4.776,7.031-9.2,15.461-13.289,25.292c-2.044,3.523-1.373,6.323,2.045,8.43
			c20.443,5.631,36.447,12.3,48.043,20.022c5.446,2.107,8.513,4.923,9.199,8.431c0,5.615-2.396,7.722-7.155,6.323
			c-15.685-9.83-35.105-18.969-58.265-27.399c-2.045-0.692-4.089,0-6.133,2.107c-14.998,14.062-32.375,20.714-52.132,20.022
			c-1.374,0-2.396-0.362-3.066-1.054c0-0.708,1.021-1.416,3.066-2.108c14.981-1.399,27.599-7.722,37.82-18.968
			c1.358-2.108,1.022-3.853-1.021-5.269c-8.864-3.507-19.422-4.215-31.688-2.108c-3.418,0.708-6.133-0.691-8.177-4.215
			c-1.374,0.708-3.754,1.762-7.155,3.161c-3.418,1.416-5.798,2.47-7.156,3.162c0,10.538-0.351,17.569-1.021,21.076
			c-1.374,15.445-5.111,23.183-11.244,23.183c-7.507-2.815-16.355-13.353-26.577-31.614c-0.687-2.107-0.687-3.162,0-3.162
			c0.671,0,1.693,0.708,3.066,2.108c0.671,0.708,2.045,2.107,4.089,4.215c4.76,5.631,8.849,9.122,12.267,10.538
			c2.715,1.399,4.424,0.346,5.11-3.162c0.671-2.799,1.022-8.431,1.022-16.861c-0.687,0-2.044-0.346-4.089-1.054h-2.044
			c-3.418-2.108-5.111-4.215-5.111-6.323c0-1.4,1.693-2.454,5.111-3.162c2.715,0,4.76-1.054,6.133-3.162
			c-0.687-6.323-1.373-16.499-2.044-30.56c-16.355,10.538-30.331,23.184-41.91,37.937c-2.731,2.107-5.462,0.708-8.178-4.215
			c4.76-16.861,9.535-26.691,14.311-29.507c1.358,0,2.716,0.708,4.089,2.108c1.357,0.708,2.38,1.054,3.066,1.054
			c1.358,0,10.558-7.014,27.6-21.076c0-11.229,0-22.821,0-34.775c-8.178,4.215-20.795,11.954-37.821,23.184
			c-2.044,1.416-4.44,1.416-7.155,0h-1.022c-4.088-2.799-6.133-5.615-6.133-8.431c-0.687-6.323,1.022-10.176,5.111-11.592
			c0.671,0.708,1.357,2.108,2.044,4.215c0.671,2.816,1.693,4.215,3.066,4.215c1.357,0,3.402-0.346,6.134-1.054
			c12.266-9.122,24.532-16.861,36.799-23.184c0-16.861,1.021-33.359,3.066-49.529c0-0.691-0.687-1.054-2.045-1.054
			c-1.373,0-3.066,0.362-5.11,1.054h-2.045c-3.418-0.691-4.775-2.453-4.089-5.269c4.089-4.215,11.915-6.668,23.511-7.376
			c3.402,0.708,4.76,4.578,4.089,11.592c-2.045,14.062-3.418,28.453-4.089,43.206c2.044-1.399,4.089-2.454,6.133-3.162
			C2032.261,146.906,2034.992,148.322,2035.679,153.229z M2090.877,244.91c0.671-0.691,1.357-2.453,2.045-5.269
			c2.715-6.323,4.424-10.884,5.11-13.699c-19.086,4.923-33.062,10.538-41.909,16.861c9.535,0,18.734,1.762,27.599,5.269
			C2086.437,248.78,2088.833,247.726,2090.877,244.91z"/>
		<path fill="#FFFFFF" d="M2241.751,184.843c0-2.107,2.045-3.162,6.134-3.162c1.357,0,2.38,0,3.066,0
			c0.671,0,1.692-0.346,3.066-1.054l3.066-1.054c2.045-0.691,3.737-1.054,5.111-1.054c0.671,0.708,0,1.762-2.045,3.161
			c-0.687,0.708-1.709,1.417-3.066,2.108c-0.687,0.708-1.709,1.416-3.066,2.107c3.402,4.215,7.155,6.685,11.244,7.377
			c3.402,0,9.87-1.746,19.422-5.269c4.089-2.108,7.49-3.507,10.222-4.215c58.601-19.66,104.934-27.745,139.018-24.238
			c12.267,0.708,18.399,4.215,18.399,10.538c0,4.215-1.709,6.323-5.11,6.323c-1.374,0-3.067-0.692-5.111-2.108
			c-1.374-0.691-2.396-1.054-3.066-1.054c-27.264-6.323-77.352,2.47-150.262,26.345c-1.374,0.708-5.798,2.815-13.289,6.323
			l-7.155,3.162C2254.018,204.866,2245.153,196.797,2241.751,184.843z"/>
		<path fill="#FFFFFF" d="M2573.555,265.986c-6.819-21.076-9.199-49.167-7.155-84.305c-0.687,0.708-1.709,1.417-3.066,2.108
			c-21.131,11.954-36.128,17.569-44.977,16.861c-4.088-2.107-4.775-5.269-2.044-9.484c14.311-2.107,31.001-9.122,50.087-21.076
			c1.358-22.476,1.693-44.605,1.022-66.39c-2.044-9.122-0.687-14.045,4.089-14.753c4.089,0,6.804,4.215,8.178,12.646
			c0,3.523,0.335,5.631,1.021,6.323c4.76,11.246,10.223,20.384,16.355,27.399c0.671,1.416,2.715,3.523,6.133,6.323
			c4.76,4.215,7.155,8.084,7.155,11.592c0,2.816-3.418,4.578-10.222,5.269c-2.044,1.416-5.462,3.87-10.222,7.377
			c-4.775,2.815-8.529,5.269-11.244,7.376c-0.687,31.614,0,55.16,2.044,70.605l1.022,1.054c0.671,1.416,1.357,1.762,2.045,1.054
			c2.715-4.215,7.155-10.538,13.288-18.968c23.159-30.198,38.843-53.744,47.021-70.605c-1.373,0-3.418,0.708-6.133,2.107
			c-2.731,1.416-4.775,2.108-6.133,2.108c-3.418-0.692-5.463-2.454-6.134-5.269c2.045-7.015,8.178-13.7,18.399-20.022h1.022
			c1.357-1.399,2.044-1.054,2.044,1.054c0,3.524,1.022,4.578,3.067,3.162c27.247-10.538,54.176-15.807,80.753-15.807
			c12.937,2.107,18.048,8.43,15.332,18.968c-14.997,45.676-35.44,82.559-61.331,110.65c-3.418,4.215-8.178,6.685-14.311,7.376
			c-6.82,0-12.953-7.722-18.399-23.184c0-0.692-1.022-4.215-3.066-10.538c-1.374-5.615-2.396-8.776-3.066-9.484
			c-8.178,10.538-19.773,22.492-34.755,35.83c-2.044,0.708-2.396-0.692-1.022-4.215c29.979-37.229,46.334-70.243,49.065-99.058
			c-0.687,0.708-1.709,1.416-3.066,2.107c-1.374,0.708-2.396,1.416-3.066,2.107c-20.444,27.399-38.508,56.906-54.177,88.52
			c-1.373,2.107-3.066,4.923-5.11,8.43c-6.82,14.753-11.931,21.784-15.333,21.076
			C2575.935,271.618,2574.226,269.51,2573.555,265.986z M2580.71,127.938c-1.373,10.538-2.044,21.784-2.044,33.722
			c6.133-4.215,11.244-8.431,15.333-12.646c0.671,0,0.671-0.691,0-2.107l-1.022-2.107c-1.373-1.4-3.418-4.215-6.133-8.431
			C2583.426,130.753,2581.381,127.938,2580.71,127.938z M2653.286,205.919c4.089,23.184,9.535,36.538,16.354,40.044
			c2.716,0,4.425-0.346,5.111-1.054c23.846-25.291,42.58-59.359,56.221-102.219c0.671-3.507-1.374-5.96-6.134-7.376
			c-17.042,0-34.083,2.815-51.109,8.43C2675.087,159.206,2668.268,179.937,2653.286,205.919z"/>
	</g>
	<g>
		<path fill="#FFFFFF" d="M1100.134,435.03h-17.782c1.147-10.261,5.178-18.084,12.094-23.471c6.915-5.386,15.281-8.079,25.097-8.079
			c11.281,0,20.618,3.217,28.012,9.649c7.393,6.432,11.09,14.488,11.09,24.168c0,12.037-6.119,21.241-18.356,27.609
			c14.341,7.389,21.511,17.579,21.511,30.572c0,10.191-3.905,19.028-11.712,26.513c-7.808,7.482-17.065,11.225-27.773,11.225
			c-10.772,0-20.094-2.693-27.964-8.079c-7.873-5.385-13.05-13.91-15.536-25.574h18.165c3.951,12.62,12.046,18.93,24.284,18.93
			c6.246,0,11.695-2.15,16.349-6.453c4.651-4.302,6.979-9.321,6.979-15.058c0-5.99-2.136-11.487-6.406-16.492
			c-4.271-5.002-11.281-7.601-21.033-7.791v-15.105c7.457-0.127,13.304-1.956,17.543-5.484c4.238-3.528,6.357-8.058,6.357-13.591
			c0-5.658-1.976-10.458-5.927-14.4c-3.953-3.942-8.764-5.914-14.437-5.914c-5.354,0-9.625,1.339-12.811,4.016
			C1104.69,424.896,1102.109,429.167,1100.134,435.03z"/>
		<path fill="#FFFFFF" d="M1290.808,400.995l12.661,8.757l-26.759,39.142c2.232-0.254,3.796-0.383,4.689-0.383l3.54-0.191
			c11.354,0,21.338,4.049,29.95,12.143c8.612,8.095,12.919,17.433,12.919,28.012c0,12.558-4.271,23.2-12.811,31.932
			c-8.542,8.733-18.963,13.099-31.263,13.099c-12.301,0-22.818-4.286-31.549-12.859c-8.733-8.571-13.098-18.913-13.098-31.023
			c0-9.306,2.74-17.909,8.222-25.813L1290.808,400.995z M1310.407,489.047c0-7.393-2.662-13.781-7.983-19.168
			c-5.322-5.386-11.616-8.079-18.882-8.079c-7.266,0-13.609,2.725-19.025,8.175c-5.418,5.449-8.126,11.807-8.126,19.072
			c0,7.521,2.629,13.88,7.887,19.073c5.258,5.196,11.679,7.792,19.265,7.792c7.457,0,13.798-2.612,19.025-7.84
			C1307.793,502.848,1310.407,496.505,1310.407,489.047z"/>
		<path fill="#FFFFFF" d="M1446.969,403.48c13.384,0,24.267,6.009,32.648,18.021c8.381,12.016,12.572,27.615,12.572,46.799
			c0,19.886-4.51,35.726-13.528,47.516c-9.02,11.793-19.838,17.688-32.458,17.688c-13.13,0-24.044-6.038-32.744-18.117
			c-8.7-12.078-13.05-27.454-13.05-46.13c0-20.713,4.477-36.855,13.433-48.424c8.954-11.568,19.678-17.353,32.171-17.353H1446.969z
			 M1474.789,468.109c0-13.767-2.71-25.079-8.126-33.939c-5.418-8.858-12.237-13.289-20.46-13.289
			c-8.478,0-15.392,4.383-20.746,13.146c-5.354,8.765-8.031,20.316-8.031,34.657c0,14.214,2.708,25.639,8.126,34.274
			c5.417,8.637,12.429,12.954,21.033,12.954c8.285,0,15.058-4.412,20.316-13.241C1472.16,493.844,1474.789,482.323,1474.789,468.109
			z"/>
		<path fill="#FFFFFF" d="M1561.063,450.519h18.87l28.609,42.849l19.779-42.849h17.16l-53.28,115.873h-17.372l26.045-56.419
			L1561.063,450.519z"/>
		<path fill="#FFFFFF" d="M1708.385,489.621c0-10.771,4.254-20.348,12.764-28.729c8.509-8.38,18.275-12.572,29.303-12.572
			c11.344,0,21.256,4.128,29.732,12.381c8.477,8.255,12.716,17.895,12.716,28.921c0,11.09-4.159,20.858-12.477,29.303
			c-8.317,8.446-17.926,12.668-28.824,12.668c-11.664,0-21.783-4.174-30.355-12.524
			C1712.671,510.718,1708.385,500.902,1708.385,489.621z M1776.838,489.669c0-6.704-2.55-12.532-7.648-17.481
			c-5.1-4.948-11.154-7.424-18.165-7.424c-7.203,0-13.401,2.507-18.595,7.52c-5.196,5.014-7.792,10.999-7.792,17.959
			c0,6.642,2.629,12.454,7.888,17.435c5.258,4.98,11.425,7.471,18.499,7.471c6.884,0,12.907-2.553,18.069-7.662
			C1774.257,502.377,1776.838,496.438,1776.838,489.669z"/>
		<path fill="#FFFFFF" d="M1862.246,450.519h16.636v44.456c0,13.704,6.023,20.556,18.069,20.556c5.354,0,9.592-1.832,12.715-5.498
			c3.122-3.664,4.686-8.684,4.686-15.058v-44.456h16.443v47.133c0,9.881-3.219,18.007-9.656,24.38
			c-6.438,6.374-14.66,9.561-24.666,9.561c-10.198,0-18.451-3.187-24.762-9.561c-6.31-6.373-9.465-14.69-9.465-24.953V450.519z"/>
		<path fill="#FFFFFF" d="M2010.854,427.573h16.635v22.945h16.444v15.201h-16.444v63.673h-16.635V465.72h-13.099v-15.393h13.099
			V427.573z"/>
		<path fill="#FFFFFF" d="M2110.32,450.519h16.636v44.456c0,13.704,6.023,20.556,18.069,20.556c5.354,0,9.592-1.832,12.715-5.498
			c3.122-3.664,4.686-8.684,4.686-15.058v-44.456h16.443v47.133c0,9.881-3.219,18.007-9.656,24.38
			c-6.438,6.374-14.66,9.561-24.666,9.561c-10.198,0-18.451-3.187-24.762-9.561c-6.31-6.373-9.465-14.69-9.465-24.953V450.519z"/>
		<path fill="#FFFFFF" d="M2250.706,518.207c0-3.505,1.258-6.533,3.776-9.083c2.518-2.548,5.561-3.824,9.131-3.824
			c3.504,0,6.532,1.276,9.082,3.824c2.549,2.55,3.824,5.578,3.824,9.083c0,3.57-1.259,6.613-3.776,9.13
			c-2.519,2.518-5.562,3.776-9.13,3.776c-3.57,0-6.613-1.243-9.131-3.729C2251.964,524.899,2250.706,521.84,2250.706,518.207z"/>
		<path fill="#FFFFFF" d="M2410.112,505.3v19.025c-8.478,4.845-16.699,7.267-24.666,7.267c-10.899,0-20.444-4.095-28.634-12.285
			c-8.19-8.189-12.285-17.671-12.285-28.442c0-12.238,4.078-22.387,12.237-30.45c8.158-8.063,18.388-12.095,30.689-12.095
			c7.329,0,14.882,1.912,22.658,5.736v18.548c-8.351-5.354-16.253-8.031-23.71-8.031c-6.884,0-12.906,2.423-18.069,7.267
			s-7.744,10.516-7.744,17.018c0,7.33,2.422,13.496,7.267,18.499c4.843,5.005,10.771,7.505,17.782,7.505
			C2392.775,514.86,2400.935,511.674,2410.112,505.3z"/>
		<path fill="#FFFFFF" d="M2476.304,489.621c0-10.771,4.254-20.348,12.764-28.729c8.509-8.38,18.275-12.572,29.303-12.572
			c11.344,0,21.256,4.128,29.732,12.381c8.477,8.255,12.716,17.895,12.716,28.921c0,11.09-4.159,20.858-12.477,29.303
			c-8.317,8.446-17.926,12.668-28.824,12.668c-11.664,0-21.783-4.174-30.355-12.524
			C2480.59,510.718,2476.304,500.902,2476.304,489.621z M2544.757,489.669c0-6.704-2.55-12.532-7.648-17.481
			c-5.1-4.948-11.154-7.424-18.165-7.424c-7.203,0-13.401,2.507-18.595,7.52c-5.196,5.014-7.792,10.999-7.792,17.959
			c0,6.642,2.629,12.454,7.888,17.435c5.258,4.98,11.425,7.471,18.499,7.471c6.884,0,12.907-2.553,18.069-7.662
			C2542.176,502.377,2544.757,496.438,2544.757,489.669z"/>
		<path fill="#FFFFFF" d="M2631.504,529.393v-78.874h16.444v12.142c3.887-4.972,7.601-8.604,11.138-10.898
			c3.537-2.295,7.601-3.442,12.189-3.442c5.99,0,10.691,1.308,14.102,3.92c3.409,2.614,6.294,6.788,8.652,12.524
			c4.159-5.736,8.173-9.91,12.045-12.524c3.872-2.612,8.367-3.92,13.486-3.92c6.271,0,11.677,2.343,16.222,7.027
			c4.542,4.685,6.814,10.246,6.814,16.683v57.363h-16.635v-53.061c0-8.731-4.316-13.098-12.947-13.098
			c-4.924,0-9.096,2.231-12.517,6.692c-3.421,4.462-5.13,9.976-5.13,16.539v42.927h-16.636v-50.861
			c0-10.326-4.239-15.488-12.715-15.488c-5.036,0-9.307,2.104-12.812,6.31c-3.506,4.207-5.258,9.402-5.258,15.584v44.456H2631.504z"
			/>
	</g>
	<path fill-rule="evenodd" clip-rule="evenodd" fill="#FF4100" d="M853.809,10.643c87.779,0,83.243,96.997,83.243,141.979
		l4.767,60.272l15.127,202.324v160.831c-7.54,3.938-12.041,10.025-19.895,7.448c-16.722-5.486-138.068-98.532-228.931-116.756
		c-8.147-1.633-38.6,10.076-55.947,16.834c0,0-3.217-3.303-8.035-4.224c6.719-11.648,20.52-22.149,29.827-27.825
		c-0.187-0.038,7.944-0.712,8.279-1.047c2.677,1.148,13.135-0.178,13.326-0.178c6.495,0.102,66.634-16.694,74.989-16.694
		c16.162,0,29.687-2.459,42.941,22.6c-21.604-2.629-32.957-5.905-41.313-5.905c-8.347,0-51.048,7.795-66.654,12.959
		c85.841,14.629,213.455,83.8,213.742,83.914c10.098,4.235,14.513,0,14.513,0c-3.36-25.1-0.079-73.583-0.079-81.938
		c0-126.134-16.174-294.366-44.494-409.256c-3.355-14.566-49.573-12.031-60.464-12.031c-68.179,0-115.655,19.348-191.049,63.053
		V95.155C637.288,49.359,851.717,10.643,853.809,10.643 M732.159,93.883c4.542,3.824,5.076,3.366,5.076,11.667
		c0,14.579-12.524,24.244-14.248,41.803c21.978-17.33,20.884-23.464,39.217-23.464c9.08,0,21.609,4.947,21.609,18.3
		c0,19.157-36.682,68.993-53.291,86.378c25.425,14.612,166.583,37.669,166.583,78.479c0,8.355-7.622,13.163-14.615,16.44h-14.79
		c-15.524-54.292-136.358-69.731-145.491-69.731c-13.334,0-86.462,113.208-145.616,103.004
		c-3.489,16.885,16.531,106.845-15.887,106.845c-17.564,0-16.704-40.404-16.704-44.983c0-21.194,18.445-239.946,37.951-291.363
		c8.214,7.113,8.727,11.62,8.727,19.916c0,8.317-16.713,133.641-16.76,141.991v45.618c2.908,2.718-1.581,2.272,6.719,2.272
		c36.629,0,92.692-54.609,116.758-90.384h-51.396c-8.3,0.462-8.714,7.083-17.065,7.083c-8.313,0-6.685-3.306-11.304-3.802v-11.95
		c11.889-10.484,40.444-14.21,44.616-14.21c8.317,0,38.31,6.685,46.626,6.685c10.835,0,39.811-50.883,45.167-58.789v-8.766
		c0,0,3.164-2.396-5.178-2.396c-16.705,0-60.777,49.929-64.961,49.929c-14.559,0-16.656-20.789-16.656-23.286
		C667.247,168.828,727.706,97.707,732.159,93.883 M728.891,310.361c13.345,0,84.888,21.247,84.888,39.997
		c0,8.301-3.828,12.79-10.992,19.648h-15.148c-5.458-49.429-61.116-32.312-90.431-48.063
		C708.324,317.123,720.531,310.361,728.891,310.361 M723.895,376.997c15.437,0,46.665,12.489,46.665,23.342
		c0,8.3-7.626,13.107-15.698,16.511c-8.811-24.739-32.322-16.796-54.303-31.319C707.704,377.493,715.543,376.997,723.895,376.997"/>
	<g>
		<path fill="#FF4100" d="M355.618,342.063c0-2.349,1.03-6.474,2.026-10.463c1.108-4.438,2.156-8.631,2.156-11.514
			c0-6.685-2.504-21.068-5.403-37.724c-3.351-19.263-7.152-41.099-7.152-52.537v-41.332c0-9.445-10.88-66.267-37.75-66.267
			c-10.551,0-27.29,6.274-27.29,23.104c0,2.336-3.975,9.326-7.168,14.943c-4.655,8.186-7.482,13.379-7.482,16.448
			c0,3.171,1.732,6.346,3.406,9.415c1.414,2.586,2.874,5.265,2.874,7.325c0,35.024-25.515,107.146-48.028,170.776
			c-16.901,47.771-31.497,89.026-31.497,104.445c0,6.447,3.985,24.142,16.813,24.142c9.456,0,21.009-25.273,21.009-37.75
			c0-3.128-1.71-6.549-3.363-9.859c-1.431-2.862-2.908-5.82-2.908-7.928c0-6.101,2.482-13.672,4.674-20.349
			c1.545-4.709,2.912-8.881,3.334-12.183c2.045-0.247,4.371-0.254,6.806-0.263c5.642-0.018,11.478-0.038,15.346-3.129
			c31.144-24.362,72.714-54.347,77.547-55.042c2.387,0,2.781,0.445,2.995,0.683c0.104,0.119,0.259,0.288,0.466,0.462l5.876,106.562
			c0,1.105,0.169,2.67,0.42,4.849c0.943,8.271,2.903,25.482-0.412,61.842c-0.381,4.379-0.214,8.75-0.051,12.98
			c0.381,9.897,0.714,18.521-5.506,25.337c-5.599-3.68-11.482-8.059-17.684-12.666c-11.056-8.225-22.487-16.724-33.466-22.065
			l-1.31-0.64l-1.087,0.971c-0.604,0.542-0.977,0.704-1.338,0.859c-2.348,1.022-2.348,2.676-2.348,5.974
			c0,18.245,59.662,61.812,63.897,61.812c28.337,0,28.337-27.953,28.337-42.973c0-4.138,0.021-6.956,0.041-9.364
			c0.044-5.905,0.072-9.466-0.305-24.384L355.618,342.063z M244.816,347.018c-0.074-15.431,9.442-36.24,22.625-49.488
			c6.273-6.303,16.314-13.815,28.525-13.815h9.133v6.821c0.081,11.594-19.454,29.267-35.149,43.464
			c-8.277,7.49-16.118,14.583-20.696,20.302h-4.438V347.018z M300.201,172.635c0.269-2.043,0.367-2.781,2.255-4.456
			c5.933,2.76,21.603,48.946,21.47,60.083v13.272c-7.425,1.247-13.191,1.896-22.303,2.917c-5.759,0.648-12.83,1.441-22.461,2.624
			c4.788-18.441,12.979-45.881,17.491-61.002c1.416-4.744,2.417-8.097,2.747-9.284C299.88,175.051,300.059,173.711,300.201,172.635z
			 M334.525,316.944c0,12.413-42.063,31.502-57.481,37.496c9.896-14.833,26.071-27.885,40.512-39.539
			c5.316-4.29,10.396-8.389,14.775-12.281c0.299,1.917,0.651,3.744,0.979,5.436C333.934,311.294,334.525,314.351,334.525,316.944z"
			/>
		<path fill="#FF4100" d="M489.875,44.835l-0.473-0.093l-240.22,59.642c-0.27,0.013-0.52,0.038-0.75,0.072
			c4.883-7.656,11.365-16.906,17.658-25.889c14.513-20.712,20.416-29.492,20.304-32.536c0.303-1.708,1.187-7.486-0.19-10.271
			l-0.318-0.471c-0.757-0.861-2.17-1.886-4.617-1.886c-2.679,0-5.294,1.225-5.585,1.365l-0.645,0.475
			c-10.072,10.81-18.15,23.528-25.965,35.826c-12.357,19.454-24.028,37.826-42.712,48.725
			c-20.901,12.226-46.088,15.867-72.755,19.721c-25.166,3.642-51.188,7.401-73.918,18.983l-0.771,0.394l-0.289,0.814
			c-0.208,0.585-1.958,5.82,0.157,9.551l0.477,0.843l0.943,0.208c0.225,0.051,5.577,1.212,13.943,1.212
			c4.892,0,9.815-0.403,14.324-1.162c2.91,0,19.39-5.184,53.689-16.189c20.679-6.634,46.413-14.892,49.088-15.036l1.761-0.013
			c-28.216,37.877-65.904,78.985-92.02,106.828c-1.081,1.166-8.864,7.5-17.103,14.206c-36.977,30.099-40.274,33.583-40.274,35.864
			c0,4.892,7.202,21.009,23.108,21.009c18.451,0,61.434-57.852,103.001-113.797c28.924-38.933,56.244-75.703,66.825-80.612
			c50.682-23.485,109.948-30.395,162.233-36.491c9.939-1.158,19.721-2.298,28.875-3.51c11.12,0.619,20.265,0.933,27.186,0.933
			c9.176,0,12.344-0.555,13.868-0.822c0.227-0.042,0.401-0.081,0.56-0.098c11.083,2.772,18.943,4.18,23.36,4.18
			c10.749,0,24.127,0,24.127-17.873C516.758,53.81,511.482,49.079,489.875,44.835z"/>
	</g>
</g>
</svg>
