<?xml version="1.0" encoding="utf-8"?>
<!-- Generator: Adobe Illustrator 15.0.0, SVG Export Plug-In . SVG Version: 6.00 Build 0)  -->
<!DOCTYPE svg PUBLIC "-//W3C//DTD SVG 1.1//EN" "http://www.w3.org/Graphics/SVG/1.1/DTD/svg11.dtd">
<svg version="1.1" id="图层_1" xmlns="http://www.w3.org/2000/svg" xmlns:xlink="http://www.w3.org/1999/xlink" x="0px" y="0px"
	 width="400px" height="100px" viewBox="0 0 400 100" enable-background="new 0 0 400 100" xml:space="preserve">
<g>
	<g>
		<path fill="#6A6969" d="M187.764,46.821c-0.907-0.519-2.118-0.987-3.631-1.404c-4.337-1.248-7.715-2.184-10.136-2.808
			c-1.111,1.665-2.522,3.068-4.236,4.211c-1.413,0.831-3.631,0.882-6.657,0.156c-0.303,0-0.453-0.103-0.453-0.312
			c0-0.103,0.15-0.103,0.453,0c3.631,0.209,6.604-1.248,8.926-4.367c-2.927-0.832-5.9-1.195-8.926-1.092
			c-0.102,0.209-0.252,0.468-0.453,0.78c-1.111,1.769-1.868,3.172-2.27,4.211c-0.204,0.312-0.454,0.468-0.757,0.468
			c-0.605-0.312-0.808-0.987-0.605-2.027c1.007-3.222,1.713-7.019,2.118-11.386c0-1.039-0.151-1.56-0.454-1.56
			c-0.908,0.417-2.27,1.248-4.085,2.496c-0.101,0.104-0.454,0.365-1.059,0.78c-1.716,1.145-2.673,1.715-2.875,1.715
			c-0.404-0.103-0.657-0.312-0.756-0.624c0-0.208,0.099-0.415,0.302-0.624c0.807-1.662,1.362-3.015,1.665-4.055
			c0.303-0.624,0.553-0.936,0.756-0.936c0.303,0.104,0.402,0.468,0.303,1.091c-0.102,0.936-0.303,1.77-0.605,2.496
			c0.503-0.207,1.461-0.726,2.875-1.56c1.612-0.936,2.723-1.56,3.329-1.872c0.704-0.624,1.158-0.936,1.361-0.936
			c0.402,0,0.605,0.417,0.605,1.248c0,2.912-0.253,6.136-0.756,9.67c2.016-2.496,3.832-5.147,5.446-7.955
			c0.1-2.183,0.352-4.313,0.757-6.395c0-0.624-0.355-1.143-1.059-1.56c-0.303-0.102-0.454-0.258-0.454-0.468
			c0-0.208,0.25-0.312,0.756-0.312c1.815-0.207,2.622,0.572,2.42,2.339c0,2.082-0.252,4.055-0.756,5.927
			c-0.303,0.729-0.756,1.092-1.362,1.092c-0.506,0.936-1.362,2.444-2.572,4.523c-0.605,1.041-1.009,1.769-1.21,2.184
			c2.924,0.209,6,0.521,9.229,0.936c0.908-1.56,1.713-3.378,2.421-5.459c-1.816,0.729-3.732,1.925-5.75,3.587
			c-0.908,0.209-1.312-0.208-1.21-1.248c2.723-4.886,5.344-8.162,7.867-9.826c-2.522-0.312-3.683-1.506-3.479-3.587
			c0-0.102,0-0.207,0-0.312c0.099-1.248,0.303-2.597,0.605-4.055c-0.908,0.312-2.019,0.885-3.329,1.716
			c-0.101,0-0.252,0.054-0.454,0.156c-0.303,0.312-0.506,0.312-0.605,0c-0.302-0.207-0.203-0.57,0.303-1.092
			c1.816-1.35,3.783-2.339,5.9-2.963c0.605,0,0.908,0.261,0.908,0.78c0,0.312-0.102,0.573-0.303,0.78
			c-0.203,0.105-0.354,0.21-0.453,0.312c-0.605,1.146-0.908,2.756-0.908,4.835c-0.102,1.146,0.2,1.716,0.908,1.716h3.025
			c0.099,0,0.25-0.051,0.454-0.156l0.454-0.156c0.806,0,1.21,0.261,1.21,0.78c0,0.21-0.102,0.468-0.303,0.78
			c-4.137,1.977-7.212,4.889-9.229,8.734c0.908-0.519,2.319-1.35,4.236-2.496c0.908-0.519,1.612-0.936,2.118-1.248
			c0.806,0.312,1.007,0.834,0.605,1.56c-0.707,2.184-1.716,4.577-3.025,7.175c1.21,0.209,3.125,0.572,5.749,1.092
			c1.815,0.417,3.227,0.729,4.236,0.936c2.319,1.041,3.529,2.028,3.63,2.963C188.52,46.509,188.268,46.718,187.764,46.821z
			 M161.743,22.646c0-0.312,0.2-0.57,0.605-0.78h0.151c0.806-0.624,1.158-1.092,1.059-1.404c-2.624-0.936-3.934-2.129-3.934-3.587
			c0-0.414,0.1-0.624,0.303-0.624c0.303,0,0.705,0.312,1.21,0.936c0.303,0.417,0.503,0.678,0.605,0.78
			c0.704,0.522,2.117,0.99,4.235,1.404c0.402,0.21,0.605,0.573,0.605,1.091c0,0.522-0.102,0.78-0.303,0.78
			c-0.203,0-0.454,0.054-0.756,0.156c-0.303,0.105-0.809,0.366-1.513,0.78c-1.009,0.522-1.664,0.78-1.966,0.78
			C161.842,22.958,161.743,22.855,161.743,22.646z"/>
		<path fill="#6A6969" d="M229.308,28.104c0.099,0.522-0.454,0.834-1.665,0.936c-2.724,0.21-5.548,0.884-8.472,2.027
			c0,1.041,0,2.132,0,3.275c0.099,1.769,0.151,3.641,0.151,5.615c0,1.769,0,4.265,0,7.487c0,1.872-0.404,3.431-1.211,4.678h-0.15
			c-0.102,0.103-0.254,0-0.453-0.312c-0.103-1.56-0.152-3.899-0.152-7.019c-0.102-3.119-0.152-5.458-0.152-7.019
			c0-0.727-0.05-1.818-0.15-3.275c0-1.144,0-1.974,0-2.496c-1.716,0.729-3.328,1.508-4.842,2.339
			c-0.202,0.209-0.505,0.417-0.907,0.624c-0.404,0.312-0.707,0.572-0.907,0.78c-2.624,3.536-5.397,6.967-8.32,10.294
			c-0.204,0-0.354,0-0.455,0c-0.604-0.103-0.959-0.363-1.058-0.78c0-0.415,0.25-1.195,0.755-2.34c0.202-0.312,0.354-0.57,0.455-0.78
			c0.908-3.534,1.361-6.446,1.361-8.734c0-0.102,0-0.312,0-0.624c0.1-1.248,0-2.129-0.303-2.651
			c-2.624,1.352-5.094,2.86-7.413,4.523c-0.204,0.209-0.405,0.312-0.605,0.312c-0.404-0.103-0.657-0.415-0.756-0.936
			c0.201-1.248,0.756-2.339,1.664-3.275c0.402-0.312,0.705-0.468,0.908-0.468c0.1,0.104,0.05,0.366-0.151,0.78
			c0,0.729,0.151,0.989,0.454,0.78h0.151c0.504-0.207,1.21-0.624,2.118-1.248c1.513-0.936,2.723-1.506,3.631-1.716
			c0.201-0.102,0.402-0.312,0.605-0.624c0.402-0.52,0.855-0.78,1.362-0.78c0.703,0,1.058,0.21,1.058,0.624
			c0,0.312-0.203,0.522-0.604,0.624c-0.404,0.21-0.605,0.468-0.605,0.78c0,0.522,0.05,1.248,0.152,2.184
			c0.099,0.834,0.15,1.458,0.15,1.872c0,0.833-0.15,2.132-0.453,3.899c-0.303,1.664-0.455,2.86-0.455,3.587c-0.101,0,0,0,0.303,0
			c0.303-0.312,0.757-0.78,1.361-1.404c1.411-1.56,2.421-2.807,3.026-3.743c0-0.103,0-0.312,0-0.624
			c0.1-1.35,0.553-2.028,1.362-2.028h0.302c0.2,0.104,0.353,0.156,0.454,0.156c0.1,0,0.25-0.052,0.453-0.156
			c2.118-1.143,4.033-2.079,5.749-2.807c0-3.845,0.251-7.331,0.756-10.45c0.101-0.414-0.052-0.57-0.453-0.468h-0.152
			c-0.202-0.102-0.353-0.051-0.453,0.156c0.201,0.417,0.201,0.834,0,1.248c0,0.104,0,0.21,0,0.312
			c-1.21-0.312-1.966-1.194-2.269-2.652c0-0.312,0.303-0.57,0.908-0.78h0.15c0.402,0,1.008-0.156,1.815-0.468
			c1.007-0.312,1.715-0.468,2.118-0.468c0.605,0,0.908,0.312,0.908,0.936c0,0.21-0.053,0.417-0.152,0.624
			c-0.505,2.496-0.857,6.188-1.059,11.074c2.52-0.936,5.295-1.716,8.321-2.339h0.605C228.902,27.169,229.308,27.48,229.308,28.104z
			 M204.95,19.682c0.1-0.102,0.201-0.312,0.303-0.624v-0.156c-0.102-0.102-0.254-0.207-0.453-0.312
			c-1.616-0.83-2.421-1.715-2.421-2.651c0-0.414,0.25-0.624,0.756-0.624c0.303,0,0.705,0.261,1.21,0.78
			c0.504,0.522,0.855,0.78,1.059,0.78c0.201,0.105,0.605,0.21,1.21,0.312c1.311,0.105,1.968,0.573,1.968,1.403
			c0,0.729-0.556,1.146-1.665,1.248c-0.202,0-0.354,0-0.453,0c-0.204,0.21-0.354,0.312-0.454,0.312h-0.151
			C205.253,20.048,204.95,19.892,204.95,19.682z"/>
		<path fill="#6A6969" d="M261.168,47.913c-1.009-0.417-2.571-0.834-4.689-1.248c-1.413-0.312-2.474-0.57-3.177-0.78
			c-4.842-1.35-8.927-1.611-12.255-0.78c-0.303,0.105-0.756,0.365-1.361,0.78c-0.605,0.417-1.06,0.624-1.362,0.624
			s-0.505-0.207-0.605-0.624h-0.15c0-0.936,1.412-1.662,4.236-2.184c1.611-0.312,3.177-0.468,4.689-0.468
			c-0.403-0.624,0-1.194,1.211-1.715h0.15c0.201-0.103,0.303-0.259,0.303-0.468h-0.15c-1.514-1.455-2.22-3.17-2.118-5.147
			c0-0.519,0.15-1.194,0.453-2.027c0.303-0.726,0.454-1.299,0.454-1.716c-1.513,0.417-3.582,1.56-6.202,3.431
			c-0.707,0.521-1.263,0.885-1.665,1.092c-0.506,0-0.857-0.258-1.059-0.78c0.504-1.455,1.764-3.066,3.782-4.835
			c0.402-0.102,0.604,0.105,0.604,0.624c-0.102,0.21-0.303,0.624-0.604,1.248c-0.102,0.105-0.151,0.21-0.151,0.312
			c1.713-1.143,3.529-2.129,5.445-2.963c0.101-0.102,0.251-0.312,0.455-0.624c0.2-0.414,0.553-0.624,1.059-0.624
			c1.411,0.104,2.118,0.572,2.118,1.404c0,0.417-0.404,1.04-1.211,1.872c-0.808,0.833-1.262,1.457-1.36,1.872
			c-0.708,1.457-0.758,2.86-0.152,4.211c0.201,0.209,0.554,0.573,1.06,1.092c1.31,0.936,1.967,1.716,1.967,2.339
			c0,0.312-0.303,0.573-0.908,0.78c-0.102,0-0.204,0-0.303,0c-0.101,0-0.303,0.054-0.604,0.156
			c-0.707,0.104-1.211,0.261-1.514,0.468c1.715,0.312,4.286,0.833,7.716,1.56c1.715,0.417,2.975,0.729,3.782,0.936
			c0.402,0.104,1.008,0.261,1.815,0.468c2.118,0.521,3.729,0.729,4.842,0.624c0.502-0.103,1.41-0.259,2.722-0.468
			c2.219-0.52,3.882-0.78,4.994-0.78c0.704-0.103,1.059,0.156,1.059,0.78c0,0.209-0.404,0.417-1.211,0.624
			c-0.303,0.102-0.505,0.156-0.605,0.156c-0.706,0.102-1.663,0.363-2.874,0.78c-1.21,0.414-2.17,0.674-2.874,0.78
			c-0.604,0.102-1.21,0.156-1.815,0.156c-0.507,0-1.362-0.156-2.572-0.468C261.925,48.17,261.471,48.015,261.168,47.913z
			 M246.493,24.829c0-0.207,0.401-0.519,1.211-0.936c1.309-0.726,1.966-1.404,1.966-2.028c-0.101-0.102-0.303-0.258-0.604-0.468
			c-1.211-0.519-1.816-1.194-1.816-2.027c0.101-0.726,0.403-1.092,0.908-1.092h0.152c0.199,0.833,0.957,1.509,2.269,2.027
			c1.109,0.312,1.663,0.78,1.663,1.404c0,0.729-0.403,1.248-1.21,1.56c-1.312,0.834-2.673,1.458-4.085,1.872
			C246.645,25.141,246.493,25.039,246.493,24.829z M260.563,44.793c0-0.103,0-0.415,0-0.936c0.1-0.727,0.152-1.194,0.152-1.404
			c-0.103-1.143-0.152-2.496-0.152-4.055c-1.716,0.833-3.43,1.716-5.143,2.651c-0.605,0.312-1.263,0.78-1.968,1.404
			c-0.908,0.209-1.312-0.259-1.211-1.404c1.109-0.936,2.219-1.923,3.329-2.963c0.908-1.143,2.622-2.858,5.145-5.147
			c0-1.143,0-1.872,0-2.184c-0.303,0.105-1.362,0.677-3.179,1.716c-0.808,0.417-1.262,0.678-1.36,0.78
			c-0.204,0.104-0.455,0.312-0.756,0.624c-0.605,0.521-1.011,0.78-1.211,0.78c-0.604-0.103-0.96-0.363-1.06-0.78
			c0-0.312,0.152-0.726,0.455-1.248c0.099-0.207,0.15-0.363,0.15-0.468c1.311-2.184,2.571-4.574,3.781-7.174
			c-0.202,0.104-0.554,0.312-1.058,0.624c-1.514,0.834-2.624,1.614-3.329,2.34h-0.15c-0.507-0.102-0.758-0.363-0.758-0.78
			c0.403-1.143,0.758-1.767,1.061-1.872c0.199,0.104,0.352,0.21,0.453,0.312h0.454c0.605-0.414,1.563-0.936,2.874-1.56
			c0.401-0.207,0.704-0.362,0.908-0.468c0.908-2.496,1.461-4.418,1.664-5.771v-0.624c-1.01-0.414-1.766-0.675-2.27-0.78
			c-0.507-0.207-0.809-0.519-0.907-0.936c0-0.414,0.302-0.624,0.907-0.624h0.303c0.099,0,0.251,0,0.453,0
			c2.421,0.21,3.632,0.936,3.632,2.184c0,0.312-0.102,0.573-0.303,0.78c-0.303,1.56-0.707,3.12-1.211,4.679
			c0.201-0.102,0.554-0.312,1.061-0.624c1.813-1.038,3.274-1.61,4.387-1.715c0.704-0.102,1.059,0.156,1.059,0.78
			c-0.102,0.522-0.303,0.884-0.605,1.092c-0.505,0.105-0.858,0.156-1.059,0.156c-2.322,0.624-4.137,1.353-5.446,2.184
			c-0.102,0.104-0.151,0.312-0.151,0.624c0.605-0.102,1.461-0.156,2.571-0.156c0.303,0.105,0.504,0.468,0.605,1.092
			c-0.102,0.312-0.151,1.041-0.151,2.184c0.1,0,0.302-0.051,0.604-0.156c0.807-0.312,1.362-0.52,1.665-0.624
			c0.503,0,0.756,0.261,0.756,0.78c0,0.21-0.052,0.468-0.15,0.78c-0.103,0.105-0.354,0.366-0.757,0.78
			c-0.908,0.834-1.614,1.509-2.118,2.028c0,1.248,0,2.705,0,4.367c0.302-0.103,0.655-0.259,1.06-0.468
			c0.504-0.207,0.855-0.363,1.059-0.468c-0.203-0.103-0.303-0.207-0.303-0.312c-0.203,0-0.303-0.156-0.303-0.468
			c-0.203-0.207-0.203-0.312,0-0.312c0.1-0.102,0.402-0.156,0.908-0.156h0.907c0.908,0.104,1.412,0.156,1.513,0.156
			c0.706,0,1.059,0.312,1.059,0.936c0,0.624-0.505,1.041-1.512,1.248c-0.204,0-0.354,0-0.454,0l-4.085,1.56v5.927
			c0,1.353-0.253,2.028-0.756,2.028C261.018,45.729,260.662,45.417,260.563,44.793z M256.326,31.38
			c0.705-0.312,1.815-0.882,3.329-1.716c0.402-0.312,0.705-0.519,0.907-0.624c0.1-0.208,0.152-0.936,0.152-2.184
			c0.099-0.208,0-0.363-0.303-0.468c-0.103,0-0.303,0-0.605,0c-0.303,0.104-0.507,0.156-0.605,0.156
			c-0.101,0-0.253-0.051-0.454-0.156c-0.203,0.312-0.453,0.884-0.756,1.715C257.182,29.664,256.629,30.756,256.326,31.38z
			 M256.326,38.71c1.513-0.519,2.925-1.092,4.236-1.716c0-0.415,0.05-1.038,0.152-1.872c0-0.624,0-1.092,0-1.404
			C258.899,35.591,257.436,37.255,256.326,38.71z M262.529,29.82v1.248c0.302-0.312,0.655-0.675,1.06-1.092l0.756-0.78
			c0-0.102-0.354,0-1.059,0.312C262.882,29.718,262.629,29.82,262.529,29.82z"/>
		<path fill="#6A6969" d="M294.088,27.949c0,0.522-0.303,0.884-0.908,1.092c-0.102,0.104-0.202,0.156-0.303,0.156
			s-0.253,0.054-0.453,0.156c-0.303,0.104-0.506,0.21-0.604,0.312c0,1.458,0,2.963,0,4.523c0.604-0.415,1.41-1.351,2.42-2.808
			l0.151-0.156c0.201-0.208,0.402-0.312,0.604-0.312c0.202,0.104,0.251,0.312,0.152,0.624c-0.708,1.56-1.815,3.12-3.328,4.679
			c0,0.209,0,0.989,0,2.339c0.099,1.872,0.15,2.964,0.15,3.275c0.605-0.312,1.411-0.675,2.421-1.092
			c1.108-0.519,1.914-0.882,2.421-1.092c1.611-2.183,2.723-4.055,3.328-5.615c-2.322,1.041-4.137,1.977-5.446,2.808
			c-0.605-0.312-0.756-0.727-0.454-1.248c1.31-0.936,2.671-2.183,4.085-3.743c0.504-0.726,1.109-1.662,1.815-2.807
			c0.099-0.102,0.15-0.208,0.15-0.312c0.303-0.414,0.251-0.52-0.15-0.312c-1.111,0.624-1.968,1.353-2.572,2.184
			c-0.809,0.624-1.361,0.366-1.664-0.78c0-0.726,0.201-1.248,0.605-1.56c0.504-0.624,1.006-1.716,1.513-3.275
			c-0.507,0.312-1.009,0.624-1.513,0.936c-1.514,0.417-2.171,0.105-1.967-0.936c0.401-0.414,1.059-1.143,1.967-2.184
			c1.411-1.455,2.47-2.598,3.177-3.431c0.201-0.207,0.151-0.414-0.151-0.624c-1.614-0.831-2.473-2.078-2.572-3.743
			c0-0.624,0.152-0.935,0.454-0.935c0.401,0.104,0.704,0.417,0.908,0.935c0.201,0.936,1.059,1.715,2.571,2.339
			c0.807,0.312,1.311,0.834,1.513,1.56c0.101,0.312-0.15,0.678-0.755,1.092c-0.908,0.624-1.718,1.302-2.421,2.028
			c-0.303,0.312-0.605,0.624-0.908,0.936c-0.204,0.21-0.354,0.366-0.455,0.468c0.303,0,0.758-0.208,1.363-0.624
			c0.302-0.208,0.502-0.363,0.604-0.468c0.303-0.207,0.704-0.468,1.211-0.78c1.006-0.726,1.864-1.142,2.571-1.248
			c0.504-0.102,0.855,0.261,1.059,1.092c0,0.21-0.15,0.366-0.453,0.468c-0.102,0.105-0.204,0.156-0.303,0.156
			c-0.102,0-0.254,0.054-0.455,0.156c-0.505,0.21-1.159,0.522-1.966,0.936c-1.211,0.729-2.118,2.237-2.724,4.523
			c0.1,0,0.402-0.208,0.908-0.624c1.008-0.519,1.612-0.831,1.815-0.936c0.807-0.624,1.461-0.936,1.966-0.936
			c1.008-0.102,1.461,0.522,1.362,1.872c0,0.21-0.354,0.468-1.06,0.78l-0.303,0.156c-0.101,0.104-0.202,0.21-0.303,0.312
			c-2.018,1.664-3.176,3.017-3.479,4.055c0.604-0.312,1.665-0.936,3.177-1.872l0.302-0.156c1.109-0.831,1.916-1.248,2.421-1.248
			c0.605,0,0.908,0.26,0.908,0.78c0,0.522-0.605,1.248-1.815,2.184c-0.303,0.209-0.555,0.366-0.756,0.468
			c-0.102,0.104-0.254,0.21-0.455,0.312c-0.808,0.624-1.312,1.196-1.512,1.716c-0.203,0.417-0.809,1.352-1.815,2.807
			c-0.507,0.624-0.809,1.041-0.907,1.248c0.604-0.312,1.713-0.726,3.328-1.248l-0.303-0.156c-0.204-0.624,0-1.039,0.604-1.248
			c0.302,0,0.705,0,1.21,0c1.008-0.103,1.916,0,2.724,0.312c2.925-0.831,5.9-1.404,8.926-1.715c0.908,0,1.361,0.417,1.361,1.248
			c-0.102,0.417-0.303,0.624-0.605,0.624c-3.63,0.417-7.011,1.04-10.135,1.872c-0.708,1.04-1.362,2.288-1.968,3.743
			c-0.303,0.521-0.203,0.936,0.303,1.248c3.025,0.833,5.395,1.82,7.11,2.963c0.807,0.312,1.26,0.729,1.362,1.248
			c0,0.831-0.354,1.142-1.06,0.936c-2.321-1.455-5.195-2.808-8.624-4.055c-0.303-0.103-0.604,0-0.906,0.312
			c-2.221,2.081-4.792,3.065-7.716,2.963c-0.204,0-0.354-0.054-0.454-0.156c0-0.105,0.151-0.21,0.454-0.312
			c2.217-0.208,4.085-1.143,5.598-2.808c0.2-0.312,0.15-0.57-0.152-0.78c-1.312-0.519-2.874-0.624-4.689-0.312
			c-0.505,0.104-0.907-0.103-1.21-0.624c-0.203,0.105-0.557,0.261-1.059,0.468c-0.507,0.209-0.858,0.365-1.06,0.468
			c0,1.56-0.053,2.6-0.151,3.119c-0.203,2.286-0.757,3.432-1.665,3.432c-1.11-0.417-2.419-1.977-3.932-4.679
			c-0.102-0.312-0.102-0.468,0-0.468c0.099,0,0.25,0.104,0.453,0.312c0.1,0.104,0.303,0.312,0.604,0.624
			c0.705,0.833,1.311,1.35,1.816,1.56c0.402,0.207,0.654,0.051,0.756-0.468c0.1-0.415,0.151-1.248,0.151-2.495
			c-0.102,0-0.303-0.052-0.605-0.156h-0.302c-0.506-0.312-0.756-0.624-0.756-0.936c0-0.208,0.25-0.363,0.756-0.468
			c0.402,0,0.705-0.156,0.907-0.468c-0.102-0.936-0.202-2.442-0.303-4.523c-2.421,1.56-4.488,3.431-6.202,5.615
			c-0.404,0.312-0.808,0.104-1.211-0.624c0.705-2.495,1.412-3.95,2.118-4.367c0.201,0,0.401,0.105,0.605,0.312
			c0.201,0.105,0.352,0.156,0.453,0.156c0.201,0,1.563-1.039,4.086-3.12c0-1.662,0-3.377,0-5.147
			c-1.21,0.624-3.078,1.77-5.599,3.432c-0.303,0.209-0.657,0.209-1.059,0h-0.15c-0.605-0.415-0.908-0.832-0.908-1.248
			c-0.103-0.936,0.15-1.506,0.756-1.715c0.101,0.104,0.201,0.312,0.303,0.624c0.1,0.417,0.251,0.624,0.453,0.624
			c0.201,0,0.504-0.051,0.908-0.156c1.815-1.35,3.631-2.496,5.446-3.432c0-2.495,0.151-4.937,0.453-7.331
			c0-0.102-0.101-0.156-0.302-0.156c-0.203,0-0.454,0.054-0.756,0.156h-0.303c-0.506-0.102-0.707-0.362-0.605-0.78
			c0.605-0.624,1.764-0.986,3.479-1.092c0.504,0.105,0.705,0.678,0.605,1.716c-0.303,2.082-0.506,4.211-0.605,6.395
			c0.303-0.207,0.605-0.363,0.907-0.468C293.582,27.013,293.986,27.223,294.088,27.949z M302.258,41.518
			c0.099-0.103,0.2-0.363,0.303-0.78c0.401-0.936,0.654-1.611,0.756-2.027c-2.824,0.729-4.894,1.56-6.202,2.496
			c1.411,0,2.772,0.26,4.084,0.78C301.601,42.09,301.955,41.935,302.258,41.518z"/>
		<path fill="#6A6969" d="M324.587,32.627c0-0.312,0.303-0.468,0.907-0.468c0.202,0,0.353,0,0.455,0
			c0.099,0,0.251-0.051,0.453-0.156l0.455-0.156c0.302-0.102,0.552-0.156,0.756-0.156c0.1,0.104,0,0.261-0.303,0.468
			c-0.102,0.104-0.254,0.21-0.453,0.312c-0.104,0.104-0.254,0.21-0.455,0.312c0.504,0.624,1.06,0.989,1.664,1.092
			c0.504,0,1.461-0.259,2.875-0.78c0.605-0.312,1.107-0.52,1.513-0.624c8.673-2.909,15.53-4.106,20.575-3.587
			c1.815,0.105,2.723,0.624,2.723,1.56c0,0.624-0.253,0.936-0.757,0.936c-0.202,0-0.453-0.102-0.756-0.312
			c-0.204-0.102-0.354-0.156-0.454-0.156c-4.034-0.936-11.447,0.366-22.238,3.899c-0.204,0.105-0.858,0.417-1.968,0.936
			l-1.059,0.468C326.402,35.591,325.091,34.396,324.587,32.627z"/>
		<path fill="#6A6969" d="M373.695,44.637c-1.011-3.119-1.362-7.277-1.06-12.478c-0.102,0.104-0.253,0.21-0.453,0.312
			c-3.128,1.769-5.347,2.6-6.657,2.496c-0.605-0.312-0.707-0.78-0.303-1.404c2.118-0.312,4.588-1.351,7.413-3.119
			c0.201-3.327,0.251-6.602,0.151-9.826c-0.302-1.35-0.103-2.078,0.605-2.184c0.605,0,1.007,0.624,1.211,1.872
			c0,0.522,0.049,0.834,0.15,0.936c0.704,1.665,1.513,3.017,2.421,4.055c0.099,0.21,0.401,0.521,0.907,0.936
			c0.704,0.624,1.059,1.196,1.059,1.716c0,0.417-0.505,0.678-1.513,0.78c-0.303,0.21-0.808,0.572-1.513,1.092
			c-0.707,0.417-1.263,0.78-1.664,1.092c-0.102,4.679,0,8.164,0.303,10.45l0.15,0.156c0.101,0.209,0.201,0.26,0.303,0.156
			c0.402-0.624,1.06-1.56,1.968-2.808c3.427-4.47,5.748-7.954,6.958-10.45c-0.202,0-0.505,0.104-0.907,0.312
			c-0.404,0.21-0.707,0.312-0.908,0.312c-0.505-0.102-0.808-0.363-0.907-0.78c0.303-1.038,1.21-2.028,2.723-2.963h0.152
			c0.2-0.208,0.303-0.156,0.303,0.156c0,0.522,0.15,0.678,0.453,0.468c4.032-1.56,8.019-2.339,11.952-2.339
			c1.914,0.312,2.67,1.248,2.269,2.808c-2.219,6.76-5.245,12.219-9.076,16.376c-0.507,0.624-1.211,0.989-2.118,1.092
			c-1.01,0-1.917-1.143-2.724-3.431c0-0.103-0.15-0.624-0.453-1.56c-0.204-0.831-0.354-1.299-0.455-1.403
			c-1.21,1.56-2.926,3.329-5.143,5.303c-0.303,0.104-0.354-0.103-0.152-0.624c4.438-5.51,6.857-10.396,7.263-14.661
			c-0.103,0.105-0.253,0.21-0.454,0.312c-0.203,0.105-0.354,0.21-0.453,0.312c-3.026,4.055-5.7,8.422-8.019,13.102
			c-0.204,0.312-0.455,0.729-0.758,1.248c-1.009,2.184-1.765,3.224-2.269,3.119C374.047,45.47,373.794,45.158,373.695,44.637z
			 M374.754,24.206c-0.203,1.56-0.303,3.224-0.303,4.991c0.908-0.624,1.664-1.248,2.269-1.872c0.101,0,0.101-0.102,0-0.312
			l-0.15-0.312c-0.204-0.207-0.507-0.624-0.907-1.248C375.155,24.622,374.853,24.206,374.754,24.206z M385.496,35.747
			c0.604,3.431,1.41,5.408,2.419,5.927c0.402,0,0.656-0.051,0.757-0.156c3.529-3.744,6.302-8.786,8.321-15.129
			c0.099-0.52-0.204-0.882-0.907-1.092c-2.522,0-5.045,0.417-7.565,1.248C388.722,28.833,387.713,31.902,385.496,35.747z"/>
	</g>
	<g>
		<path fill="#6A6969" d="M155.625,69.655h-2.632c0.17-1.519,0.767-2.676,1.791-3.473c1.023-0.797,2.262-1.195,3.714-1.195
			c1.67,0,3.052,0.476,4.146,1.428c1.094,0.951,1.642,2.144,1.642,3.576c0,1.782-0.906,3.144-2.717,4.086
			c2.122,1.095,3.184,2.603,3.184,4.525c0,1.508-0.578,2.815-1.734,3.924c-1.156,1.107-2.525,1.661-4.11,1.661
			c-1.594,0-2.974-0.399-4.139-1.195c-1.166-0.797-1.932-2.06-2.299-3.785h2.688c0.585,1.867,1.783,2.802,3.594,2.802
			c0.924,0,1.731-0.318,2.42-0.956c0.688-0.636,1.033-1.38,1.033-2.228c0-0.886-0.316-1.7-0.948-2.44
			c-0.632-0.741-1.669-1.125-3.112-1.153v-2.236c1.103-0.02,1.969-0.29,2.596-0.811c0.627-0.522,0.941-1.193,0.941-2.012
			c0-0.839-0.292-1.548-0.877-2.132c-0.585-0.584-1.297-0.876-2.137-0.876c-0.792,0-1.424,0.199-1.896,0.595
			S155.917,68.787,155.625,69.655z"/>
		<path fill="#6A6969" d="M183.846,64.619l1.874,1.296l-3.96,5.793c0.331-0.038,0.562-0.057,0.694-0.057l0.524-0.028
			c1.681,0,3.159,0.599,4.433,1.797s1.912,2.579,1.912,4.146c0,1.858-0.632,3.435-1.896,4.726c-1.265,1.294-2.807,1.938-4.627,1.938
			c-1.821,0-3.377-0.633-4.67-1.902c-1.292-1.269-1.938-2.799-1.938-4.592c0-1.377,0.405-2.65,1.217-3.821L183.846,64.619z
			 M186.747,77.651c0-1.095-0.394-2.041-1.182-2.839c-0.788-0.797-1.719-1.195-2.794-1.195c-1.075,0-2.014,0.404-2.815,1.211
			c-0.802,0.806-1.203,1.747-1.203,2.823c0,1.113,0.389,2.054,1.167,2.822s1.729,1.152,2.851,1.152c1.104,0,2.042-0.387,2.816-1.159
			C186.359,79.693,186.747,78.755,186.747,77.651z"/>
		<path fill="#6A6969" d="M206.958,64.987c1.98,0,3.591,0.889,4.832,2.666c1.239,1.778,1.861,4.087,1.861,6.927
			c0,2.943-0.668,5.288-2.003,7.033c-1.336,1.744-2.937,2.616-4.804,2.616c-1.944,0-3.559-0.893-4.846-2.681
			c-1.289-1.787-1.933-4.063-1.933-6.828c0-3.064,0.663-5.453,1.988-7.166c1.325-1.712,2.913-2.567,4.762-2.567H206.958z
			 M211.075,74.552c0-2.037-0.401-3.711-1.202-5.023c-0.803-1.312-1.812-1.967-3.028-1.967c-1.255,0-2.278,0.648-3.07,1.946
			c-0.793,1.297-1.189,3.007-1.189,5.129c0,2.104,0.401,3.794,1.203,5.072s1.839,1.917,3.112,1.917c1.227,0,2.229-0.653,3.007-1.959
			C210.687,78.36,211.075,76.655,211.075,74.552z"/>
		<path fill="#6A6969" d="M223.844,71.948h2.793l4.234,6.342l2.928-6.342h2.539l-7.886,17.149h-2.57l3.854-8.35L223.844,71.948z"/>
		<path fill="#6A6969" d="M245.648,77.735c0-1.594,0.629-3.012,1.889-4.251c1.259-1.241,2.705-1.861,4.337-1.861
			c1.678,0,3.146,0.61,4.4,1.832c1.254,1.222,1.882,2.648,1.882,4.28c0,1.642-0.615,3.087-1.846,4.338
			c-1.232,1.249-2.654,1.874-4.268,1.874c-1.727,0-3.224-0.617-4.492-1.854C246.281,80.858,245.648,79.405,245.648,77.735z
			 M255.779,77.743c0-0.993-0.378-1.855-1.133-2.588s-1.65-1.098-2.688-1.098c-1.066,0-1.983,0.37-2.753,1.111
			c-0.769,0.742-1.153,1.629-1.153,2.658c0,0.983,0.39,1.844,1.168,2.581c0.777,0.736,1.69,1.104,2.738,1.104
			c1.019,0,1.91-0.377,2.674-1.133C255.397,79.624,255.779,78.744,255.779,77.743z"/>
		<path fill="#6A6969" d="M268.42,71.948h2.462v6.58c0,2.027,0.892,3.042,2.674,3.042c0.792,0,1.42-0.272,1.883-0.814
			c0.461-0.541,0.693-1.285,0.693-2.228v-6.58h2.434v6.976c0,1.463-0.478,2.665-1.431,3.609c-0.951,0.942-2.168,1.414-3.649,1.414
			c-1.509,0-2.731-0.472-3.665-1.414c-0.934-0.944-1.4-2.175-1.4-3.694V71.948z"/>
		<path fill="#6A6969" d="M290.414,68.552h2.462v3.396h2.435v2.25h-2.435v9.424h-2.462v-9.424h-1.938V71.92h1.938V68.552z"/>
		<path fill="#6A6969" d="M305.135,71.948h2.462v6.58c0,2.027,0.893,3.042,2.675,3.042c0.793,0,1.419-0.272,1.882-0.814
			c0.463-0.541,0.693-1.285,0.693-2.228v-6.58h2.434v6.976c0,1.463-0.477,2.665-1.429,3.609c-0.953,0.942-2.17,1.414-3.651,1.414
			c-1.509,0-2.729-0.472-3.664-1.414c-0.934-0.944-1.401-2.175-1.401-3.694V71.948z"/>
		<path fill="#6A6969" d="M325.912,81.966c0-0.519,0.187-0.966,0.56-1.344c0.372-0.377,0.822-0.566,1.351-0.566
			c0.52,0,0.968,0.189,1.345,0.566c0.378,0.378,0.565,0.825,0.565,1.344c0,0.528-0.186,0.979-0.559,1.353
			c-0.373,0.371-0.822,0.559-1.352,0.559c-0.528,0-0.979-0.185-1.351-0.553C326.099,82.957,325.912,82.503,325.912,81.966z"/>
		<path fill="#6A6969" d="M349.504,80.056v2.815c-1.254,0.718-2.471,1.076-3.649,1.076c-1.613,0-3.026-0.606-4.238-1.818
			c-1.211-1.212-1.817-2.615-1.817-4.21c0-1.811,0.604-3.313,1.812-4.506c1.206-1.194,2.721-1.79,4.541-1.79
			c1.085,0,2.202,0.282,3.353,0.849v2.745c-1.235-0.793-2.404-1.189-3.508-1.189c-1.019,0-1.91,0.359-2.675,1.076
			c-0.764,0.717-1.146,1.557-1.146,2.519c0,1.085,0.359,1.998,1.076,2.737c0.717,0.741,1.595,1.111,2.632,1.111
			C346.939,81.471,348.146,81,349.504,80.056z"/>
		<path fill="#6A6969" d="M359.301,77.735c0-1.594,0.631-3.012,1.89-4.251c1.259-1.241,2.704-1.861,4.337-1.861
			c1.679,0,3.146,0.61,4.4,1.832c1.255,1.222,1.882,2.648,1.882,4.28c0,1.642-0.615,3.087-1.847,4.338
			c-1.23,1.249-2.653,1.874-4.266,1.874c-1.727,0-3.224-0.617-4.492-1.854C359.936,80.858,359.301,79.405,359.301,77.735z
			 M369.433,77.743c0-0.993-0.378-1.855-1.132-2.588c-0.755-0.732-1.65-1.098-2.689-1.098c-1.064,0-1.983,0.37-2.751,1.111
			c-0.77,0.742-1.153,1.629-1.153,2.658c0,0.983,0.39,1.844,1.167,2.581c0.778,0.736,1.691,1.104,2.737,1.104
			c1.021,0,1.911-0.377,2.675-1.133C369.051,79.624,369.433,78.744,369.433,77.743z"/>
		<path fill="#6A6969" d="M382.271,83.622V71.948h2.435v1.797c0.576-0.735,1.125-1.273,1.649-1.613
			c0.522-0.34,1.123-0.509,1.804-0.509c0.886,0,1.582,0.193,2.087,0.58c0.504,0.387,0.931,1.005,1.28,1.854
			c0.615-0.85,1.21-1.468,1.782-1.854c0.573-0.387,1.238-0.58,1.997-0.58c0.928,0,1.728,0.347,2.4,1.04
			c0.672,0.692,1.008,1.517,1.008,2.469v8.49h-2.462v-7.854c0-1.293-0.639-1.938-1.916-1.938c-0.729,0-1.347,0.33-1.853,0.991
			c-0.506,0.659-0.759,1.476-0.759,2.447v6.354h-2.462v-7.528c0-1.527-0.628-2.293-1.883-2.293c-0.745,0-1.377,0.313-1.896,0.935
			c-0.519,0.623-0.778,1.392-0.778,2.307v6.58H382.271z"/>
	</g>
	<path fill-rule="evenodd" clip-rule="evenodd" fill="#FF4100" d="M119.169,6.846c12.991,0,12.32,14.355,12.32,21.013l0.705,8.921
		l2.239,29.944v23.804c-1.116,0.582-1.782,1.483-2.944,1.103c-2.476-0.813-20.435-14.584-33.882-17.281
		c-1.206-0.241-5.713,1.492-8.28,2.492c0,0-0.477-0.489-1.189-0.625c0.995-1.724,3.037-3.278,4.415-4.118
		c-0.028-0.006,1.176-0.105,1.225-0.154c0.396,0.169,1.944-0.027,1.972-0.027c0.961,0.015,9.862-2.472,11.099-2.472
		c2.392,0,4.394-0.363,6.355,3.347c-3.198-0.39-4.878-0.875-6.114-0.875c-1.236,0-7.555,1.153-9.865,1.919
		c12.705,2.164,31.592,12.401,31.634,12.418c1.494,0.627,2.148,0,2.148,0c-0.497-3.715-0.012-10.89-0.012-12.126
		c0-18.669-2.394-43.567-6.585-60.571c-0.497-2.156-7.336-1.78-8.949-1.78c-10.091,0-17.117,2.863-28.276,9.332v-1.754
		C87.123,12.576,118.859,6.846,119.169,6.846 M101.164,19.165c0.672,0.566,0.752,0.499,0.752,1.727c0,2.158-1.854,3.588-2.109,6.187
		c3.252-2.564,3.09-3.473,5.804-3.473c1.344,0,3.198,0.733,3.198,2.709c0,2.835-5.429,10.21-7.887,12.784
		c3.764,2.162,24.655,5.575,24.655,11.615c0,1.237-1.128,1.947-2.164,2.433h-2.189c-2.297-8.035-20.181-10.32-21.533-10.32
		c-1.974,0-12.797,16.754-21.552,15.245c-0.517,2.499,2.447,15.813-2.351,15.813c-2.6,0-2.472-5.979-2.472-6.657
		c0-3.138,2.729-35.513,5.617-43.123c1.215,1.053,1.291,1.72,1.291,2.948c0,1.23-2.474,19.779-2.48,21.015v6.751
		c0.43,0.401-0.234,0.336,0.995,0.336c5.421,0,13.719-8.082,17.28-13.377h-7.607c-1.229,0.069-1.29,1.048-2.525,1.048
		c-1.23,0-0.989-0.489-1.673-0.563v-1.769c1.759-1.552,5.986-2.103,6.603-2.103c1.231,0,5.67,0.989,6.901,0.989
		c1.604,0,5.892-7.531,6.685-8.701v-1.297c0,0,0.468-0.354-0.766-0.354c-2.473,0-8.995,7.389-9.615,7.389
		c-2.155,0-2.465-3.077-2.465-3.446C91.557,30.257,100.505,19.731,101.164,19.165 M100.681,51.204
		c1.975,0,12.563,3.146,12.563,5.921c0,1.228-0.566,1.893-1.627,2.907h-2.242c-0.808-7.316-9.045-4.782-13.384-7.113
		C97.637,52.206,99.443,51.204,100.681,51.204 M99.941,61.066c2.285,0,6.907,1.849,6.907,3.455c0,1.229-1.128,1.939-2.324,2.443
		c-1.304-3.661-4.784-2.485-8.036-4.635C97.545,61.14,98.705,61.066,99.941,61.066"/>
	<g>
		<path fill="#FF4100" d="M45.436,55.896c0-0.348,0.152-0.958,0.3-1.549c0.164-0.657,0.319-1.277,0.319-1.703
			c0-0.989-0.371-3.119-0.799-5.584c-0.496-2.851-1.059-6.083-1.059-7.775v-6.117c0-1.398-1.61-9.808-5.587-9.808
			c-1.562,0-4.039,0.928-4.039,3.419c0,0.346-0.588,1.38-1.061,2.212c-0.689,1.211-1.107,1.98-1.107,2.435
			c0,0.469,0.256,0.939,0.504,1.393c0.209,0.383,0.425,0.779,0.425,1.084c0,5.184-3.777,15.857-7.108,25.275
			c-2.501,7.069-4.662,13.176-4.662,15.458c0,0.953,0.59,3.573,2.488,3.573c1.399,0,3.109-3.741,3.109-5.587
			c0-0.464-0.253-0.97-0.498-1.46c-0.212-0.424-0.43-0.861-0.43-1.173c0-0.902,0.367-2.023,0.692-3.012
			c0.229-0.697,0.431-1.314,0.493-1.804c0.303-0.036,0.647-0.037,1.008-0.038c0.835-0.003,1.698-0.006,2.271-0.463
			c4.61-3.606,10.762-8.044,11.478-8.146c0.353,0,0.411,0.065,0.443,0.1c0.016,0.02,0.038,0.043,0.069,0.069l0.87,15.771
			c0,0.163,0.025,0.395,0.062,0.718c0.14,1.224,0.43,3.771-0.061,9.152c-0.057,0.648-0.032,1.295-0.008,1.921
			c0.057,1.465,0.106,2.741-0.814,3.75c-0.829-0.544-1.7-1.193-2.618-1.874c-1.636-1.217-3.328-2.476-4.953-3.266l-0.194-0.095
			l-0.161,0.144c-0.09,0.08-0.145,0.104-0.199,0.127c-0.347,0.151-0.347,0.396-0.347,0.884c0,2.7,8.83,9.148,9.457,9.148
			c4.194,0,4.194-4.137,4.194-6.36c0-0.611,0.002-1.028,0.006-1.386c0.006-0.873,0.01-1.401-0.045-3.608L45.436,55.896z
			 M29.036,56.63c-0.011-2.283,1.398-5.363,3.349-7.324c0.929-0.933,2.415-2.045,4.222-2.045h1.352v1.01
			c0.012,1.716-2.879,4.331-5.203,6.432c-1.225,1.109-2.385,2.16-3.063,3.005h-0.657V56.63z M37.234,30.821
			c0.039-0.303,0.054-0.411,0.333-0.659c0.879,0.409,3.198,7.244,3.178,8.892v1.964c-1.099,0.185-1.952,0.28-3.301,0.432
			c-0.852,0.096-1.899,0.213-3.324,0.388c0.708-2.729,1.921-6.79,2.589-9.028c0.209-0.702,0.357-1.198,0.407-1.374
			C37.186,31.179,37.212,30.98,37.234,30.821z M42.313,52.179c0,1.837-6.226,4.662-8.507,5.55c1.464-2.195,3.858-4.127,5.995-5.853
			c0.788-0.634,1.539-1.241,2.187-1.817c0.044,0.284,0.097,0.555,0.146,0.805C42.226,51.343,42.313,51.795,42.313,52.179z"/>
		<path fill="#FF4100" d="M65.305,11.906l-0.07-0.013l-35.553,8.827c-0.04,0.002-0.077,0.006-0.111,0.011
			c0.723-1.133,1.683-2.502,2.614-3.831c2.148-3.066,3.022-4.365,3.005-4.816c0.044-0.252,0.175-1.107-0.029-1.52l-0.047-0.069
			c-0.112-0.127-0.321-0.279-0.683-0.279c-0.396,0-0.784,0.181-0.826,0.202l-0.096,0.07c-1.49,1.6-2.686,3.482-3.843,5.302
			c-1.829,2.879-3.556,5.599-6.321,7.212c-3.093,1.809-6.821,2.348-10.768,2.918c-3.725,0.539-7.577,1.095-10.94,2.81l-0.114,0.058
			L1.48,28.907c-0.031,0.086-0.29,0.861,0.023,1.414l0.07,0.125l0.14,0.031c0.033,0.008,0.825,0.18,2.063,0.18
			c0.724,0,1.453-0.06,2.12-0.172c0.431,0,2.87-0.768,7.946-2.396c3.061-0.982,6.869-2.204,7.265-2.226l0.261-0.002
			c-4.176,5.606-9.754,11.69-13.619,15.811c-0.16,0.173-1.312,1.11-2.532,2.103c-5.472,4.455-5.96,4.97-5.96,5.308
			c0,0.724,1.066,3.11,3.42,3.11c2.731,0,9.092-8.563,15.244-16.843c4.281-5.762,8.324-11.204,9.89-11.931
			c7.501-3.476,16.272-4.498,24.011-5.401c1.471-0.171,2.918-0.34,4.273-0.52c1.646,0.092,3,0.139,4.024,0.139
			c1.358,0,1.827-0.083,2.052-0.122c0.033-0.006,0.06-0.012,0.083-0.015c1.641,0.411,2.804,0.619,3.458,0.619
			c1.591,0,3.571,0,3.571-2.645C69.285,13.234,68.503,12.535,65.305,11.906z"/>
	</g>
</g>
</svg>
