<?xml version="1.0" encoding="utf-8"?>
<!-- Generator: Adobe Illustrator 15.0.0, SVG Export Plug-In . SVG Version: 6.00 Build 0)  -->
<!DOCTYPE svg PUBLIC "-//W3C//DTD SVG 1.1//EN" "http://www.w3.org/Graphics/SVG/1.1/DTD/svg11.dtd">
<svg version="1.1" id="图层_1" xmlns="http://www.w3.org/2000/svg" xmlns:xlink="http://www.w3.org/1999/xlink" x="0px" y="0px"
	 width="32px" height="32px" viewBox="0 0 32 32" enable-background="new 0 0 32 32" xml:space="preserve">
<path fill="#FFFFFF" d="M4.601,6.348c-0.65,0-1.181,0.532-1.181,1.181v0.034c0,0.65,0.533,1.181,1.181,1.181
	c0.651,0,1.181-0.532,1.181-1.181V7.528C5.782,6.88,5.251,6.348,4.601,6.348z"/>
<rect x="7.861" y="6.563" fill="#FFFFFF" width="20.136" height="1.875"/>
<rect x="7.861" y="15.354" fill="#FFFFFF" width="20.136" height="1.874"/>
<rect x="7.861" y="24.146" fill="#FFFFFF" width="20.136" height="1.875"/>
<path fill="#FFFFFF" d="M4.601,15.116c-0.65,0-1.181,0.532-1.181,1.181v0.034c0,0.65,0.533,1.181,1.181,1.181
	c0.651,0,1.181-0.532,1.181-1.181v-0.034C5.781,15.648,5.252,15.116,4.601,15.116z"/>
<path fill="#FFFFFF" d="M4.601,23.885c-0.65,0-1.181,0.532-1.181,1.181V25.1c0,0.65,0.533,1.181,1.181,1.181
	c0.651,0,1.181-0.532,1.181-1.181v-0.034C5.781,24.417,5.252,23.885,4.601,23.885z"/>
</svg>
