<?xml version="1.0" encoding="utf-8"?>
<!-- Generator: Adobe Illustrator 15.0.0, SVG Export Plug-In . SVG Version: 6.00 Build 0)  -->
<!DOCTYPE svg PUBLIC "-//W3C//DTD SVG 1.1//EN" "http://www.w3.org/Graphics/SVG/1.1/DTD/svg11.dtd">
<svg version="1.1" id="图层_1" xmlns="http://www.w3.org/2000/svg" xmlns:xlink="http://www.w3.org/1999/xlink" x="0px" y="0px"
	 width="230.568px" height="100px" viewBox="0 0 230.568 100" enable-background="new 0 0 230.568 100" xml:space="preserve">
<linearGradient id="SVGID_1_" gradientUnits="userSpaceOnUse" x1="622.9558" y1="876.6387" x2="549.1035" y2="795.4305" gradientTransform="matrix(1 0 0 1 -494.8398 -740.8008)">
	<stop  offset="0" style="stop-color:#FFC900"/>
	<stop  offset="0.0275" style="stop-color:#FFC500"/>
	<stop  offset="0.3266" style="stop-color:#FF9C00"/>
	<stop  offset="0.5985" style="stop-color:#FF7E00"/>
	<stop  offset="0.8321" style="stop-color:#FF6C00"/>
	<stop  offset="1" style="stop-color:#FF6600"/>
</linearGradient>
<path fill="url(#SVGID_1_)" d="M100.083,95.266c0,2.633-2.134,4.766-4.767,4.766H4.766C2.134,100.029,0,97.896,0,95.266V4.713
	c0-2.632,2.134-4.766,4.767-4.766h90.552c2.633,0,4.767,2.134,4.767,4.766L100.083,95.266L100.083,95.266z"/>
<g display="none">
	
		<linearGradient id="SVGID_2_" gradientUnits="userSpaceOnUse" x1="638.8923" y1="989.415" x2="519.5585" y2="737.4137" gradientTransform="matrix(1 0 0 1 -494.8398 -740.8008)">
		<stop  offset="0" style="stop-color:#FFC900"/>
		<stop  offset="0.0275" style="stop-color:#FFC500"/>
		<stop  offset="0.3266" style="stop-color:#FF9C00"/>
		<stop  offset="0.5985" style="stop-color:#FF7E00"/>
		<stop  offset="0.8321" style="stop-color:#FF6C00"/>
		<stop  offset="1" style="stop-color:#FF6600"/>
	</linearGradient>
	<rect x="0" display="inline" fill="url(#SVGID_2_)" width="100" height="100"/>
</g>
<polygon fill="#FFFFFF" points="70.557,72.063 70.558,73.428 70.558,72.063 "/>
<g>
	<path fill="#FFFFFF" d="M69.981,74.941c-0.091,0-0.166-0.006-0.225-0.01c-1.875-0.104-3.156-3.201-3.165-3.232
		c-0.106-0.414-0.078-0.941-0.044-1.262c0.011-0.65,0.138-1.277,0.229-1.738c0.026-0.131,1.841-35.498,1.88-35.822
		c-4.246,0.227-8.804,0.776-10.705,1.021l-0.139,0.018c-0.232,0.027-2.21,0.271-2.21,0.271l-0.168,0.011
		c-0.063,0.004-0.409,0.043-1.72,0.258l-0.109,0.018h-0.39c-0.936,0-1.643-0.704-1.643-1.642l0.01-0.424
		c0.328-3.003,2.021-3.604,2.99-3.697c1.438-0.568,3.832-1.113,7.299-1.66l0.086-0.01c1.21-0.115,11.721-1.089,13.63-1.117
		c2.139-0.229,7.494-0.801,7.688-0.822v0.001c0.15-0.019,0.449-0.044,0.695-0.044c0.241,0,0.561,0.019,0.862,0.16
		c0.292,0.137,0.593,0.276,1.447,1.986c0.761,1.518,0.82,2.146,0.676,2.668c-0.309,1.09-2.182,2.68-2.196,2.692
		c-0.174,0.121-0.369,0.212-0.562,0.301c-0.061,0.026-0.114,0.054-0.168,0.079L83.99,32.97c-0.227,0.127-0.641,0.365-1.344,0.393
		c-0.186,0.006-0.28,0.01-0.331,0.01c-0.084,0-0.161-0.007-0.238-0.019c-0.49-0.042-0.807-0.206-1.043-0.331
		c-0.041-0.023-0.089-0.049-0.145-0.073l-0.058-0.028c-1.367-0.672-3.191-1.104-5.146-1.217l-1.447,0.131
		c0.013,0.223-0.81,32.338-0.81,35.637l-0.003,0.084c-0.03,0.529-0.043,1.137-0.021,1.318c0.021,0.082-0.021,0.213,0.015,0.322
		c0.098,0.307,0.133,0.666,0.142,1.047c0.015,0.572-0.092,1.127-0.563,2.025c-0.016,0.021-1.554,2.555-2.748,2.66
		C70.146,74.938,70.054,74.941,69.981,74.941z"/>
	<path fill="#FFFFFF" d="M13.101,73.697c-0.169-0.885-0.184-2.174,0.081-2.744c0.264-0.57,14.557-22.789,14.708-23.129
		c0.15-0.34-11.18-16.144-12.115-17.242c-0.937-1.098-1.268-2.477-1.289-3.451c-0.022-0.974,1.465-2.292,2.064-2.618
		c0.601-0.326,1.312-0.626,2.714-0.132c1.401,0.494,3.775,4.878,5.001,7.363c1.225,2.485,6.573,10.438,7.525,10.6
		c0.952,0.162,9.416-13.191,9.622-13.76s-0.138-4.537,3.541-4.199c1.743,0.13,2.915,0.802,3.649,1.302
		c0.733,0.5,1.523,1.62,1.137,2.818c-0.387,1.198-4.854,7.417-5.819,8.583c-0.965,1.166-17.996,25.373-22.057,34.518
		c-0.964,2.135-1.523,2.885-2.931,3.601c-0.797,0.405-2.489,0.558-3.849,0.222C14.045,75.171,13.27,74.582,13.101,73.697z"/>
</g>
<g>
	<g>
		<g>
			<path fill="#FFFFFF" d="M211.709,14.611c9.103,0,8.633,10.057,8.633,14.72l0.494,6.249l1.568,20.979v16.674
				c-0.781,0.408-1.248,1.041-2.063,0.771c-1.733-0.568-14.313-10.217-23.733-12.104c-0.846-0.17-4.004,1.043-5.801,1.744
				c0,0-0.336-0.342-0.834-0.438c0.696-1.207,2.127-2.296,3.092-2.888c-0.021-0.004,0.826-0.071,0.858-0.105
				c0.275,0.115,1.361-0.021,1.382-0.021c0.676,0.016,6.907-1.729,7.774-1.729c1.676,0,3.078-0.254,4.451,2.346
				c-2.24-0.271-3.418-0.613-4.283-0.613s-5.293,0.813-6.912,1.349c8.9,1.517,22.133,8.688,22.16,8.697c1.047,0.44,1.504,0,1.504,0
				c-0.346-2.603-0.006-7.63-0.006-8.493c0-13.079-1.682-30.521-4.613-42.432c-0.35-1.51-5.143-1.248-6.271-1.248
				c-7.068,0-11.992,2.006-19.81,6.537v-1.228C189.262,18.626,211.492,14.611,211.709,14.611 M199.098,23.242
				c0.475,0.397,0.524,0.349,0.524,1.209c0,1.511-1.297,2.515-1.479,4.333c2.282-1.797,2.17-2.434,4.069-2.434
				c0.939,0,2.238,0.515,2.238,1.899c0,1.986-3.803,7.152-5.522,8.955c2.635,1.514,17.271,3.906,17.271,8.137
				c0,0.866-0.793,1.364-1.52,1.705h-1.531c-1.607-5.63-14.14-7.229-15.084-7.229c-1.385,0-8.967,11.738-15.101,10.679
				c-0.36,1.75,1.718,11.076-1.646,11.076c-1.822,0-1.729-4.189-1.729-4.662c0-2.198,1.912-24.878,3.938-30.209
				c0.85,0.738,0.9,1.204,0.9,2.064c0,0.862-1.73,13.857-1.736,14.722v4.729c0.303,0.285-0.162,0.237,0.695,0.237
				c3.799,0,9.604-5.663,12.106-9.372h-5.334c-0.856,0.05-0.9,0.735-1.77,0.735c-0.859,0-0.691-0.342-1.173-0.394v-1.24
				c1.232-1.087,4.191-1.474,4.625-1.474c0.861,0,3.976,0.693,4.834,0.693c1.123,0,4.13-5.274,4.687-6.097v-0.908
				c0,0,0.326-0.248-0.537-0.248c-1.729,0-6.303,5.177-6.734,5.177c-1.51,0-1.727-2.155-1.727-2.415
				C192.369,31.013,198.637,23.639,199.098,23.242 M198.76,45.688c1.384,0,8.802,2.202,8.802,4.145c0,0.862-0.396,1.328-1.14,2.038
				h-1.569c-0.566-5.125-6.338-3.35-9.377-4.983C196.627,46.388,197.891,45.688,198.76,45.688 M198.242,52.596
				c1.6,0,4.838,1.295,4.838,2.422c0,0.86-0.793,1.359-1.629,1.713c-0.914-2.563-3.354-1.744-5.633-3.248
				C196.561,52.646,197.373,52.596,198.242,52.596"/>
		</g>
		<g>
			<g>
				<path fill="#FFFFFF" d="M151.573,48.974c0-0.242,0.105-0.671,0.211-1.085c0.111-0.458,0.228-0.894,0.228-1.193
					c0-0.693-0.265-2.185-0.563-3.912c-0.35-1.997-0.742-4.26-0.742-5.446v-4.287c0-0.979-1.127-6.87-3.914-6.87
					c-1.092,0-2.828,0.651-2.828,2.396c0,0.242-0.409,0.967-0.739,1.549c-0.482,0.849-0.773,1.388-0.773,1.706
					c0,0.328,0.18,0.656,0.354,0.975c0.146,0.269,0.297,0.546,0.297,0.761c0,3.631-2.646,11.11-4.979,17.706
					c-1.754,4.953-3.27,9.229-3.27,10.828c0,0.672,0.414,2.504,1.744,2.504c0.979,0,2.178-2.621,2.178-3.914
					c0-0.319-0.178-0.678-0.349-1.021c-0.147-0.297-0.305-0.604-0.305-0.819c0-0.637,0.258-1.418,0.48-2.108
					c0.162-0.487,0.305-0.925,0.35-1.269c0.213-0.021,0.453-0.021,0.707-0.022c0.584,0,1.188-0.005,1.59-0.322
					c3.229-2.522,7.539-5.637,8.039-5.708c0.246,0,0.287,0.043,0.313,0.069c0.014,0.015,0.024,0.032,0.049,0.048l0.608,11.048
					c0,0.115,0.021,0.274,0.043,0.503c0.104,0.855,0.302,2.646-0.041,6.414c-0.038,0.454-0.021,0.9-0.008,1.348
					c0.039,1.022,0.074,1.924-0.569,2.627c-0.582-0.379-1.188-0.838-1.83-1.313c-1.146-0.854-2.334-1.733-3.478-2.286l-0.135-0.064
					l-0.111,0.104c-0.063,0.054-0.1,0.067-0.137,0.086c-0.244,0.106-0.244,0.276-0.244,0.621c0,1.892,6.188,6.405,6.625,6.405
					c2.938,0,2.938-2.896,2.938-4.454c0-0.429,0.004-0.722,0.004-0.972c0.01-0.61,0.012-0.979-0.025-2.528L151.573,48.974z
					 M140.084,49.486c-0.008-1.599,0.979-3.758,2.349-5.129c0.647-0.655,1.688-1.433,2.957-1.433h0.944v0.707
					c0.011,1.201-2.016,3.033-3.646,4.507c-0.855,0.774-1.67,1.512-2.146,2.106h-0.461L140.084,49.486L140.084,49.486z
					 M145.826,31.407c0.025-0.212,0.037-0.288,0.23-0.462c0.616,0.286,2.241,5.073,2.229,6.229v1.375
					c-0.77,0.131-1.367,0.197-2.313,0.302c-0.597,0.068-1.326,0.15-2.33,0.273c0.5-1.913,1.352-4.757,1.815-6.326
					c0.146-0.491,0.248-0.839,0.283-0.961C145.793,31.657,145.809,31.519,145.826,31.407z M149.387,46.368
					c0,1.288-4.357,3.268-5.959,3.889c1.022-1.538,2.7-2.891,4.198-4.099c0.552-0.444,1.078-0.871,1.533-1.274
					c0.027,0.199,0.064,0.389,0.103,0.564C149.326,45.784,149.387,46.102,149.387,46.368z"/>
			</g>
			<g>
				<path fill="#FFFFFF" d="M165.492,18.157l-0.053-0.009l-24.902,6.183c-0.029,0-0.059,0.004-0.078,0.008
					c0.506-0.793,1.181-1.753,1.828-2.685c1.506-2.146,2.117-3.058,2.104-3.374c0.03-0.175,0.123-0.777-0.021-1.064l-0.029-0.049
					c-0.082-0.09-0.229-0.196-0.479-0.196c-0.273,0-0.549,0.127-0.578,0.141l-0.066,0.049c-1.043,1.122-1.881,2.44-2.688,3.714
					c-1.281,2.018-2.49,3.922-4.432,5.053c-2.168,1.268-4.773,1.645-7.541,2.044c-2.607,0.377-5.312,0.768-7.666,1.968l-0.08,0.041
					l-0.029,0.086c-0.021,0.061-0.201,0.603,0.018,0.989l0.05,0.09l0.1,0.02c0.021,0.004,0.578,0.125,1.443,0.125
					c0.508,0,1.021-0.041,1.483-0.121c0.304,0,2.011-0.537,5.563-1.678c2.146-0.688,4.813-1.544,5.094-1.559l0.184-0.001
					c-2.926,3.927-6.832,8.189-9.538,11.076c-0.113,0.122-0.923,0.778-1.771,1.474c-3.834,3.121-4.178,3.481-4.178,3.718
					c0,0.508,0.746,2.177,2.396,2.177c1.914,0,6.371-5.997,10.683-11.799c2.998-4.036,5.832-7.849,6.926-8.357
					c5.26-2.435,11.399-3.152,16.822-3.783c1.028-0.12,2.043-0.239,2.991-0.365c1.154,0.064,2.104,0.096,2.818,0.096
					c0.949,0,1.279-0.056,1.438-0.084c0.022-0.004,0.043-0.008,0.059-0.01c1.147,0.287,1.967,0.434,2.424,0.434
					c1.109,0,2.502,0,2.502-1.853C168.281,19.087,167.731,18.597,165.492,18.157z"/>
			</g>
		</g>
	</g>
	<g>
		<g>
			<path fill="#FFFFFF" d="M112.712,87.49h-1.373c0.091-0.793,0.4-1.396,0.935-1.813c0.533-0.416,1.182-0.623,1.938-0.623
				c0.871,0,1.591,0.248,2.162,0.744c0.57,0.497,0.857,1.118,0.857,1.866c0,0.931-0.476,1.64-1.417,2.134
				c1.104,0.571,1.658,1.355,1.658,2.357c0,0.785-0.302,1.475-0.902,2.048c-0.603,0.577-1.316,0.864-2.145,0.864
				c-0.831,0-1.551-0.207-2.159-0.623c-0.607-0.414-1.007-1.073-1.198-1.975h1.401c0.307,0.975,0.93,1.463,1.874,1.463
				c0.482,0,0.902-0.168,1.264-0.5c0.357-0.33,0.538-0.721,0.538-1.16c0-0.465-0.165-0.889-0.494-1.271
				c-0.33-0.389-0.869-0.589-1.625-0.604V89.23c0.576-0.012,1.028-0.148,1.354-0.424c0.329-0.271,0.492-0.621,0.492-1.048
				c0-0.438-0.153-0.81-0.459-1.112c-0.306-0.305-0.677-0.455-1.113-0.455c-0.413,0-0.742,0.104-0.988,0.307
				C113.064,86.707,112.866,87.037,112.712,87.49z"/>
			<path fill="#FFFFFF" d="M114.423,95.318c-0.88,0-1.654-0.225-2.301-0.666c-0.658-0.447-1.096-1.164-1.302-2.129l-0.064-0.303
				h1.896l0.055,0.176c0.271,0.867,0.808,1.287,1.635,1.287c0.418,0,0.776-0.142,1.095-0.434c0.307-0.283,0.457-0.604,0.457-0.977
				c0-0.405-0.143-0.77-0.435-1.108c-0.281-0.33-0.765-0.504-1.439-0.517l-0.245-0.006v-1.656l0.245-0.006
				c0.526-0.01,0.919-0.129,1.197-0.364c0.272-0.226,0.403-0.505,0.403-0.856c0-0.371-0.126-0.678-0.385-0.935
				c-0.259-0.259-0.565-0.384-0.938-0.384c-0.351,0-0.63,0.084-0.83,0.248c-0.203,0.176-0.379,0.473-0.518,0.881l-0.058,0.168
				h-1.832l0.03-0.277c0.098-0.857,0.443-1.523,1.028-1.98c0.576-0.448,1.28-0.676,2.091-0.676c0.93,0,1.711,0.271,2.326,0.807
				c0.626,0.546,0.943,1.236,0.943,2.055c0,0.889-0.395,1.604-1.172,2.13c0.938,0.597,1.412,1.39,1.412,2.362
				c0,0.857-0.329,1.607-0.979,2.229C116.094,95.005,115.314,95.318,114.423,95.318z M111.384,92.723
				c0.198,0.682,0.54,1.19,1.02,1.518c0.563,0.385,1.242,0.58,2.02,0.58c0.77,0,1.413-0.26,1.972-0.795
				c0.548-0.521,0.824-1.149,0.824-1.866c0-0.908-0.497-1.606-1.521-2.138l-0.426-0.219l0.425-0.225
				c0.864-0.453,1.284-1.079,1.284-1.912c0-0.678-0.252-1.227-0.771-1.678c-0.527-0.461-1.182-0.684-1.998-0.684
				c-0.697,0-1.298,0.19-1.784,0.569c-0.418,0.327-0.68,0.774-0.796,1.364h0.907c0.161-0.413,0.36-0.719,0.608-0.932
				c0.295-0.242,0.682-0.365,1.151-0.365c0.504,0,0.938,0.179,1.29,0.529c0.354,0.35,0.533,0.782,0.533,1.288
				c0,0.505-0.196,0.923-0.583,1.24c-0.314,0.267-0.74,0.423-1.264,0.47v0.69c0.701,0.054,1.227,0.282,1.564,0.68
				c0.367,0.429,0.555,0.911,0.555,1.435c0,0.514-0.208,0.965-0.619,1.345c-0.408,0.375-0.891,0.565-1.433,0.565
				c-1.002,0-1.691-0.492-2.053-1.463h-0.905V92.723z"/>
		</g>
		<g>
			<path fill="#FFFFFF" d="M123.469,84.861l0.977,0.677l-2.066,3.021c0.172-0.019,0.293-0.027,0.361-0.027l0.275-0.016
				c0.875,0,1.646,0.313,2.311,0.939c0.664,0.623,0.998,1.345,0.998,2.163c0,0.967-0.332,1.789-0.99,2.463
				c-0.658,0.675-1.463,1.011-2.412,1.011c-0.948,0-1.764-0.332-2.436-0.992c-0.676-0.662-1.012-1.461-1.012-2.395
				c0-0.721,0.211-1.385,0.635-1.994L123.469,84.861z M124.983,91.659c0-0.57-0.205-1.063-0.617-1.479
				c-0.41-0.416-0.896-0.623-1.457-0.623c-0.561,0-1.049,0.209-1.469,0.631c-0.418,0.422-0.629,0.91-0.629,1.473
				c0,0.58,0.203,1.072,0.608,1.472c0.406,0.403,0.902,0.604,1.486,0.604c0.574,0,1.064-0.203,1.469-0.605
				C124.781,92.727,124.983,92.234,124.983,91.659z"/>
			<path fill="#FFFFFF" d="M122.922,95.344c-1.014,0-1.892-0.359-2.61-1.064c-0.722-0.707-1.086-1.572-1.086-2.572
				c0-0.77,0.229-1.488,0.68-2.137l3.501-5.055l1.387,0.959l-1.914,2.799l0.123-0.008c0.001,0,0.002,0,0.002,0
				c0.953,0,1.787,0.34,2.495,1.01c0.714,0.67,1.076,1.459,1.076,2.345c0,1.028-0.357,1.917-1.062,2.638
				C124.81,94.979,123.939,95.344,122.922,95.344z M123.532,85.21l-3.217,4.646c-0.397,0.57-0.59,1.176-0.59,1.852
				c0,0.873,0.307,1.598,0.937,2.216c0.622,0.611,1.382,0.921,2.26,0.921c0.89,0,1.619-0.306,2.233-0.936
				c0.609-0.624,0.919-1.395,0.919-2.288c0-0.753-0.301-1.399-0.919-1.979c-0.613-0.58-1.332-0.873-2.14-0.873l-0.263,0.016
				c-0.077,0-0.188,0.01-0.349,0.027l-0.539,0.058l2.232-3.265L123.532,85.21z M122.906,93.984c-0.651,0-1.211-0.229-1.663-0.676
				c-0.453-0.445-0.683-1-0.683-1.649c0-0.624,0.235-1.179,0.701-1.647c0.466-0.468,1.02-0.705,1.646-0.705
				c0.63,0,1.18,0.234,1.636,0.697s0.688,1.02,0.688,1.655c0,0.646-0.229,1.198-0.683,1.647
				C124.096,93.755,123.546,93.984,122.906,93.984z M122.908,89.807c-0.496,0-0.918,0.184-1.292,0.559
				c-0.374,0.377-0.556,0.801-0.556,1.295c0,0.518,0.175,0.939,0.533,1.293c0.361,0.357,0.79,0.531,1.313,0.531
				c0.51,0,0.933-0.174,1.292-0.531s0.534-0.78,0.534-1.293c0-0.506-0.179-0.934-0.545-1.305
				C123.824,89.986,123.406,89.807,122.908,89.807z"/>
		</g>
		<g>
			<path fill="#FFFFFF" d="M131.563,85.055c1.031,0,1.871,0.465,2.52,1.391c0.648,0.929,0.969,2.136,0.969,3.617
				c0,1.533-0.348,2.756-1.043,3.668c-0.698,0.912-1.532,1.365-2.508,1.365c-1.014,0-1.854-0.465-2.526-1.396
				c-0.675-0.933-1.009-2.119-1.009-3.562c0-1.602,0.345-2.847,1.037-3.738c0.689-0.895,1.521-1.34,2.482-1.34h0.072L131.563,85.055
				L131.563,85.055z M133.709,90.043c0-1.063-0.207-1.936-0.627-2.619c-0.418-0.686-0.942-1.025-1.578-1.025
				c-0.651,0-1.188,0.338-1.6,1.017c-0.414,0.677-0.621,1.567-0.621,2.676c0,1.101,0.209,1.978,0.627,2.644
				c0.416,0.666,0.959,1,1.623,1c0.641,0,1.162-0.34,1.57-1.021C133.508,92.029,133.709,91.141,133.709,90.043z"/>
			<path fill="#FFFFFF" d="M131.5,95.346c-1.094,0-2.012-0.505-2.729-1.5c-0.699-0.969-1.056-2.217-1.056-3.707
				c0-1.652,0.366-2.961,1.091-3.893c0.728-0.941,1.617-1.426,2.647-1.436l0.109-0.006c1.111,0,2.028,0.504,2.725,1.496
				c0.673,0.963,1.014,2.229,1.014,3.762c0,1.58-0.367,2.865-1.094,3.817C133.462,94.854,132.551,95.346,131.5,95.346z
				 M131.485,85.311c-0.894,0-1.64,0.406-2.284,1.242c-0.654,0.842-0.985,2.047-0.985,3.586c0,1.383,0.323,2.532,0.96,3.414
				c0.629,0.87,1.39,1.293,2.325,1.293c0.899,0,1.655-0.414,2.311-1.269c0.656-0.862,0.99-2.046,0.99-3.515
				c0-1.43-0.311-2.598-0.924-3.475c-0.587-0.839-1.316-1.259-2.23-1.283L131.485,85.311z M131.533,93.982
				c-0.754,0-1.371-0.377-1.835-1.116c-0.441-0.704-0.665-1.64-0.665-2.776c0-1.148,0.222-2.093,0.658-2.807
				c0.457-0.754,1.066-1.137,1.813-1.137c0.726,0,1.327,0.387,1.791,1.146c0.44,0.716,0.664,1.643,0.664,2.749
				c0,1.138-0.216,2.079-0.641,2.796C132.864,93.6,132.263,93.982,131.533,93.982z M131.504,86.646c-0.565,0-1.02,0.293-1.386,0.896
				c-0.389,0.635-0.585,1.49-0.585,2.546c0,1.043,0.198,1.888,0.589,2.511c0.371,0.594,0.833,0.883,1.411,0.883
				c0.55,0,0.993-0.295,1.355-0.899c0.378-0.638,0.569-1.493,0.569-2.54c0-1.014-0.198-1.852-0.59-2.488
				C132.496,86.943,132.05,86.646,131.504,86.646z"/>
		</g>
		<g>
			<path fill="#FFFFFF" d="M137.069,85.291h2.285l3.473,5.195l2.396-5.195h2.08l-6.462,14.053h-2.104l3.158-6.844L137.069,85.291z"
				/>
		</g>
		<g>
			<path fill="#FFFFFF" d="M148.711,90.034c0-1.308,0.515-2.47,1.547-3.485c1.031-1.015,2.218-1.525,3.554-1.525
				c1.373,0,2.578,0.502,3.604,1.502c1.027,1,1.541,2.172,1.541,3.506c0,1.351-0.502,2.529-1.514,3.56
				c-1.01,1.021-2.174,1.534-3.496,1.534c-1.41,0-2.641-0.506-3.682-1.521C149.229,92.59,148.711,91.4,148.711,90.034z
				 M157.012,90.04c0-0.813-0.314-1.521-0.931-2.12c-0.617-0.6-1.354-0.9-2.201-0.9c-0.873,0-1.625,0.309-2.254,0.912
				c-0.635,0.608-0.944,1.332-0.944,2.178c0,0.81,0.319,1.515,0.957,2.113c0.637,0.604,1.385,0.907,2.241,0.907
				c0.834,0,1.563-0.312,2.188-0.933C156.698,91.58,157.012,90.859,157.012,90.04z"/>
		</g>
		<g>
			<path fill="#FFFFFF" d="M161.145,85.291h2.021v5.391c0,1.662,0.729,2.493,2.188,2.493c0.649,0,1.162-0.224,1.543-0.669
				c0.379-0.441,0.567-1.053,0.567-1.824v-5.391h1.994v5.714c0,1.2-0.395,2.185-1.172,2.957c-0.781,0.774-1.777,1.16-2.992,1.16
				c-1.235,0-2.237-0.386-3.004-1.16c-0.766-0.772-1.146-1.778-1.146-3.022V85.291L161.145,85.291z"/>
		</g>
		<g>
			<path fill="#FFFFFF" d="M172.944,82.509h2.02v2.782h1.994v1.844h-1.994v7.723h-2.02v-7.723h-1.59v-1.867h1.59V82.509z"/>
		</g>
		<g>
			<path fill="#FFFFFF" d="M178.78,85.291h2.02v5.391c0,1.662,0.73,2.493,2.189,2.493c0.648,0,1.164-0.224,1.543-0.669
				c0.379-0.441,0.566-1.053,0.566-1.824v-5.391h1.995v5.714c0,1.2-0.393,2.185-1.172,2.957c-0.778,0.774-1.776,1.16-2.991,1.16
				c-1.234,0-2.234-0.386-3.005-1.16c-0.768-0.772-1.146-1.778-1.146-3.022V85.291L178.78,85.291z"/>
		</g>
		<g>
			<path fill="#FFFFFF" d="M189.582,93.499c0-0.427,0.15-0.795,0.457-1.101c0.31-0.313,0.676-0.463,1.107-0.463
				c0.424,0,0.791,0.149,1.104,0.463c0.308,0.306,0.463,0.674,0.463,1.101c0,0.435-0.149,0.804-0.459,1.108
				c-0.307,0.305-0.672,0.457-1.104,0.457s-0.801-0.151-1.105-0.451C189.735,94.313,189.582,93.938,189.582,93.499z"/>
		</g>
		<g>
			<path fill="#FFFFFF" d="M202.692,91.936v2.311c-1.025,0.587-2.021,0.881-2.992,0.881c-1.316,0-2.479-0.495-3.471-1.488
				c-0.996-0.99-1.492-2.146-1.492-3.445c0-1.484,0.494-2.719,1.484-3.694c0.989-0.978,2.229-1.466,3.721-1.466
				c0.893,0,1.811,0.229,2.75,0.695v2.25c-1.017-0.648-1.974-0.979-2.877-0.979c-0.836,0-1.563,0.298-2.189,0.881
				c-0.627,0.589-0.938,1.272-0.938,2.063c0,0.89,0.295,1.639,0.881,2.242c0.588,0.604,1.307,0.907,2.152,0.907
				C200.59,93.094,201.576,92.704,202.692,91.936z"/>
		</g>
		<g>
			<path fill="#FFFFFF" d="M204.494,90.034c0-1.308,0.519-2.47,1.549-3.485c1.031-1.015,2.215-1.525,3.554-1.525
				c1.377,0,2.577,0.502,3.604,1.502c1.031,1,1.545,2.172,1.545,3.506c0,1.351-0.504,2.529-1.512,3.56
				c-1.01,1.021-2.176,1.534-3.496,1.534c-1.412,0-2.644-0.506-3.68-1.521C205.016,92.59,204.494,91.4,204.494,90.034z
				 M212.797,90.04c0-0.813-0.313-1.521-0.934-2.12c-0.613-0.6-1.35-0.9-2.197-0.9c-0.873,0-1.623,0.309-2.26,0.912
				c-0.629,0.608-0.939,1.332-0.939,2.178c0,0.81,0.314,1.515,0.957,2.113c0.638,0.604,1.384,0.907,2.242,0.907
				c0.834,0,1.563-0.312,2.188-0.933C212.485,91.58,212.797,90.859,212.797,90.04z"/>
		</g>
		<g>
			<path fill="#FFFFFF" d="M217.092,94.855v-9.564h1.996v1.471c0.472-0.602,0.922-1.041,1.353-1.32
				c0.428-0.275,0.918-0.418,1.479-0.418c0.728,0,1.295,0.158,1.709,0.479c0.412,0.319,0.765,0.819,1.05,1.521
				c0.504-0.693,0.991-1.203,1.461-1.521c0.471-0.313,1.014-0.479,1.637-0.479c0.764,0,1.416,0.285,1.967,0.854
				c0.553,0.567,0.826,1.244,0.826,2.021v6.957h-2.021v-6.434c0-1.061-0.521-1.59-1.567-1.59c-0.599,0-1.104,0.271-1.521,0.813
				c-0.414,0.541-0.619,1.207-0.619,2.004v5.207h-2.021v-6.166c0-1.254-0.516-1.879-1.543-1.879c-0.609,0-1.129,0.254-1.555,0.768
				c-0.427,0.51-0.638,1.139-0.638,1.891v5.395h-1.994L217.092,94.855L217.092,94.855z"/>
		</g>
	</g>
</g>
</svg>
